<?xml version="1.0" encoding="UTF-8" standalone="no"?>
<!-- Created with Inkscape (http://www.inkscape.org/) -->

<svg
   width="135.46666mm"
   height="135.46666mm"
   viewBox="0 0 135.46666 135.46666"
   version="1.1"
   id="svg5"
   xml:space="preserve"
   inkscape:version="1.2.1 (9c6d41e410, 2022-07-14)"
   sodipodi:docname="code.svg"
   xmlns:inkscape="http://www.inkscape.org/namespaces/inkscape"
   xmlns:sodipodi="http://sodipodi.sourceforge.net/DTD/sodipodi-0.dtd"
   xmlns="http://www.w3.org/2000/svg"
   xmlns:svg="http://www.w3.org/2000/svg"><sodipodi:namedview
     id="namedview7"
     pagecolor="#ffffff"
     bordercolor="#111111"
     borderopacity="1"
     inkscape:showpageshadow="0"
     inkscape:pageopacity="0"
     inkscape:pagecheckerboard="1"
     inkscape:deskcolor="#d1d1d1"
     inkscape:document-units="mm"
     showgrid="false"
     inkscape:zoom="0.65299523"
     inkscape:cx="291.73261"
     inkscape:cy="215.92807"
     inkscape:window-width="1920"
     inkscape:window-height="1009"
     inkscape:window-x="1912"
     inkscape:window-y="-8"
     inkscape:window-maximized="1"
     inkscape:current-layer="layer1" /><defs
     id="defs2" /><g
     inkscape:label="Capa 1"
     inkscape:groupmode="layer"
     id="layer1"
     transform="translate(-23.838293,-91.098869)"><path
       style="fill:#7f7f7f;stroke-width:0.264583;fill-opacity:1"
       d="m 32.923531,225.62936 c -4.42467,-1.19162 -7.84787,-4.73034 -8.7681,-9.064 -0.42018,-1.97875 -0.42417,-113.98777 -0.004,-115.99374 0.6894,-3.292403 3.1634,-6.55067 6.10618,-8.041893 2.98995,-1.515123 -0.6562,-1.429989 61.24384,-1.429989 40.697869,0 57.349189,0.08378 58.351179,0.293586 4.4448,0.930708 8.22612,4.713742 9.17415,9.178296 0.42385,1.99605 0.42385,113.99768 0,115.99374 -0.94803,4.46455 -4.72935,8.24758 -9.17415,9.17829 -1.00356,0.21014 -17.62405,0.28864 -58.472919,0.27617 -48.23888,-0.0147 -57.28519,-0.0751 -58.45604,-0.39046 z m 116.353649,-8.06235 c 0.67211,-0.34289 1.23407,-0.90485 1.57696,-1.57696 0.5273,-1.0336 0.53272,-1.47262 0.53272,-43.12352 V 130.78724 H 91.588651 31.790421 l 0.0685,42.39948 0.0685,42.39947 0.5869,0.82278 c 1.2999,1.82234 -3.75418,1.67807 59.02104,1.68474 56.307709,0.006 56.704689,0.002 57.741749,-0.5267 z M 77.764381,205.605 c -1.06969,-0.62001 -2.04834,-2.26427 -2.04834,-3.44149 0,-0.64454 23.55759,-55.9954 24.539019,-57.65684 0.51148,-0.86587 2.25455,-1.81318 3.3363,-1.81318 1.28804,0 2.71217,0.94066 3.31762,2.19135 0.30638,0.6329 0.55705,1.46028 0.55705,1.83862 0,0.64454 -23.557589,55.99541 -24.539019,57.65684 -0.5241,0.88724 -2.2672,1.81591 -3.3919,1.80711 -0.42701,-0.003 -1.22383,-0.26543 -1.77073,-0.58241 z m -11.48002,-11.70079 c -1.4897,-0.64818 -21.07399,-16.47169 -21.71866,-17.54802 -0.7514,-1.25453 -0.7514,-2.57087 0,-3.82541 0.67,-1.11862 20.28914,-16.93764 21.77802,-17.55974 1.18256,-0.4941 1.87298,-0.46103 3.22969,0.15474 0.86526,0.39272 1.25512,0.78257 1.64783,1.64784 0.62634,1.38 0.64822,2.00797 0.1163,3.33739 -0.34145,0.85336 -1.77483,2.11528 -8.59896,7.57039 -4.50406,3.60048 -8.18921,6.64342 -8.18921,6.76209 0,0.11866 3.68515,3.1616 8.18921,6.76209 6.82413,5.45511 8.25751,6.71703 8.59896,7.57039 0.53192,1.32941 0.51004,1.95739 -0.1163,3.33739 -0.81723,1.80059 -3.05164,2.61112 -4.93688,1.79085 z m 47.324299,-0.14301 c -0.86526,-0.39272 -1.25512,-0.78258 -1.64784,-1.64784 -0.62633,-1.38 -0.64822,-2.00798 -0.11629,-3.33739 0.34145,-0.85336 1.77482,-2.11528 8.59896,-7.57039 4.50406,-3.60049 8.18921,-6.64343 8.18921,-6.76209 0,-0.11867 -3.68515,-3.16161 -8.18921,-6.76209 -8.54165,-6.82806 -9.00871,-7.30821 -9.00871,-9.2611 0,-1.25216 1.00537,-2.76386 2.19834,-3.30547 1.33225,-0.60485 2.02715,-0.63602 3.20522,-0.14379 1.48889,0.6221 21.10803,16.44112 21.77803,17.55974 0.32502,0.54267 0.59096,1.40339 0.59096,1.91271 0,0.50932 -0.26594,1.37004 -0.59096,1.9127 -0.67,1.11862 -20.28914,16.93765 -21.77803,17.55975 -1.18256,0.4941 -1.87297,0.46102 -3.22968,-0.15474 z m 37.72066,-81.56094 c -0.0739,-10.53395 -0.0812,-10.65845 -0.66485,-11.47675 -1.30486,-1.829313 3.7063,-1.686273 -59.073439,-1.686273 -62.77973,0 -57.76857,-0.14304 -59.07343,1.686273 -0.5837,0.8183 -0.59092,0.9428 -0.66486,11.47675 l -0.0748,10.64948 h 59.81305 59.813039 z m -109.103259,2.1777 c -1.24218,-0.61489 -2.22877,-2.13519 -2.22877,-3.43447 0,-1.92726 2.04149,-3.96875 3.96875,-3.96875 1.90016,0 3.96875,2.06859 3.96875,3.96875 0,1.26143 -1.027,2.84804 -2.21611,3.42368 -1.41076,0.68294 -2.13026,0.68516 -3.49262,0.0108 z m 15.875,0 c -1.24218,-0.61489 -2.22877,-2.13519 -2.22877,-3.43447 0,-1.92726 2.04149,-3.96875 3.96875,-3.96875 1.90016,0 3.96875,2.06859 3.96875,3.96875 0,1.26143 -1.027,2.84804 -2.21611,3.42368 -1.41076,0.68294 -2.13026,0.68516 -3.49262,0.0108 z m 15.875,0 c -1.24218,-0.61489 -2.22877,-2.13519 -2.22877,-3.43447 0,-1.92726 2.04149,-3.96875 3.96875,-3.96875 1.90016,0 3.96875,2.06859 3.96875,3.96875 0,1.26143 -1.027,2.84804 -2.21611,3.42368 -1.41076,0.68294 -2.13026,0.68516 -3.49262,0.0108 z m 39.687499,0 c -1.24219,-0.61489 -2.22878,-2.13519 -2.22878,-3.43447 0,-1.21756 0.9553,-2.75506 2.11774,-3.40839 0.97721,-0.54923 1.2505,-0.56036 13.75726,-0.56036 12.62852,0 12.77086,0.006 13.78843,0.57788 1.08315,0.60876 2.08657,2.23941 2.08657,3.39087 0,1.26143 -1.027,2.84804 -2.2161,3.42368 -1.08843,0.5269 -1.54444,0.54506 -13.67629,0.54486 -12.0542,-2e-4 -12.59295,-0.0213 -13.62883,-0.53407 z"
       id="path248" /></g></svg>
