<?xml version="1.0" encoding="UTF-8" standalone="no"?>
<!-- Created with Inkscape (http://www.inkscape.org/) -->

<svg
   width="122.60207mm"
   height="122.58425mm"
   viewBox="0 0 122.60207 122.58425"
   version="1.1"
   id="svg5"
   xml:space="preserve"
   inkscape:version="1.2.1 (9c6d41e410, 2022-07-14)"
   sodipodi:docname="dibujo.svg"
   xmlns:inkscape="http://www.inkscape.org/namespaces/inkscape"
   xmlns:sodipodi="http://sodipodi.sourceforge.net/DTD/sodipodi-0.dtd"
   xmlns="http://www.w3.org/2000/svg"
   xmlns:svg="http://www.w3.org/2000/svg"><sodipodi:namedview
     id="namedview7"
     pagecolor="#ffffff"
     bordercolor="#111111"
     borderopacity="1"
     inkscape:showpageshadow="0"
     inkscape:pageopacity="0"
     inkscape:pagecheckerboard="1"
     inkscape:deskcolor="#d1d1d1"
     inkscape:document-units="mm"
     showgrid="false"
     inkscape:zoom="0.65299523"
     inkscape:cx="264.16732"
     inkscape:cy="396.63383"
     inkscape:window-width="1920"
     inkscape:window-height="1009"
     inkscape:window-x="1912"
     inkscape:window-y="-8"
     inkscape:window-maximized="1"
     inkscape:current-layer="g194" /><defs
     id="defs2" /><g
     inkscape:label="Capa 1"
     inkscape:groupmode="layer"
     id="layer1"
     transform="translate(-31.130953,-43.286474)"><g
       id="g194"
       transform="translate(55.105047,-19.448841)"><path
         style="fill:#e8c8c8;stroke-width:0.264583"
         d="m 102.56244,171.20048 12.10468,-12.17011 12.10469,12.17011 12.10469,12.1701 -12.10469,-12.03708 -12.10469,-12.03709 -12.10468,12.03709 -12.104692,12.03708 z M 92.441398,161.21246 104.47848,149.10777 92.441398,137.00309 80.404312,124.8984 l 12.170105,12.10469 12.170113,12.10468 -12.170113,12.10469 -12.170105,12.10469 z m 44.185772,-0.0665 -12.03672,-12.03891 12.16974,-12.10432 12.16974,-12.10432 -12.03708,12.10469 -12.03709,12.10468 12.03636,12.03854 c 6.62,6.6212 11.97683,12.03855 11.90407,12.03855 -0.0728,0 -5.54882,-5.41751 -12.16902,-12.03891 z m -34.13197,-34.19703 -12.037452,-12.10469 12.104692,12.03745 12.10468,12.03746 12.10469,-12.03746 12.10469,-12.03745 -12.03746,12.10469 c -6.62059,6.65758 -12.09796,12.10469 -12.17192,12.10469 -0.074,0 -5.55132,-5.44711 -12.17192,-12.10469 z"
         id="path204" /><path
         style="fill:#f4aeae;stroke-width:0.264583"
         d="m 142.66334,184.91037 c 0.191,-0.0764 0.41921,-0.067 0.50712,0.0209 0.0879,0.0879 -0.0683,0.15045 -0.34726,0.13897 -0.30823,-0.0127 -0.37092,-0.0754 -0.15986,-0.15986 z M 86.307097,113.20829 c 0.190995,-0.0764 0.419198,-0.067 0.507119,0.0209 0.08792,0.0879 -0.06835,0.15045 -0.347265,0.13897 -0.308227,-0.0127 -0.37092,-0.0754 -0.159854,-0.15986 z m 56.356243,0 c 0.191,-0.0764 0.41921,-0.067 0.50712,0.0209 0.0879,0.0879 -0.0683,0.15045 -0.34726,0.13897 -0.30823,-0.0127 -0.37092,-0.0754 -0.15986,-0.15986 z"
         id="path202" /><path
         style="fill:#f76c6c;stroke-width:0.264583"
         d="m 95.286394,210.31588 c 0.181901,-0.0734 0.479557,-0.0734 0.661458,0 0.181901,0.0734 0.03307,0.13345 -0.330729,0.13345 -0.363802,0 -0.51263,-0.0601 -0.330729,-0.13345 z m 38.099996,0 c 0.1819,-0.0734 0.47956,-0.0734 0.66146,0 0.1819,0.0734 0.0331,0.13345 -0.33073,0.13345 -0.3638,0 -0.51263,-0.0601 -0.33073,-0.13345 z m -65.972529,-11.79717 -0.504028,-0.59531 0.595312,0.50402 c 0.559447,0.47367 0.715762,0.6866 0.504028,0.6866 -0.05021,0 -0.318097,-0.26789 -0.595312,-0.59531 z m 94.216799,0.0661 c 0.26339,-0.29104 0.53842,-0.52916 0.61118,-0.52916 0.0728,0 -0.0832,0.23812 -0.3466,0.52916 -0.26339,0.29105 -0.53842,0.52917 -0.61118,0.52917 -0.0728,0 0.0832,-0.23812 0.3466,-0.52917 z m -96.598049,-2.44739 -0.504028,-0.59531 0.595312,0.50402 c 0.327422,0.27722 0.595313,0.54511 0.595313,0.59532 0,0.21173 -0.212935,0.0554 -0.686597,-0.50403 z m 98.979299,0.0661 c 0.26339,-0.29104 0.53842,-0.52916 0.61118,-0.52916 0.0728,0 -0.0832,0.23812 -0.3466,0.52916 -0.26339,0.29105 -0.53842,0.52917 -0.61118,0.52917 -0.0728,0 0.0832,-0.23812 0.3466,-0.52917 z M 53.325568,168.15777 c 0,-0.3638 0.06005,-0.51263 0.133452,-0.33073 0.0734,0.1819 0.0734,0.47956 0,0.66146 -0.0734,0.1819 -0.133452,0.0331 -0.133452,-0.33073 z m 122.502072,0 c 0,-0.3638 0.0601,-0.51263 0.13346,-0.33073 0.0734,0.1819 0.0734,0.47956 0,0.66146 -0.0734,0.1819 -0.13346,0.0331 -0.13346,-0.33073 z m -122.502072,-38.1 c 0,-0.3638 0.06005,-0.51263 0.133452,-0.33073 0.0734,0.18191 0.0734,0.47956 0,0.66146 -0.0734,0.1819 -0.133452,0.0331 -0.133452,-0.33073 z m 122.502072,0 c 0,-0.3638 0.0601,-0.51263 0.13346,-0.33073 0.0734,0.18191 0.0734,0.47956 0,0.66146 -0.0734,0.1819 -0.13346,0.0331 -0.13346,-0.33073 z M 65.057749,102.01194 c 0.263389,-0.29104 0.538421,-0.52916 0.611181,-0.52916 0.07276,0 -0.08321,0.23812 -0.346597,0.52916 -0.263389,0.29104 -0.538421,0.52917 -0.611181,0.52917 -0.07276,0 0.08321,-0.23813 0.346597,-0.52917 z m 99.052701,0.0662 c -0.3291,-0.41965 -0.31975,-0.429 0.0999,-0.0999 0.44073,0.34565 0.58089,0.56292 0.36312,0.56292 -0.0549,0 -0.2633,-0.20836 -0.46302,-0.46302 z M 67.306708,99.795381 c 0,-0.05494 0.208359,-0.263302 0.46302,-0.463021 0.419644,-0.329108 0.429003,-0.319749 0.0999,0.0999 -0.345643,0.440729 -0.562915,0.58089 -0.562915,0.363126 z m 94.157912,-0.363126 c -0.32911,-0.419644 -0.31975,-0.429003 0.0999,-0.0999 0.25466,0.199719 0.46302,0.408078 0.46302,0.463021 0,0.217764 -0.21728,0.0776 -0.56292,-0.363126 z M 95.286394,87.813798 c 0.181901,-0.0734 0.479557,-0.0734 0.661458,0 0.181901,0.0734 0.03307,0.133452 -0.330729,0.133452 -0.363802,0 -0.51263,-0.06005 -0.330729,-0.133452 z m 38.099996,0 c 0.1819,-0.0734 0.47956,-0.0734 0.66146,0 0.1819,0.0734 0.0331,0.133452 -0.33073,0.133452 -0.3638,0 -0.51263,-0.06005 -0.33073,-0.133452 z"
         id="path200" /><path
         style="fill:#f65353;stroke-width:0.264583"
         d="m 96.482054,210.30775 c 0.257431,-0.0671 0.614619,-0.0627 0.79375,0.01 0.179131,0.0725 -0.03149,0.12736 -0.468056,0.12197 -0.436563,-0.005 -0.583126,-0.0647 -0.325694,-0.13178 z m 35.718746,0 c 0.25743,-0.0671 0.61462,-0.0627 0.79375,0.01 0.17913,0.0725 -0.0315,0.12736 -0.46805,0.12197 -0.43657,-0.005 -0.58313,-0.0647 -0.3257,-0.13178 z m -65.972451,-12.97967 -0.641433,-0.7276 0.727604,0.64143 c 0.680056,0.59952 0.848939,0.81378 0.641433,0.81378 -0.04739,0 -0.374816,-0.32742 -0.727604,-0.72761 z m 96.592941,0.0661 c 0.34177,-0.3638 0.68094,-0.66146 0.7537,-0.66146 0.0728,0 -0.14734,0.29766 -0.48912,0.66146 -0.34178,0.3638 -0.68094,0.66146 -0.7537,0.66146 -0.0728,0 0.14734,-0.29766 0.48912,-0.66146 z m -60.12656,-26.06146 11.97239,-12.03781 11.9724,12.03781 11.97239,12.0378 -11.97239,-11.90477 -11.9724,-11.90478 -11.97239,11.90478 -11.972398,11.90477 z m -10.385631,-10.2526 11.904781,-11.9724 -11.904781,-11.97239 -11.904779,-11.9724 12.037806,11.9724 12.037804,11.97239 -12.037804,11.9724 -12.037806,11.97239 z m 44.450361,-0.0665 -11.90441,-11.90662 12.03744,-11.97202 12.03743,-11.97203 -11.90477,11.9724 -11.90478,11.97239 11.90404,11.90625 c 6.54723,6.54844 11.84452,11.90625 11.77176,11.90625 -0.0728,0 -5.48928,-5.35798 -12.03671,-11.90662 z m -83.433892,6.08579 c 0,-0.3638 0.06005,-0.51263 0.133452,-0.33073 0.0734,0.1819 0.0734,0.47956 0,0.66146 -0.0734,0.1819 -0.133452,0.0331 -0.133452,-0.33073 z m 122.502072,0 c 0,-0.3638 0.0601,-0.51263 0.13346,-0.33073 0.0734,0.1819 0.0734,0.47956 0,0.66146 -0.0734,0.1819 -0.13346,0.0331 -0.13346,-0.33073 z m -73.20016,-40.28281 -11.905148,-11.9724 11.972398,11.90515 11.97239,11.90515 11.9724,-11.90515 11.97239,-11.90515 -11.90514,11.9724 c -6.54783,6.58482 -11.96568,11.97239 -12.03965,11.97239 -0.074,0 -5.49181,-5.38757 -12.03964,-11.97239 z m -49.301912,4.29948 c 0,-0.3638 0.06005,-0.51263 0.133452,-0.33073 0.0734,0.1819 0.0734,0.47956 0,0.66146 -0.0734,0.1819 -0.133452,0.0331 -0.133452,-0.33073 z m 122.502072,0 c 0,-0.3638 0.0601,-0.51263 0.13346,-0.33073 0.0734,0.1819 0.0734,0.47956 0,0.66146 -0.0734,0.1819 -0.13346,0.0331 -0.13346,-0.33073 z m -13.0206,-30.36094 -0.9118,-0.992186 0.99219,0.911796 c 0.54571,0.50149 0.99219,0.94798 0.99219,0.99219 0,0.20204 -0.2239,0.0117 -1.07258,-0.9118 z m -97.087832,0.64481 c 0,-0.0455 0.386953,-0.43248 0.859896,-0.85989 l 0.859895,-0.777106 -0.777105,0.859896 c -0.724371,0.80154 -0.942686,0.98151 -0.942686,0.7771 z M 96.482054,87.805672 c 0.257431,-0.06708 0.614619,-0.06267 0.79375,0.0098 0.179131,0.07247 -0.03149,0.127362 -0.468056,0.12197 -0.436563,-0.0054 -0.583126,-0.06469 -0.325694,-0.131774 z m 35.718746,0 c 0.25743,-0.06708 0.61462,-0.06267 0.79375,0.0098 0.17913,0.07247 -0.0315,0.127362 -0.46805,0.12197 -0.43657,-0.0054 -0.58313,-0.06469 -0.3257,-0.131774 z"
         id="path198" /><path
         style="fill:#f74545;stroke-width:0.264583"
         d="m 17.168613,185.0899 c -10.2997614,-0.67954 -20.0335304,-5.04844 -27.61501,-12.3947 -6.835292,-6.62322 -11.195525,-14.86758 -12.945516,-24.47749 -0.568161,-3.11999 -0.582181,-3.70352 -0.582181,-24.23136 0,-20.52783 0.01402,-21.11136 0.582181,-24.231359 1.740467,-9.5576 6.062891,-17.77043 12.818988,-24.35674 6.5893526,-6.423749 14.3489326,-10.392738 23.618509,-12.080755 3.119999,-0.568161 3.703527,-0.582181 24.231359,-0.582181 20.52784,0 21.11136,0.01402 24.23136,0.582181 9.62887,1.753445 17.8412,6.096735 24.47749,12.945515 6.40999,6.61523 10.53257,14.82008 12.03782,23.957909 0.38268,2.32312 0.4673,5.42581 0.56656,20.77188 0.14734,22.77837 -0.0636,26.3011 -1.95384,32.62688 -4.6397,15.52719 -17.58601,27.38865 -33.50277,30.69536 -1.48807,0.30915 -4.37245,0.67037 -6.40974,0.8027 -4.37254,0.28404 -35.156587,0.26237 -39.55521,-0.0278 z m -5.55625,-25.80037 c 1.222512,-0.56706 3.390807,-2.60696 13.5599,-12.75697 l 12.10468,-12.08198 12.10469,12.08373 c 13.78899,13.76513 13.58603,13.6063 17.09512,13.37865 1.0388,-0.0674 2.27408,-0.32255 2.74506,-0.56702 2.58636,-1.34249 4.03329,-3.68152 4.03329,-6.52001 0,-3.28636 0.0355,-3.24211 -13.43195,-16.73489 l -12.08198,-12.10469 12.08198,-12.10468 c 13.47136,-13.496679 13.43489,-13.451229 13.42873,-16.734899 -0.008,-4.02871 -2.67475,-6.81836 -6.77513,-7.08619 -3.50847,-0.22916 -3.30525,-0.38819 -17.09512,13.377809 l -12.10469,12.08374 -12.10468,-12.08374 C 11.38239,87.672391 11.585611,87.831421 8.0771326,88.060581 c -4.100372,0.26783 -6.767568,3.05748 -6.775124,7.08619 -0.0062,3.28367 -0.04263,3.23822 13.4287304,16.734899 l 12.081984,12.10468 -12.081984,12.10469 C 1.2593786,149.58772 1.2958486,149.54227 1.3020086,152.82593 c 0.01005,5.35431 5.407284,8.73785 10.3103544,6.4636 z"
         id="path196" /></g></g></svg>
