<?xml version="1.0" encoding="UTF-8" standalone="no"?>
<!-- Created with Inkscape (http://www.inkscape.org/) -->

<svg
   width="135mm"
   height="134.9998mm"
   viewBox="0 0 135 134.9998"
   version="1.1"
   id="svg5"
   xml:space="preserve"
   inkscape:version="1.2.1 (9c6d41e410, 2022-07-14)"
   sodipodi:docname="view_one.svg"
   xmlns:inkscape="http://www.inkscape.org/namespaces/inkscape"
   xmlns:sodipodi="http://sodipodi.sourceforge.net/DTD/sodipodi-0.dtd"
   xmlns="http://www.w3.org/2000/svg"
   xmlns:svg="http://www.w3.org/2000/svg"><sodipodi:namedview
     id="namedview7"
     pagecolor="#ffffff"
     bordercolor="#111111"
     borderopacity="1"
     inkscape:showpageshadow="0"
     inkscape:pageopacity="0"
     inkscape:pagecheckerboard="1"
     inkscape:deskcolor="#d1d1d1"
     inkscape:document-units="mm"
     showgrid="false"
     inkscape:zoom="0.92347471"
     inkscape:cx="53.601901"
     inkscape:cy="201.95464"
     inkscape:window-width="2400"
     inkscape:window-height="1261"
     inkscape:window-x="2391"
     inkscape:window-y="-9"
     inkscape:window-maximized="1"
     inkscape:current-layer="layer1" /><defs
     id="defs2" /><g
     inkscape:label="Capa 1"
     inkscape:groupmode="layer"
     id="layer1"
     transform="translate(-29.240405,-95.506863)"><path
       id="path248"
       style="fill:#7f7f7f;fill-opacity:1;stroke-width:0.264164"
       d="m 96.72163,95.50687 c -28.516741,9.82e-4 -57.030126,0.106585 -58.02007,0.315886 -4.336153,0.916791 -7.876907,4.327344 -9.069211,8.735464 -0.315549,1.16646 -0.375964,10.17919 -0.390674,58.23773 -0.01247,40.69616 0.066,57.25467 0.276262,58.25448 0.931246,4.42816 4.716504,8.19504 9.183623,9.13953 1.997209,0.42227 114.06304,0.42227 116.06023,0 4.46711,-0.94449 8.25239,-4.71137 9.18362,-9.13953 0.20996,-0.99825 0.29413,-17.58765 0.29413,-58.13337 0,-61.66863 0.085,-58.03608 -1.43099,-61.01486 -1.49209,-2.931782 -4.75247,-5.396527 -8.04676,-6.08335 -1.00356,-0.209348 -29.52341,-0.312964 -58.04016,-0.31198 z m 46.40534,7.98422 c 10.54001,0.0737 10.66423,0.081 11.48301,0.66247 1.83036,1.29999 1.68716,-3.69226 1.68716,58.85276 0,62.54505 0.1432,57.55278 -1.68716,58.85277 -0.81878,0.58146 -0.94276,0.64433 -11.48301,0.66247 l -43.483101,0.0742 c -7.974288,-0.0201 0.0066,0.01 -7.941838,-0.0173 h -9.276827 c -41.674859,0 -42.114043,-0.005 -43.148238,-0.53077 -0.672496,-0.34161 -1.234676,-0.90146 -1.577764,-1.57106 -0.529055,-1.03317 -0.532898,-1.42894 -0.52685,-57.52614 0.0067,-62.54054 -0.137911,-57.50527 1.685477,-58.8003 l 0.823205,-0.5849 42.423818,-0.0682 c 61.044048,0.0136 32.206418,0.009 61.022118,-0.006 z"
       sodipodi:nodetypes="ssccsssssscsccsccccsscccccc" /></g></svg>
