<?xml version="1.0" encoding="UTF-8" standalone="no"?>
<!-- Created with Inkscape (http://www.inkscape.org/) -->

<svg
   width="249.99998mm"
   height="250mm"
   viewBox="0 0 250 250"
   version="1.1"
   id="svg5"
   xml:space="preserve"
   inkscape:version="1.2.1 (9c6d41e410, 2022-07-14)"
   sodipodi:docname="redo.svg"
   inkscape:export-filename="select.png"
   inkscape:export-xdpi="96"
   inkscape:export-ydpi="96"
   xmlns:inkscape="http://www.inkscape.org/namespaces/inkscape"
   xmlns:sodipodi="http://sodipodi.sourceforge.net/DTD/sodipodi-0.dtd"
   xmlns="http://www.w3.org/2000/svg"
   xmlns:svg="http://www.w3.org/2000/svg"><sodipodi:namedview
     id="namedview7"
     pagecolor="#ffffff"
     bordercolor="#999999"
     borderopacity="1"
     inkscape:showpageshadow="0"
     inkscape:pageopacity="0"
     inkscape:pagecheckerboard="0"
     inkscape:deskcolor="#d1d1d1"
     inkscape:document-units="mm"
     showgrid="false"
     inkscape:zoom="0.0625"
     inkscape:cx="-2040"
     inkscape:cy="6016"
     inkscape:window-width="1920"
     inkscape:window-height="1009"
     inkscape:window-x="1912"
     inkscape:window-y="-8"
     inkscape:window-maximized="1"
     inkscape:current-layer="layer1"
     showguides="false"><inkscape:grid
       type="xygrid"
       id="grid6400"
       originx="160.57501"
       originy="896.12269" /></sodipodi:namedview><defs
     id="defs2" /><g
     inkscape:label="Capa 1"
     inkscape:groupmode="layer"
     id="layer1"
     transform="translate(-169.54956,749.59065)"><path
       style="fill:#d9d9d9;fill-opacity:1;stroke-width:0.487854"
       d="m 174.7347,-534.53933 c -1.34895,-0.71169 -2.15187,-1.62099 -2.8752,-3.25621 -0.91775,-2.07471 -0.9759,-2.85435 -0.67982,-9.114 1.37142,-28.99416 11.02829,-55.30355 29.01445,-79.04761 5.17501,-6.83168 18.53093,-20.04212 25.68544,-25.40565 24.40621,-18.29659 50.64796,-27.44233 81.3497,-28.3519 l 10.12299,-0.29989 v -18.97097 c 0,-18.0505 0.0476,-19.06442 0.98226,-20.89641 1.70299,-3.33813 6.07859,-4.80472 9.3255,-3.12569 0.81288,0.42035 15.12659,12.01304 31.80827,25.76154 16.68167,13.74849 36.80657,30.31607 44.72202,36.81687 14.69175,12.06608 16.56352,13.98703 16.57901,17.01476 0.0194,3.79628 -0.89368,4.67068 -13.65189,13.07344 -6.57384,4.32962 -26.7889,17.65496 -44.92237,29.61191 -18.13347,11.95692 -33.6546,22.09392 -34.49145,22.52667 -3.25744,1.68448 -7.69948,0.16945 -9.426,-3.21474 -0.86198,-1.6896 -0.92535,-3.12337 -0.92535,-20.93387 v -19.12002 l -10.36691,0.30495 c -5.70181,0.16779 -12.89154,0.64833 -15.97722,1.06798 -44.17375,6.00781 -79.34728,32.44842 -103.83133,78.05195 -3.02055,5.62601 -3.63919,6.46604 -5.47896,7.43976 -2.53859,1.3436 -4.50769,1.36259 -6.96314,0.0671 z"
       id="path1706" /><g
       id="g380"
       transform="translate(323.28922,29.934187)" /></g></svg>
