<?xml version="1.0" encoding="UTF-8" standalone="no"?>
<!-- Created with Inkscape (http://www.inkscape.org/) -->

<svg
   width="99.716957mm"
   height="99.734932mm"
   viewBox="0 0 99.716963 99.734932"
   version="1.1"
   id="svg5"
   xml:space="preserve"
   inkscape:version="1.2.1 (9c6d41e410, 2022-07-14)"
   sodipodi:docname="home.svg"
   inkscape:export-filename="select.png"
   inkscape:export-xdpi="96"
   inkscape:export-ydpi="96"
   xmlns:inkscape="http://www.inkscape.org/namespaces/inkscape"
   xmlns:sodipodi="http://sodipodi.sourceforge.net/DTD/sodipodi-0.dtd"
   xmlns="http://www.w3.org/2000/svg"
   xmlns:svg="http://www.w3.org/2000/svg"><sodipodi:namedview
     id="namedview7"
     pagecolor="#ffffff"
     bordercolor="#999999"
     borderopacity="1"
     inkscape:showpageshadow="0"
     inkscape:pageopacity="0"
     inkscape:pagecheckerboard="0"
     inkscape:deskcolor="#d1d1d1"
     inkscape:document-units="mm"
     showgrid="false"
     inkscape:zoom="0.1767767"
     inkscape:cx="777.81746"
     inkscape:cy="639.22453"
     inkscape:window-width="1920"
     inkscape:window-height="1009"
     inkscape:window-x="1912"
     inkscape:window-y="-8"
     inkscape:window-maximized="1"
     inkscape:current-layer="layer1"
     showguides="false"><inkscape:grid
       type="xygrid"
       id="grid6400"
       originx="374.34989"
       originy="-47.072547" /></sodipodi:namedview><defs
     id="defs2" /><g
     inkscape:label="Capa 1"
     inkscape:groupmode="layer"
     id="layer1"
     transform="translate(44.225301,-193.60459)"><path
       style="fill:#d9d9d9;fill-opacity:1;stroke-width:0.195312"
       d="m -25.47998,292.9708 c -2.001,-0.52817 -3.2334,-1.24848 -4.84189,-2.82998 -1.51952,-1.49402 -2.58959,-3.40291 -2.9889,-5.33188 -0.14504,-0.70068 -0.21425,-6.07906 -0.21425,-16.65039 v -15.61538 h -1.32615 c -4.67739,0 -8.48982,-3.19725 -9.2575,-7.76368 -0.30405,-1.80858 -0.0105,-3.72739 0.8441,-5.51757 0.55982,-1.1727 2.24683,-2.91031 22.11616,-22.77965 25.0710095,-25.07101 22.4270695,-22.82582 26.8798595,-22.82582 4.4559205,0 1.81055,-2.24617 26.8825505,22.82582 25.07153,25.07154 22.82582,22.42685 22.82582,26.88121 0,2.61729 -0.007,2.65918 -0.66986,4.00801 -1.5678,3.19024 -4.80402,5.17168 -8.44676,5.17168 h -1.31971 l -0.0553,16.1621 -0.0553,16.16211 -0.52203,1.34361 c -1.38445,3.56329 -4.23629,6.05827 -7.83576,6.85527 -1.19867,0.26541 -2.73334,0.30339 -10.32927,0.25564 -8.66065,-0.0544 -8.93718,-0.0679 -9.46058,-0.45877 -0.29654,-0.22148 -0.72037,-0.64532 -0.94186,-0.94185 -0.39491,-0.52874 -0.40458,-0.79114 -0.50034,-13.57775 l -0.0977,-13.03858 -0.59295,-0.96097 c -0.66662,-1.08036 -2.15768,-2.1014 -3.35859,-2.29988 -0.95739,-0.15823 -10.0848505,-0.15823 -11.04223047,0 -1.20092,0.19848 -2.69197003,1.21952 -3.35859003,2.29988 l -0.59295,0.96097 -0.0977,13.03858 c -0.0958,12.78661 -0.10544,13.04901 -0.50035,13.57775 -0.22148,0.29653 -0.64532,0.72037 -0.94186,0.94185 -0.5246,0.39181 -0.7856,0.4038 -9.6558995,0.44359 -8.45885,0.038 -9.21975,0.0137 -10.54435,-0.33592 z m 15.7830795,-16.39458 c 0,-7.17008 0.0737,-11.2838 0.21426,-11.96289 0.75853,-3.6643 3.72002,-6.83309 7.50059,-8.02562 1.29318003,-0.40792 1.71080003,-0.43126 7.71484,-0.43126 5.6069505,0 6.4844005,0.0419 7.5195305,0.35912 3.82402,1.17187 6.65973,4.09046 7.61369,7.83621 0.24779,0.97292 0.29647,2.96947 0.29647,12.1582 v 10.99412 l 6.98242,-0.009 c 7.50935,-0.009 7.80823,-0.0436 9.1269,-1.04939 0.37337,-0.28478 0.9225,-0.93228 1.22031,-1.43889 l 0.54146,-0.92112 0.0977,-17.71041 c 0.0965,-17.5061 0.1023,-17.71664 0.50035,-18.24965 0.94057,-1.2595 1.19184,-1.33599 4.73785,-1.44228 3.77276,-0.11309 4.37419,-0.32855 5.09951,-1.82684 0.50746,-1.04829 0.5129,-1.92853 0.0182,-2.94548 C 48.9338,240.7735 8.0562695,199.93588 7.0574895,199.52277 c -0.97725,-0.40421 -1.82287,-0.37803 -2.77664,0.0859 -1.13754,0.55339 -41.9751595,41.43091 -42.3882695,42.42969 -0.40823,0.98698 -0.37731,1.82357 0.10413,2.81811 0.72532,1.49829 1.32675,1.71375 5.09951,1.82684 3.54602,0.10629 3.79729,0.18279 4.73785,1.44229 0.39805,0.53303 0.40382,0.74358 0.50035,18.24965 l 0.0977,17.7104 0.54146,0.92112 c 0.2978,0.50661 0.84694,1.15412 1.22031,1.43889 1.31867,1.00581 1.61755,1.04017 9.1269,1.04939 l 6.9824095,0.009 z"
       id="path1040" /><g
       id="g380"
       transform="translate(323.28922,29.934187)" /></g></svg>
