<?xml version="1.0" encoding="UTF-8" standalone="no"?>
<!-- Created with Inkscape (http://www.inkscape.org/) -->

<svg
   width="65.19368mm"
   height="65.362663mm"
   viewBox="0 0 65.19368 65.362663"
   version="1.1"
   id="svg5"
   xml:space="preserve"
   inkscape:version="1.2.1 (9c6d41e410, 2022-07-14)"
   sodipodi:docname="Logo_V2.svg"
   xmlns:inkscape="http://www.inkscape.org/namespaces/inkscape"
   xmlns:sodipodi="http://sodipodi.sourceforge.net/DTD/sodipodi-0.dtd"
   xmlns="http://www.w3.org/2000/svg"
   xmlns:svg="http://www.w3.org/2000/svg"><sodipodi:namedview
     id="namedview7"
     pagecolor="#ffffff"
     bordercolor="#111111"
     borderopacity="1"
     inkscape:showpageshadow="0"
     inkscape:pageopacity="0"
     inkscape:pagecheckerboard="1"
     inkscape:deskcolor="#d1d1d1"
     inkscape:document-units="mm"
     showgrid="false"
     inkscape:zoom="1.3059905"
     inkscape:cx="128.25515"
     inkscape:cy="109.49544"
     inkscape:window-width="1920"
     inkscape:window-height="1009"
     inkscape:window-x="1912"
     inkscape:window-y="-8"
     inkscape:window-maximized="1"
     inkscape:current-layer="g288" /><defs
     id="defs2" /><g
     inkscape:label="Capa 1"
     inkscape:groupmode="layer"
     id="layer1"
     transform="translate(-113.67483,-66.470116)"><g
       id="g288"><path
         style="fill:#d0d0d0;stroke-width:0.169333"
         d="m 142.43989,130.35111 c -0.21062,-0.26857 -0.20463,-0.27456 0.0639,-0.0639 0.16298,0.12782 0.29633,0.26117 0.29633,0.29633 0,0.13937 -0.13905,0.0497 -0.36027,-0.2324 z m 6.96427,0.2324 c 0,-0.0352 0.13335,-0.16851 0.29633,-0.29633 0.26858,-0.21063 0.27457,-0.20464 0.0639,0.0639 -0.22121,0.28207 -0.36027,0.37177 -0.36027,0.2324 z m -7.112,-7.112 c 0,-0.0352 0.13335,-0.16851 0.29633,-0.29633 0.26858,-0.21063 0.27457,-0.20464 0.0639,0.0639 -0.22121,0.28207 -0.36027,0.37177 -0.36027,0.2324 z m 7.25973,-0.2324 c -0.21062,-0.26857 -0.20464,-0.27456 0.0639,-0.0639 0.16298,0.12782 0.29633,0.26117 0.29633,0.29633 0,0.13937 -0.13905,0.0497 -0.36027,-0.2324 z m -26.41599,-1.18533 c -0.21063,-0.26857 -0.20464,-0.27456 0.0639,-0.0639 0.28207,0.22121 0.37177,0.36026 0.2324,0.36026 -0.0352,0 -0.16851,-0.13335 -0.29633,-0.29633 z m 45.91093,0.2324 c 0,-0.0352 0.13335,-0.16851 0.29633,-0.29633 0.26857,-0.21063 0.27456,-0.20464 0.0639,0.0639 -0.22121,0.28207 -0.36026,0.37177 -0.36026,0.2324 z m -32.5336,-5.3124 c -0.21063,-0.26857 -0.20464,-0.27456 0.0639,-0.0639 0.16299,0.12782 0.29634,0.26117 0.29634,0.29633 0,0.13937 -0.13906,0.0497 -0.36027,-0.2324 z M 115.0079,102.58045 c -0.21063,-0.26858 -0.20464,-0.27456 0.0639,-0.0639 0.28207,0.22122 0.37177,0.36027 0.2324,0.36027 -0.0352,0 -0.16851,-0.13335 -0.29633,-0.29633 z m 19.304,-0.33867 c -0.21063,-0.26857 -0.20464,-0.27456 0.0639,-0.0639 0.16298,0.12782 0.29633,0.26117 0.29633,0.29633 0,0.13937 -0.13905,0.0497 -0.36026,-0.2324 z m 6.96426,0.2324 c 0,-0.0352 0.13335,-0.16851 0.29633,-0.29633 0.26858,-0.21063 0.27457,-0.20464 0.0639,0.0639 -0.22121,0.28207 -0.36027,0.37177 -0.36027,0.2324 z m 20.32,-0.84667 c 0,-0.0352 0.13335,-0.16851 0.29633,-0.29633 0.26858,-0.21063 0.27457,-0.20464 0.0639,0.0639 -0.22122,0.28207 -0.36027,0.37177 -0.36027,0.2324 z m -7.69378,-0.83237 c 0.0636,-0.167 0.15827,-0.26098 0.21041,-0.20884 0.0521,0.0521 1.1e-4,0.18877 -0.11562,0.30364 -0.16723,0.16599 -0.18668,0.14654 -0.0948,-0.0948 z M 126.3325,99.709277 c 0.20955,-0.04036 0.55245,-0.04036 0.762,0 0.20955,0.04036 0.0381,0.07338 -0.381,0.07338 -0.4191,0 -0.59055,-0.03302 -0.381,-0.07338 z m 5.842,-0.166556 c 0.16298,-0.04259 0.42968,-0.04259 0.59266,0 0.16299,0.04259 0.0296,0.07744 -0.29633,0.07744 -0.32597,0 -0.45932,-0.03485 -0.29633,-0.07744 z m 12.62591,-0.16828 c 0.12224,-0.04892 0.26829,-0.0429 0.32456,0.01336 0.0563,0.05627 -0.0437,0.09629 -0.22225,0.08894 -0.19727,-0.0081 -0.23739,-0.04825 -0.10231,-0.102305 z m 2.20133,-0.169333 c 0.12224,-0.04892 0.26829,-0.0429 0.32456,0.01336 0.0563,0.05627 -0.0438,0.09629 -0.22225,0.08894 -0.19726,-0.0081 -0.23739,-0.04825 -0.10231,-0.102304 z m 2.20134,-0.169334 c 0.12223,-0.04892 0.26828,-0.0429 0.32455,0.01336 0.0563,0.05627 -0.0437,0.09629 -0.22225,0.08894 -0.19726,-0.0081 -0.23738,-0.04825 -0.1023,-0.102305 z m 2.20133,-0.169333 c 0.12224,-0.04891 0.26829,-0.0429 0.32456,0.01336 0.0563,0.05627 -0.0438,0.09629 -0.22225,0.08894 -0.19727,-0.0081 -0.23739,-0.04825 -0.10231,-0.102305 z m -27.60133,-0.677333 c 0.12224,-0.04892 0.26829,-0.0429 0.32455,0.01336 0.0563,0.05627 -0.0437,0.09629 -0.22225,0.08894 -0.19726,-0.0081 -0.23738,-0.04825 -0.1023,-0.102304 z m 5.15641,-0.175171 c 0.2574,-0.03892 0.6384,-0.03788 0.84667,0.0023 0.20827,0.04019 -0.002,0.07204 -0.468,0.07077 -0.46566,-0.0014 -0.63607,-0.03416 -0.37867,-0.07308 z m 14.48625,-0.163496 c 0.12224,-0.04892 0.26829,-0.0429 0.32456,0.01336 0.0563,0.05627 -0.0437,0.09629 -0.22225,0.08894 -0.19726,-0.0081 -0.23739,-0.04825 -0.10231,-0.102305 z m 2.20134,-0.169333 c 0.12223,-0.04892 0.26828,-0.0429 0.32455,0.01336 0.0563,0.05627 -0.0437,0.09629 -0.22225,0.08894 -0.19726,-0.0081 -0.23738,-0.04825 -0.1023,-0.102304 z m 2.20133,-0.169334 c 0.12224,-0.04892 0.26829,-0.0429 0.32456,0.01336 0.0563,0.05627 -0.0437,0.09629 -0.22225,0.08894 -0.19727,-0.0081 -0.23739,-0.04825 -0.10231,-0.102304 z m 2.20133,-0.169333 c 0.12224,-0.04891 0.26829,-0.0429 0.32456,0.01336 0.0563,0.05627 -0.0438,0.09629 -0.22225,0.08894 -0.19726,-0.0081 -0.23739,-0.04825 -0.10231,-0.102305 z m 2.20134,-0.169333 c 0.12223,-0.04892 0.26828,-0.0429 0.32455,0.01336 0.0563,0.05627 -0.0437,0.09629 -0.22225,0.08894 -0.19726,-0.0081 -0.23738,-0.04825 -0.1023,-0.102304 z m -37.39092,-1.47226 c 0,-0.03516 0.13335,-0.168513 0.29634,-0.296334 0.26857,-0.210628 0.27456,-0.204639 0.0639,0.06393 -0.22121,0.282067 -0.36027,0.371768 -0.36027,0.2324 z m 7.25974,-0.2324 c -0.21063,-0.268573 -0.20464,-0.274562 0.0639,-0.06393 0.16298,0.127821 0.29633,0.261171 0.29633,0.296334 0,0.139368 -0.13905,0.04967 -0.36026,-0.2324 z m 39.11599,-13.208 c -0.21063,-0.268572 -0.20464,-0.274561 0.0639,-0.06393 0.28206,0.221212 0.37176,0.360266 0.2324,0.360266 -0.0352,0 -0.16852,-0.13335 -0.29634,-0.296334 z m -38.41706,-6.032932 c 0,-0.03516 0.13335,-0.168513 0.29633,-0.296333 0.26857,-0.210629 0.27456,-0.20464 0.0639,0.06393 -0.22122,0.282067 -0.36027,0.371768 -0.36027,0.232401 z m 45.52906,-1.079067 c -0.21063,-0.268572 -0.20464,-0.274562 0.0639,-0.06393 0.28206,0.221212 0.37176,0.360266 0.2324,0.360266 -0.0352,0 -0.16852,-0.13335 -0.29634,-0.296333 z m -25.73866,-0.169333 c -0.21063,-0.268573 -0.20464,-0.274562 0.0639,-0.06393 0.28207,0.221212 0.37177,0.360266 0.2324,0.360266 -0.0352,0 -0.16851,-0.13335 -0.29633,-0.296333 z m 6.96426,0.2324 c 0,-0.03516 0.13335,-0.168513 0.29634,-0.296333 0.26857,-0.210629 0.27456,-0.20464 0.0639,0.06393 -0.22121,0.282066 -0.36027,0.371767 -0.36027,0.2324 z m -7.112,-7.111999 c 0,-0.03516 0.13335,-0.168513 0.29634,-0.296334 0.26857,-0.210629 0.27456,-0.204639 0.0639,0.06393 -0.22121,0.282067 -0.36027,0.371768 -0.36027,0.232401 z m 7.25974,-0.232401 c -0.21063,-0.268572 -0.20464,-0.274562 0.0639,-0.06393 0.28207,0.221212 0.37177,0.360266 0.2324,0.360266 -0.0352,0 -0.16851,-0.13335 -0.29633,-0.296333 z"
         id="path302" /><path
         style="fill:#9e9e9e;stroke-width:0.169333"
         d="m 125.23183,99.712054 c 0.16298,-0.04259 0.42968,-0.04259 0.59267,0 0.16298,0.04259 0.0296,0.07744 -0.29634,0.07744 -0.32596,0 -0.45931,-0.03485 -0.29633,-0.07744 z m 5.84397,-0.172369 c 0.21064,-0.0405 0.51544,-0.03897 0.67734,0.0034 0.16189,0.04238 -0.0104,0.07552 -0.38298,0.07364 -0.37253,-0.0019 -0.50499,-0.03656 -0.29436,-0.07706 z m -6.69064,-1.351631 c 0.16299,-0.04259 0.42969,-0.04259 0.59267,0 0.16298,0.04259 0.0296,0.07744 -0.29633,0.07744 -0.32597,0 -0.45932,-0.03485 -0.29634,-0.07744 z m 5.92667,-0.169333 c 0.16298,-0.04259 0.42968,-0.04259 0.59267,0 0.16298,0.04259 0.0296,0.07744 -0.29634,0.07744 -0.32596,0 -0.45931,-0.03485 -0.29633,-0.07744 z"
         id="path300" /><path
         style="fill:#94976c;stroke-width:0.169333"
         d="m 145.50949,130.13473 c -1.6898,-0.29674 -2.76086,-1.58907 -2.74537,-3.31255 0.0176,-1.95476 1.38565,-3.31092 3.34002,-3.31092 1.96508,0 3.32421,1.36075 3.32421,3.32817 0,0.88895 -0.30099,1.72031 -0.84854,2.34369 -0.62638,0.71312 -2.00145,1.13931 -3.07032,0.95161 z M 126.2055,121.8374 c -1.68981,-0.29674 -2.76086,-1.58907 -2.74538,-3.31255 0.0176,-1.95476 1.38565,-3.31093 3.34002,-3.31093 1.96508,0 3.32421,1.36076 3.32421,3.32818 0,0.88895 -0.30099,1.72031 -0.84854,2.34368 -0.62638,0.71313 -2.00145,1.13932 -3.07031,0.95162 z m 38.94666,0 c -1.68981,-0.29674 -2.76086,-1.58907 -2.74537,-3.31255 0.0176,-1.95476 1.38565,-3.31093 3.34002,-3.31093 1.96507,0 3.32421,1.36076 3.32421,3.32818 0,0.88895 -0.301,1.72031 -0.84855,2.34368 -0.62638,0.71313 -2.00144,1.13932 -3.07031,0.95162 z m -25.56933,-5.08 c -1.68981,-0.29674 -2.76086,-1.58907 -2.74537,-3.31255 0.0176,-1.95476 1.38565,-3.31093 3.34002,-3.31093 1.96507,0 3.32421,1.36076 3.32421,3.32818 0,0.88895 -0.301,1.72031 -0.84855,2.34368 -0.62638,0.71313 -2.00145,1.13932 -3.07031,0.95162 z m 33.56789,-14.21617 c -2.92853,-0.69229 -3.57157,-4.746412 -1.00458,-6.333461 2.24411,-1.387426 5.06776,0.252733 5.06776,2.943679 0,2.169642 -2.03673,3.868822 -4.06318,3.389782 z m -55.07322,-0.17716 c -1.68981,-0.29674 -2.76086,-1.58907 -2.74538,-3.312555 0.0176,-1.954756 1.38565,-3.310925 3.34003,-3.310925 1.96507,0 3.3242,1.360756 3.3242,3.328174 0,0.888954 -0.30099,1.720306 -0.84854,2.343686 -0.62638,0.71313 -2.00145,1.13932 -3.07031,0.95162 z m 19.304,-0.33867 c -1.68981,-0.29674 -2.76086,-1.58907 -2.74538,-3.312551 0.0176,-1.954757 1.38565,-3.310926 3.34002,-3.310926 1.96508,0 3.32421,1.360756 3.32421,3.328174 0,0.888954 -0.30099,1.720313 -0.84854,2.343683 -0.62638,0.71313 -2.00145,1.13932 -3.07031,0.95162 z m 20.31999,-0.84667 c -1.6898,-0.29674 -2.76086,-1.589065 -2.74537,-3.312548 0.0176,-1.954757 1.38565,-3.310925 3.34002,-3.310925 1.96508,0 3.32421,1.360756 3.32421,3.328173 0,0.888955 -0.301,1.72031 -0.84854,2.34369 -0.62638,0.71312 -2.00145,1.13932 -3.07032,0.95161 z m -33.05174,-1.465622 c 0.12223,-0.04892 0.26828,-0.0429 0.32455,0.01336 0.0563,0.05627 -0.0437,0.09629 -0.22225,0.08894 -0.19726,-0.0081 -0.23739,-0.04825 -0.1023,-0.102304 z m 0.67733,-1.524 c 0.12224,-0.04892 0.26829,-0.0429 0.32455,0.01336 0.0563,0.05627 -0.0437,0.09629 -0.22225,0.08894 -0.19726,-0.0081 -0.23738,-0.04825 -0.1023,-0.102304 z m 23.27031,-8.855879 c -2.92853,-0.692284 -3.57158,-4.74641 -1.00458,-6.33346 2.24411,-1.387425 5.06776,0.252734 5.06776,2.943679 0,2.169641 -2.03673,3.86882 -4.06318,3.389781 z m -22.56123,-6.442493 c -1.6898,-0.296743 -2.76086,-1.589069 -2.74537,-3.312552 0.0176,-1.954757 1.38565,-3.310926 3.34002,-3.310926 1.96507,0 3.32421,1.360756 3.32421,3.328173 0,0.888955 -0.301,1.72031 -0.84854,2.343687 -0.62639,0.713128 -2.00145,1.139318 -3.07032,0.951618 z m 38.26933,-0.846667 c -1.6898,-0.296743 -2.76086,-1.589069 -2.74537,-3.312552 0.0176,-1.954757 1.38565,-3.310925 3.34002,-3.310925 1.96508,0 3.32421,1.360755 3.32421,3.328172 0,0.888956 -0.301,1.72031 -0.84854,2.343687 -0.62638,0.713128 -2.00145,1.139318 -3.07032,0.951618 z m -18.62666,-7.281333 c -1.68981,-0.296742 -2.76086,-1.589068 -2.74537,-3.312551 0.0176,-1.954758 1.38565,-3.310926 3.34002,-3.310926 1.96507,0 3.32421,1.360755 3.32421,3.328172 0,0.888956 -0.301,1.720311 -0.84855,2.343687 -0.62638,0.713128 -2.00145,1.139318 -3.07031,0.951618 z"
         id="path298" /><path
         style="fill:#7e815f;stroke-width:0.169333"
         d="m 145.64708,130.19311 c 0.12223,-0.0489 0.26828,-0.0429 0.32455,0.0134 0.0563,0.0563 -0.0437,0.0963 -0.22225,0.0889 -0.19726,-0.008 -0.23738,-0.0482 -0.1023,-0.1023 z m 0.67733,0 c 0.12224,-0.0489 0.26829,-0.0429 0.32456,0.0134 0.0563,0.0563 -0.0437,0.0963 -0.22225,0.0889 -0.19727,-0.008 -0.23739,-0.0482 -0.10231,-0.1023 z m 3.09312,-3.03111 c 0.008,-0.19726 0.0482,-0.23739 0.1023,-0.1023 0.0489,0.12223 0.0429,0.26828 -0.0134,0.32455 -0.0563,0.0563 -0.0963,-0.0437 -0.0889,-0.22225 z m -6.77333,-0.67733 c 0.008,-0.19727 0.0482,-0.23739 0.1023,-0.10231 0.0489,0.12224 0.0429,0.26829 -0.0134,0.32456 -0.0563,0.0563 -0.0963,-0.0438 -0.0889,-0.22225 z m 6.77333,0 c 0.008,-0.19727 0.0482,-0.23739 0.1023,-0.10231 0.0489,0.12224 0.0429,0.26829 -0.0134,0.32456 -0.0563,0.0563 -0.0963,-0.0438 -0.0889,-0.22225 z m -3.77045,-3.0649 c 0.12223,-0.0489 0.26828,-0.0429 0.32455,0.0134 0.0563,0.0563 -0.0437,0.0963 -0.22225,0.0889 -0.19726,-0.008 -0.23738,-0.0482 -0.1023,-0.1023 z m 0.67733,0 c 0.12224,-0.0489 0.26829,-0.0429 0.32456,0.0134 0.0563,0.0563 -0.0437,0.0963 -0.22225,0.0889 -0.19727,-0.008 -0.23739,-0.0482 -0.10231,-0.1023 z m -19.98133,-1.524 c 0.12224,-0.0489 0.26829,-0.0429 0.32455,0.0134 0.0563,0.0563 -0.0437,0.0963 -0.22225,0.0889 -0.19726,-0.008 -0.23738,-0.0482 -0.1023,-0.1023 z m 0.67733,0 c 0.12224,-0.0489 0.26829,-0.0429 0.32456,0.0134 0.0563,0.0563 -0.0438,0.0963 -0.22225,0.0889 -0.19727,-0.008 -0.23739,-0.0482 -0.10231,-0.1023 z m 38.26933,0 c 0.12224,-0.0489 0.26829,-0.0429 0.32456,0.0134 0.0563,0.0563 -0.0437,0.0963 -0.22225,0.0889 -0.19727,-0.008 -0.23739,-0.0482 -0.10231,-0.1023 z m 0.67734,0 c 0.12223,-0.0489 0.26828,-0.0429 0.32455,0.0134 0.0563,0.0563 -0.0437,0.0963 -0.22225,0.0889 -0.19726,-0.008 -0.23739,-0.0482 -0.1023,-0.1023 z m -35.85355,-3.0311 c 0.008,-0.19727 0.0482,-0.23739 0.10231,-0.10231 0.0489,0.12224 0.0429,0.26829 -0.0134,0.32456 -0.0563,0.0563 -0.0963,-0.0438 -0.0889,-0.22225 z m 38.94667,0 c 0.008,-0.19727 0.0482,-0.23739 0.1023,-0.10231 0.0489,0.12224 0.0429,0.26829 -0.0134,0.32456 -0.0563,0.0563 -0.0963,-0.0438 -0.0889,-0.22225 z m -45.72,-0.67733 c 0.008,-0.19727 0.0483,-0.23739 0.1023,-0.10231 0.0489,0.12224 0.0429,0.26829 -0.0134,0.32456 -0.0563,0.0563 -0.0963,-0.0437 -0.0889,-0.22225 z m 6.77333,0 c 0.008,-0.19727 0.0482,-0.23739 0.10231,-0.10231 0.0489,0.12224 0.0429,0.26829 -0.0134,0.32456 -0.0563,0.0563 -0.0963,-0.0437 -0.0889,-0.22225 z m 32.17333,0 c 0.008,-0.19727 0.0482,-0.23739 0.10231,-0.10231 0.0489,0.12224 0.0429,0.26829 -0.0134,0.32456 -0.0563,0.0563 -0.0963,-0.0437 -0.0889,-0.22225 z m 6.77334,0 c 0.008,-0.19727 0.0482,-0.23739 0.1023,-0.10231 0.0489,0.12224 0.0429,0.26829 -0.0134,0.32456 -0.0563,0.0563 -0.0963,-0.0437 -0.0889,-0.22225 z m -29.33979,-1.37157 c 0.12224,-0.0489 0.26829,-0.0429 0.32456,0.0134 0.0563,0.0563 -0.0438,0.0963 -0.22225,0.0889 -0.19727,-0.008 -0.23739,-0.0482 -0.10231,-0.1023 z m 0.67733,0 c 0.12224,-0.0489 0.26829,-0.0429 0.32456,0.0134 0.0563,0.0563 -0.0437,0.0963 -0.22225,0.0889 -0.19726,-0.008 -0.23739,-0.0482 -0.10231,-0.1023 z m -14.05466,-1.69333 c 0.12224,-0.0489 0.26829,-0.0429 0.32455,0.0134 0.0563,0.0563 -0.0437,0.0963 -0.22225,0.0889 -0.19726,-0.008 -0.23738,-0.0482 -0.1023,-0.10231 z m 0.67733,0 c 0.12224,-0.0489 0.26829,-0.0429 0.32456,0.0134 0.0563,0.0563 -0.0438,0.0963 -0.22225,0.0889 -0.19727,-0.008 -0.23739,-0.0482 -0.10231,-0.10231 z m 38.26933,0 c 0.12224,-0.0489 0.26829,-0.0429 0.32456,0.0134 0.0563,0.0563 -0.0437,0.0963 -0.22225,0.0889 -0.19727,-0.008 -0.23739,-0.0482 -0.10231,-0.10231 z m 0.67734,0 c 0.12223,-0.0489 0.26828,-0.0429 0.32455,0.0134 0.0563,0.0563 -0.0437,0.0963 -0.22225,0.0889 -0.19726,-0.008 -0.23739,-0.0482 -0.1023,-0.10231 z m -22.47622,-1.33777 c 0.008,-0.19727 0.0482,-0.23739 0.10231,-0.10231 0.0489,0.12224 0.0429,0.26829 -0.0134,0.32456 -0.0563,0.0563 -0.0963,-0.0437 -0.0889,-0.22225 z m -6.77333,-0.67733 c 0.008,-0.19727 0.0482,-0.23739 0.10231,-0.10231 0.0489,0.12224 0.0429,0.26829 -0.0134,0.32456 -0.0563,0.0563 -0.0963,-0.0438 -0.0889,-0.22225 z m 6.77333,0 c 0.008,-0.19727 0.0482,-0.23739 0.10231,-0.10231 0.0489,0.12224 0.0429,0.26829 -0.0134,0.32456 -0.0563,0.0563 -0.0963,-0.0438 -0.0889,-0.22225 z m -3.77045,-3.0649 c 0.12224,-0.0489 0.26829,-0.0429 0.32456,0.0134 0.0563,0.0563 -0.0438,0.0963 -0.22225,0.0889 -0.19727,-0.008 -0.23739,-0.0482 -0.10231,-0.10231 z m 0.67733,0 c 0.12224,-0.0489 0.26829,-0.0429 0.32456,0.0134 0.0563,0.0563 -0.0437,0.0963 -0.22225,0.0889 -0.19726,-0.008 -0.23739,-0.0482 -0.10231,-0.10231 z m -22.18266,-7.62 c 0.12224,-0.0489 0.26829,-0.0429 0.32456,0.0134 0.0563,0.0563 -0.0438,0.0963 -0.22225,0.0889 -0.19727,-0.008 -0.23739,-0.0482 -0.10231,-0.10231 z m 0.67733,0 c 0.12224,-0.0489 0.26829,-0.0429 0.32456,0.0134 0.0563,0.0563 -0.0438,0.0963 -0.22225,0.0889 -0.19727,-0.008 -0.23739,-0.0482 -0.10231,-0.10231 z m 18.62667,-0.33867 c 0.12224,-0.0489 0.26829,-0.0429 0.32455,0.0134 0.0563,0.0563 -0.0437,0.0963 -0.22225,0.0889 -0.19726,-0.008 -0.23738,-0.0482 -0.1023,-0.1023 z m 0.67733,0 c 0.12224,-0.0489 0.26829,-0.0429 0.32456,0.0134 0.0563,0.0563 -0.0438,0.0963 -0.22225,0.0889 -0.19727,-0.008 -0.23739,-0.0482 -0.10231,-0.1023 z m 19.64267,-0.84666 c 0.12223,-0.0489 0.26829,-0.0429 0.32455,0.0134 0.0563,0.0563 -0.0437,0.0963 -0.22225,0.0889 -0.19726,-0.008 -0.23739,-0.0482 -0.1023,-0.10231 z m 0.67733,0 c 0.12224,-0.0489 0.26829,-0.0429 0.32456,0.0134 0.0563,0.0563 -0.0437,0.0963 -0.22225,0.0889 -0.19727,-0.008 -0.23739,-0.0482 -0.10231,-0.10231 z m 11.89845,-1.67644 c 0.008,-0.197265 0.0482,-0.237388 0.10231,-0.102306 0.0489,0.122237 0.0429,0.268287 -0.0134,0.324556 -0.0563,0.05627 -0.0963,-0.04375 -0.0889,-0.22225 z m 6.77333,0 c 0.008,-0.197265 0.0482,-0.237388 0.10231,-0.102306 0.0489,0.122237 0.0429,0.268287 -0.0134,0.324556 -0.0563,0.05627 -0.0963,-0.04375 -0.0889,-0.22225 z m -55.20266,-0.169333 c 0.008,-0.197265 0.0482,-0.237388 0.10231,-0.102306 0.0489,0.122236 0.0429,0.268286 -0.0134,0.324556 -0.0563,0.05627 -0.0963,-0.04375 -0.0889,-0.22225 z m 19.304,-0.338667 c 0.008,-0.197265 0.0482,-0.237388 0.1023,-0.102306 0.0489,0.122237 0.0429,0.268287 -0.0134,0.324556 -0.0563,0.05627 -0.0963,-0.04375 -0.0889,-0.22225 z M 115.2122,98.714004 c 0.008,-0.197265 0.0483,-0.237389 0.1023,-0.102306 0.0489,0.122236 0.0429,0.268286 -0.0134,0.324556 -0.0563,0.05627 -0.0963,-0.04375 -0.0889,-0.22225 z m 6.77333,0 c 0.008,-0.197265 0.0482,-0.237389 0.10231,-0.102306 0.0489,0.122236 0.0429,0.268286 -0.0134,0.324556 -0.0563,0.05627 -0.0963,-0.04375 -0.0889,-0.22225 z m 48.42933,0 c 0.008,-0.197265 0.0482,-0.237389 0.10231,-0.102306 0.0489,0.122236 0.0429,0.268286 -0.0134,0.324556 -0.0563,0.05627 -0.0963,-0.04375 -0.0889,-0.22225 z m 6.77333,0 c 0.008,-0.197265 0.0482,-0.237389 0.10231,-0.102306 0.0489,0.122236 0.0429,0.268286 -0.0134,0.324556 -0.0563,0.05627 -0.0963,-0.04375 -0.0889,-0.22225 z M 134.5162,98.375337 c 0.008,-0.197265 0.0482,-0.237388 0.1023,-0.102306 0.0489,0.122237 0.0429,0.268287 -0.0134,0.324556 -0.0563,0.05627 -0.0963,-0.04375 -0.0889,-0.22225 z m 6.77333,0 c 0.008,-0.197265 0.0482,-0.237388 0.1023,-0.102306 0.0489,0.122237 0.0429,0.268287 -0.0134,0.324556 -0.0563,0.05627 -0.0963,-0.04375 -0.0889,-0.22225 z m 20.32,-0.169333 c 0.008,-0.197265 0.0482,-0.237389 0.1023,-0.102306 0.0489,0.122236 0.0429,0.268286 -0.0134,0.324556 -0.0563,0.05627 -0.0963,-0.04375 -0.0889,-0.22225 z M 154.8362,97.52867 c 0.008,-0.197264 0.0482,-0.237388 0.1023,-0.102306 0.0489,0.122237 0.0429,0.268287 -0.0134,0.324556 -0.0563,0.05627 -0.0963,-0.04374 -0.0889,-0.22225 z m 6.77333,0 c 0.008,-0.197264 0.0482,-0.237388 0.1023,-0.102306 0.0489,0.122237 0.0429,0.268287 -0.0134,0.324556 -0.0563,0.05627 -0.0963,-0.04374 -0.0889,-0.22225 z m -43.39445,-1.879562 c 0.12224,-0.04892 0.26829,-0.0429 0.32456,0.01336 0.0563,0.05627 -0.0438,0.09629 -0.22225,0.08894 -0.19727,-0.0081 -0.23739,-0.04825 -0.10231,-0.102304 z m 0.67733,0 c 0.12224,-0.04892 0.26829,-0.0429 0.32456,0.01336 0.0563,0.05627 -0.0438,0.09629 -0.22225,0.08894 -0.19727,-0.0081 -0.23739,-0.04825 -0.10231,-0.102304 z m 18.62667,-0.338667 c 0.12224,-0.04891 0.26829,-0.0429 0.32455,0.01336 0.0563,0.05627 -0.0437,0.09629 -0.22225,0.08894 -0.19726,-0.0081 -0.23738,-0.04825 -0.1023,-0.102305 z m 0.67733,0 c 0.12224,-0.04891 0.26829,-0.0429 0.32456,0.01336 0.0563,0.05627 -0.0438,0.09629 -0.22225,0.08894 -0.19727,-0.0081 -0.23739,-0.04825 -0.10231,-0.102305 z m 19.64267,-0.846667 c 0.12223,-0.04891 0.26829,-0.0429 0.32455,0.01336 0.0563,0.05627 -0.0437,0.09629 -0.22225,0.08894 -0.19726,-0.0081 -0.23739,-0.04825 -0.1023,-0.102304 z m 0.67733,0 c 0.12224,-0.04891 0.26829,-0.0429 0.32456,0.01336 0.0563,0.05627 -0.0437,0.09629 -0.22225,0.08894 -0.19727,-0.0081 -0.23739,-0.04825 -0.10231,-0.102304 z m -12.65488,-8.111103 c 0.008,-0.197265 0.0483,-0.237388 0.1023,-0.102306 0.0489,0.122237 0.0429,0.268287 -0.0134,0.324556 -0.0563,0.05627 -0.0963,-0.04375 -0.0889,-0.22225 z m 6.77333,0 c 0.008,-0.197265 0.0482,-0.237388 0.10231,-0.102306 0.0489,0.122237 0.0429,0.268287 -0.0134,0.324556 -0.0563,0.05627 -0.0963,-0.04375 -0.0889,-0.22225 z m -6.77333,-0.846667 c 0.008,-0.197264 0.0483,-0.237388 0.1023,-0.102306 0.0489,0.122237 0.0429,0.268287 -0.0134,0.324556 -0.0563,0.05627 -0.0963,-0.04375 -0.0889,-0.22225 z m 6.77333,0 c 0.008,-0.197264 0.0482,-0.237388 0.10231,-0.102306 0.0489,0.122237 0.0429,0.268287 -0.0134,0.324556 -0.0563,0.05627 -0.0963,-0.04375 -0.0889,-0.22225 z m -26.46111,-2.556896 c 0.12223,-0.04892 0.26828,-0.0429 0.32455,0.01337 0.0563,0.05627 -0.0437,0.09629 -0.22225,0.08894 -0.19726,-0.0081 -0.23739,-0.04825 -0.1023,-0.102306 z m 0.67733,0 c 0.12224,-0.04892 0.26829,-0.0429 0.32455,0.01337 0.0563,0.05627 -0.0437,0.09629 -0.22225,0.08894 -0.19726,-0.0081 -0.23738,-0.04825 -0.1023,-0.102306 z m 37.592,-0.846667 c 0.12223,-0.04891 0.26828,-0.0429 0.32455,0.01337 0.0563,0.05627 -0.0437,0.09629 -0.22225,0.08894 -0.19726,-0.0081 -0.23739,-0.04825 -0.1023,-0.102305 z m 0.67733,0 c 0.12224,-0.04891 0.26829,-0.0429 0.32456,0.01337 0.0563,0.05627 -0.0438,0.09629 -0.22225,0.08894 -0.19727,-0.0081 -0.23739,-0.04825 -0.10231,-0.102305 z M 129.9442,79.918004 c 0.008,-0.197263 0.0482,-0.237388 0.1023,-0.102305 0.0489,0.122237 0.0429,0.268287 -0.0134,0.324555 -0.0563,0.05627 -0.0963,-0.04374 -0.0889,-0.22225 z m -6.77334,-0.677333 c 0.008,-0.197264 0.0482,-0.237388 0.10231,-0.102306 0.0489,0.122238 0.0429,0.268288 -0.0134,0.324556 -0.0563,0.05627 -0.0963,-0.04375 -0.0889,-0.22225 z m 6.77334,0 c 0.008,-0.197264 0.0482,-0.237388 0.1023,-0.102306 0.0489,0.122238 0.0429,0.268288 -0.0134,0.324556 -0.0563,0.05627 -0.0963,-0.04375 -0.0889,-0.22225 z m 38.26933,-0.169333 c 0.008,-0.197264 0.0482,-0.237389 0.1023,-0.102306 0.0489,0.122237 0.0429,0.268287 -0.0134,0.324556 -0.0563,0.05627 -0.0963,-0.04375 -0.0889,-0.22225 z m -6.77333,-0.677334 c 0.008,-0.197263 0.0482,-0.237388 0.1023,-0.102305 0.0489,0.122237 0.0429,0.268287 -0.0134,0.324555 -0.0563,0.05627 -0.0963,-0.04374 -0.0889,-0.22225 z m 6.77333,0 c 0.008,-0.197263 0.0482,-0.237388 0.1023,-0.102305 0.0489,0.122237 0.0429,0.268287 -0.0134,0.324555 -0.0563,0.05627 -0.0963,-0.04374 -0.0889,-0.22225 z m -42.03978,-2.218229 c 0.12223,-0.04892 0.26828,-0.0429 0.32455,0.01337 0.0563,0.05627 -0.0437,0.09629 -0.22225,0.08894 -0.19726,-0.0081 -0.23739,-0.04825 -0.1023,-0.102306 z m 0.67733,0 c 0.12224,-0.04892 0.26829,-0.0429 0.32455,0.01337 0.0563,0.05627 -0.0437,0.09629 -0.22225,0.08894 -0.19726,-0.0081 -0.23738,-0.04825 -0.1023,-0.102306 z m 37.592,-0.846667 c 0.12223,-0.04892 0.26828,-0.0429 0.32455,0.01337 0.0563,0.05627 -0.0437,0.09629 -0.22225,0.08894 -0.19726,-0.0081 -0.23739,-0.04825 -0.1023,-0.102305 z m 0.67733,0 c 0.12224,-0.04892 0.26829,-0.0429 0.32456,0.01337 0.0563,0.05627 -0.0438,0.09629 -0.22225,0.08894 -0.19727,-0.0081 -0.23739,-0.04825 -0.10231,-0.102305 z m -19.304,-0.508 c 0.12224,-0.04891 0.26829,-0.0429 0.32456,0.01337 0.0563,0.05627 -0.0438,0.09629 -0.22225,0.08894 -0.19727,-0.0081 -0.23739,-0.04825 -0.10231,-0.102305 z m 0.67733,0 c 0.12224,-0.04891 0.26829,-0.0429 0.32456,0.01337 0.0563,0.05627 -0.0437,0.09629 -0.22225,0.08894 -0.19726,-0.0081 -0.23739,-0.04825 -0.10231,-0.102305 z m 3.09312,-3.031103 c 0.008,-0.197264 0.0482,-0.237389 0.10231,-0.102306 0.0489,0.122238 0.0429,0.268288 -0.0134,0.324556 -0.0563,0.05627 -0.0963,-0.04375 -0.0889,-0.22225 z m -6.77333,-0.677334 c 0.008,-0.197263 0.0483,-0.237388 0.1023,-0.102305 0.0489,0.122237 0.0429,0.268287 -0.0134,0.324555 -0.0563,0.05627 -0.0963,-0.04374 -0.0889,-0.22225 z m 6.77333,0 c 0.008,-0.197263 0.0482,-0.237388 0.10231,-0.102305 0.0489,0.122237 0.0429,0.268287 -0.0134,0.324555 -0.0563,0.05627 -0.0963,-0.04374 -0.0889,-0.22225 z m -3.77045,-3.064896 c 0.12224,-0.04892 0.26829,-0.0429 0.32456,0.01337 0.0563,0.05627 -0.0438,0.09629 -0.22225,0.08894 -0.19727,-0.0081 -0.23739,-0.04825 -0.10231,-0.102306 z m 0.67733,0 c 0.12224,-0.04892 0.26829,-0.0429 0.32456,0.01337 0.0563,0.05627 -0.0437,0.09629 -0.22225,0.08894 -0.19726,-0.0081 -0.23739,-0.04825 -0.10231,-0.102306 z"
         id="path296" /><path
         style="fill:#61625b;stroke-width:0.169333"
         d="m 123.80308,99.713108 c 0.12224,-0.04892 0.26829,-0.0429 0.32455,0.01336 0.0563,0.05627 -0.0437,0.09629 -0.22225,0.08894 -0.19726,-0.0081 -0.23738,-0.04825 -0.1023,-0.102304 z m 5.74675,-0.165807 c 0.11642,-0.04697 0.30692,-0.04697 0.42333,0 0.11642,0.04697 0.0212,0.08541 -0.21166,0.08541 -0.23284,0 -0.32809,-0.03844 -0.21167,-0.08541 z m -3.38667,-1.354666 c 0.11642,-0.04697 0.30692,-0.04697 0.42334,0 0.11641,0.04698 0.0212,0.08541 -0.21167,0.08541 -0.23283,0 -0.32808,-0.03844 -0.21167,-0.08541 z m 5.75734,-0.169334 c 0.11641,-0.04697 0.30691,-0.04697 0.42333,0 0.11642,0.04698 0.0212,0.08541 -0.21167,0.08541 -0.23283,0 -0.32808,-0.03844 -0.21166,-0.08541 z"
         id="path294" /><path
         style="fill:#4a4b3d;stroke-width:0.169333"
         d="m 143.55151,129.25045 -0.49735,-0.55034 0.55033,0.49735 c 0.51299,0.4636 0.62817,0.60332 0.49735,0.60332 -0.0291,0 -0.27679,-0.24765 -0.55033,-0.55033 z m 4.49798,0.49734 c 0,-0.0291 0.24765,-0.27679 0.55034,-0.55033 l 0.55033,-0.49735 -0.49735,0.55034 c -0.46359,0.51298 -0.60332,0.62816 -0.60332,0.49734 z m -4.91066,-4.91066 c 0,-0.0292 0.24765,-0.2768 0.55033,-0.55034 l 0.55033,-0.49734 -0.49734,0.55033 c -0.4636,0.51299 -0.60332,0.62817 -0.60332,0.49735 z m 5.32334,-0.49735 -0.49734,-0.55033 0.55033,0.49734 c 0.51299,0.4636 0.62817,0.60332 0.49735,0.60332 -0.0291,0 -0.27679,-0.24765 -0.55034,-0.55033 z m -24.21466,-3.38667 -0.49735,-0.55033 0.55034,0.49735 c 0.30268,0.27354 0.55033,0.52119 0.55033,0.55033 0,0.13082 -0.13972,0.0156 -0.60332,-0.49735 z m 4.49799,0.49735 c 0,-0.0291 0.24765,-0.27679 0.55033,-0.55033 l 0.55033,-0.49735 -0.49735,0.55033 c -0.46359,0.51299 -0.60331,0.62817 -0.60331,0.49735 z m 34.44867,-0.49735 -0.49734,-0.55033 0.55033,0.49735 c 0.30268,0.27354 0.55033,0.52119 0.55033,0.55033 0,0.13082 -0.13972,0.0156 -0.60332,-0.49735 z m 4.49799,0.49735 c 0,-0.0291 0.24765,-0.27679 0.55033,-0.55033 l 0.55034,-0.49735 -0.49735,0.55033 c -0.4636,0.51299 -0.60332,0.62817 -0.60332,0.49735 z m -43.85733,-4.91067 c 0,-0.0291 0.24765,-0.27679 0.55033,-0.55033 l 0.55034,-0.49735 -0.49735,0.55034 c -0.4636,0.51299 -0.60332,0.62816 -0.60332,0.49734 z m 5.32335,-0.49734 -0.49735,-0.55034 0.55033,0.49735 c 0.30269,0.27354 0.55034,0.52119 0.55034,0.55033 0,0.13082 -0.13973,0.0157 -0.60332,-0.49734 z m 33.62331,0.49734 c 0,-0.0291 0.24765,-0.27679 0.55034,-0.55033 l 0.55033,-0.49735 -0.49735,0.55034 c -0.46359,0.51299 -0.60332,0.62816 -0.60332,0.49734 z m 5.32335,-0.49734 -0.49735,-0.55034 0.55034,0.49735 c 0.30268,0.27354 0.55033,0.52119 0.55033,0.55033 0,0.13082 -0.13972,0.0157 -0.60332,-0.49734 z m -30.48,-0.16934 -0.49734,-0.55033 0.55033,0.49735 c 0.30268,0.27354 0.55033,0.52119 0.55033,0.55033 0,0.13082 -0.13972,0.0157 -0.60332,-0.49735 z m 4.49799,0.49735 c 0,-0.0291 0.24765,-0.27679 0.55033,-0.55033 l 0.55033,-0.49735 -0.49734,0.55033 c -0.4636,0.51299 -0.60332,0.62817 -0.60332,0.49735 z m -4.91067,-4.91067 c 0,-0.0291 0.24765,-0.27679 0.55034,-0.55033 l 0.55033,-0.49735 -0.49735,0.55034 c -0.4636,0.51299 -0.60332,0.62816 -0.60332,0.49734 z m 5.32335,-0.49734 -0.49735,-0.55034 0.55033,0.49735 c 0.51299,0.4636 0.62817,0.60332 0.49735,0.60332 -0.0291,0 -0.27679,-0.24765 -0.55033,-0.55033 z m -26.416,-9.48267 -0.49735,-0.55033 0.55034,0.49734 c 0.30268,0.27355 0.55033,0.5212 0.55033,0.55034 0,0.13082 -0.13972,0.0156 -0.60332,-0.49735 z m 4.49799,0.49735 c 0,-0.0291 0.24765,-0.27679 0.55033,-0.55034 l 0.55033,-0.49734 -0.49734,0.55033 c -0.4636,0.51299 -0.60332,0.62817 -0.60332,0.49735 z m 50.69924,-0.32802 -0.32258,-0.381 0.381,0.32258 c 0.35804,0.30315 0.45809,0.43942 0.32258,0.43942 -0.0321,0 -0.20358,-0.17145 -0.381,-0.381 z m 4.92675,0.0423 c 0.16857,-0.18627 0.34459,-0.33867 0.39116,-0.33867 0.0466,0 -0.0532,0.1524 -0.22182,0.33867 -0.16857,0.18626 -0.34459,0.33866 -0.39116,0.33866 -0.0466,0 0.0532,-0.1524 0.22182,-0.33866 z m -40.81998,-0.55034 -0.49735,-0.55033 0.55034,0.49735 c 0.30268,0.27354 0.55033,0.52119 0.55033,0.55033 0,0.13082 -0.13972,0.0157 -0.60332,-0.49735 z m 4.49798,0.49735 c 0,-0.0291 0.24765,-0.27679 0.55034,-0.55033 l 0.55033,-0.49735 -0.49735,0.55033 c -0.46359,0.51299 -0.60332,0.62817 -0.60332,0.49735 z m 15.82202,-1.34401 -0.49735,-0.550336 0.55033,0.497346 c 0.51299,0.4636 0.62817,0.60332 0.49735,0.60332 -0.0291,0 -0.27679,-0.24765 -0.55033,-0.55033 z m 4.49798,0.49734 c 0,-0.0291 0.24765,-0.27679 0.55034,-0.55033 l 0.55033,-0.497346 -0.49735,0.550336 c -0.46359,0.51299 -0.60332,0.62816 -0.60332,0.49734 z m -31.45044,-1.249689 c 0.16476,-0.04293 0.39336,-0.04011 0.508,0.0063 0.11465,0.04639 -0.0202,0.08151 -0.29955,0.07806 -0.2794,-0.0035 -0.3732,-0.0414 -0.20845,-0.08433 z m -1.95055,-1.349466 c 0.11641,-0.04697 0.30691,-0.04697 0.42333,0 0.11642,0.04698 0.0212,0.08541 -0.21167,0.08541 -0.23283,0 -0.32808,-0.03844 -0.21166,-0.08541 z m 5.76791,-0.172861 c 0.12224,-0.04891 0.26829,-0.0429 0.32456,0.01336 0.0563,0.05627 -0.0438,0.09629 -0.22225,0.08894 -0.19727,-0.0081 -0.23739,-0.04825 -0.10231,-0.102305 z m -16.90158,-0.953312 c 0,-0.02914 0.24765,-0.276793 0.55033,-0.550334 l 0.55034,-0.497347 -0.49735,0.550333 c -0.4636,0.512989 -0.60332,0.628168 -0.60332,0.497348 z m 5.32335,-0.497348 -0.49735,-0.550333 0.55033,0.497347 c 0.30269,0.273541 0.55034,0.521191 0.55034,0.550334 0,0.13082 -0.13973,0.01565 -0.60332,-0.497348 z m 50.30265,0.04233 c 0.16857,-0.186267 0.34459,-0.338667 0.39115,-0.338667 0.0466,0 -0.0533,0.1524 -0.22182,0.338667 -0.16857,0.186266 -0.34459,0.338666 -0.39116,0.338666 -0.0466,0 0.0533,-0.1524 0.22183,-0.338666 z m 4.89457,-0.04233 -0.32257,-0.381 0.381,0.322579 c 0.20955,0.177417 0.381,0.348867 0.381,0.381 0,0.135509 -0.13628,0.03547 -0.43943,-0.322579 z m -41.21657,0.158681 c 0,-0.02914 0.24765,-0.276792 0.55033,-0.550333 l 0.55034,-0.497348 -0.49735,0.550334 c -0.4636,0.512988 -0.60332,0.628167 -0.60332,0.497347 z m 5.32335,-0.497347 -0.49735,-0.550334 0.55033,0.497348 c 0.51299,0.463597 0.62817,0.603319 0.49735,0.603319 -0.0291,0 -0.27679,-0.24765 -0.55033,-0.550333 z m 14.99665,-0.34932 c 0,-0.02914 0.24765,-0.276792 0.55033,-0.550333 l 0.55033,-0.497347 -0.49734,0.550333 c -0.4636,0.512989 -0.60332,0.628167 -0.60332,0.497347 z m 5.32334,-0.497347 -0.49734,-0.550333 0.55033,0.497347 c 0.51299,0.463597 0.62817,0.603319 0.49735,0.603319 -0.0291,0 -0.27679,-0.24765 -0.55034,-0.550333 z m -13.89076,-6.942666 -0.32258,-0.381 0.381,0.322578 c 0.35804,0.303144 0.45809,0.439422 0.32258,0.439422 -0.0321,0 -0.20359,-0.17145 -0.381,-0.381 z m 4.92675,0.04233 c 0.16857,-0.186267 0.34459,-0.338667 0.39116,-0.338667 0.0466,0 -0.0533,0.1524 -0.22183,0.338667 -0.16857,0.186267 -0.34459,0.338667 -0.39115,0.338667 -0.0466,0 0.0532,-0.1524 0.22182,-0.338667 z m -4.91067,-5.08 c 0.16857,-0.186266 0.34459,-0.338666 0.39116,-0.338666 0.0466,0 -0.0532,0.1524 -0.22182,0.338666 -0.16857,0.186267 -0.34459,0.338667 -0.39116,0.338667 -0.0466,0 0.0532,-0.1524 0.22182,-0.338667 z m 4.89458,-0.04233 -0.32258,-0.381 0.381,0.322578 c 0.35805,0.303144 0.45809,0.439422 0.32258,0.439422 -0.0321,0 -0.20358,-0.17145 -0.381,-0.381 z m -27.59589,-1.354667 -0.49735,-0.550333 0.55033,0.497348 c 0.51299,0.463597 0.62817,0.603319 0.49735,0.603319 -0.0291,0 -0.27679,-0.24765 -0.55033,-0.550334 z m 4.49798,0.497348 c 0,-0.02914 0.24765,-0.276792 0.55034,-0.550333 l 0.55033,-0.497348 -0.49735,0.550333 c -0.4636,0.512988 -0.60332,0.628168 -0.60332,0.497348 z m 33.77135,-1.344014 -0.49735,-0.550333 0.55033,0.497347 c 0.51299,0.463597 0.62817,0.603319 0.49735,0.603319 -0.0291,0 -0.27679,-0.24765 -0.55033,-0.550333 z m 4.49798,0.497347 c 0,-0.02914 0.24765,-0.276792 0.55034,-0.550333 l 0.55033,-0.497347 -0.49735,0.550333 c -0.46359,0.512988 -0.60332,0.628168 -0.60332,0.497347 z m -43.17999,-4.064 c 0,-0.02914 0.24765,-0.276792 0.55033,-0.550333 l 0.55033,-0.497347 -0.49734,0.550333 c -0.4636,0.512988 -0.60332,0.628168 -0.60332,0.497347 z m 5.32334,-0.497347 -0.49734,-0.550333 0.55033,0.497347 c 0.51299,0.463598 0.62817,0.603319 0.49735,0.603319 -0.0291,0 -0.2768,-0.24765 -0.55034,-0.550333 z m 32.94599,-0.349319 c 0,-0.02914 0.24765,-0.276792 0.55033,-0.550333 l 0.55033,-0.497348 -0.49734,0.550333 c -0.4636,0.512988 -0.60332,0.628168 -0.60332,0.497348 z m 5.32334,-0.497348 -0.49734,-0.550333 0.55033,0.497348 c 0.30268,0.273541 0.55033,0.521191 0.55033,0.550333 0,0.13082 -0.13972,0.01564 -0.60332,-0.497348 z m -23.53733,-2.370666 -0.49735,-0.550333 0.55034,0.497347 c 0.51299,0.463598 0.62817,0.603319 0.49735,0.603319 -0.0291,0 -0.2768,-0.24765 -0.55034,-0.550333 z m 4.49799,0.497347 c 0,-0.02914 0.24765,-0.276792 0.55033,-0.550333 l 0.55033,-0.497347 -0.49734,0.550333 c -0.4636,0.512988 -0.60332,0.628168 -0.60332,0.497347 z m -4.91067,-4.910666 c 0,-0.02914 0.24765,-0.276792 0.55033,-0.550333 l 0.55034,-0.497348 -0.49735,0.550334 c -0.4636,0.512987 -0.60332,0.628167 -0.60332,0.497347 z m 5.32335,-0.497347 -0.49735,-0.550334 0.55033,0.497348 c 0.30269,0.273541 0.55034,0.521191 0.55034,0.550333 0,0.13082 -0.13972,0.01564 -0.60332,-0.497347 z"
         id="path292" /><path
         style="fill:#292929;stroke-width:0.169333"
         d="m 145.32669,131.64549 c -0.97938,-0.1453 -1.99084,-0.65774 -2.70206,-1.36896 -0.6017,-0.6017 -1.34417,-2.04049 -1.34681,-2.60992 -0.001,-0.30543 -0.80733,-0.70643 -5.65833,-2.81539 l -5.65667,-2.45922 -1.00402,0.49764 c -1.86582,0.92478 -4.16811,0.55962 -5.61895,-0.89122 -1.44424,-1.44424 -1.81557,-3.75398 -0.90037,-5.60046 l 0.48848,-0.98554 -2.37602,-5.75982 c -2.02253,-4.90294 -2.42741,-5.76006 -2.72156,-5.76147 -0.56819,-0.003 -2.00589,-0.75341 -2.62104,-1.36856 -1.84635,-1.84635 -1.84635,-5.06523 0,-6.911579 0.61546,-0.615466 2.05294,-1.365838 2.62172,-1.368556 0.29632,-0.0014 0.67792,-0.828847 2.64735,-5.740372 l 2.30113,-5.738718 -0.49894,-1.006643 c -2.07294,-4.182311 2.33536,-8.581358 6.52064,-6.506942 l 1.0158,0.503478 5.81423,-2.3786 c 5.05004,-2.065972 5.81444,-2.425649 5.81588,-2.736561 0.003,-0.578989 0.74769,-2.012586 1.36855,-2.633453 1.84635,-1.84635 5.06523,-1.84635 6.91158,0 0.58649,0.586481 1.36557,2.044874 1.36856,2.561832 8.5e-4,0.157486 0.0807,0.335225 0.17743,0.394975 0.0967,0.05975 2.49438,0.966942 5.32823,2.015983 l 5.15245,1.907348 0.9938,-0.492573 c 0.79841,-0.39573 1.21648,-0.492573 2.12644,-0.492573 3.64022,0 5.92185,3.601679 4.41239,6.965201 l -0.45874,1.022217 1.74359,3.933207 c 3.71409,8.378271 3.73472,8.420405 4.1256,8.422194 0.61176,0.0028 2.02209,0.770679 2.68111,1.459772 1.82974,1.913247 1.82974,4.985233 0,6.898483 -0.65959,0.68969 -2.0695,1.45697 -2.68238,1.45977 -0.39815,0.002 -0.26698,-0.27955 -3.41587,7.32709 l -1.66557,4.02343 0.48884,0.98626 c 0.91557,1.84723 0.54447,4.15668 -0.90003,5.60118 -1.4454,1.44541 -3.75383,1.81565 -5.60371,0.89877 l -0.9888,-0.4901 -5.78189,2.46918 -5.7819,2.46918 -0.20021,0.67733 c -0.7559,2.55731 -2.95832,4.00275 -5.51993,3.62271 z m 2.1756,-1.59879 c 1.29965,-0.54303 2.06377,-1.73127 2.06377,-3.20925 0,-1.47799 -0.76412,-2.66623 -2.06377,-3.20925 -1.22165,-0.51044 -2.88734,-0.23451 -3.83316,0.635 -1.29635,1.19175 -1.36638,3.67459 -0.14122,5.00727 0.87889,0.95603 2.69509,1.31075 3.97438,0.77623 z m 14.00446,-8.73606 c 0.0525,-0.0525 -0.0567,-0.43063 -0.24253,-0.84031 -0.18587,-0.40969 -0.33963,-0.9112 -0.34167,-1.11447 -0.002,-0.20328 -0.13707,-0.40986 -0.30006,-0.45908 -6.72767,-2.03176 -15.54438,-4.48117 -15.59402,-4.33225 -0.0348,0.10441 -0.2739,0.60738 -0.53132,1.11772 l -0.46803,0.92789 1.32561,2.70065 c 0.97474,1.98585 1.40595,2.70109 1.62918,2.70231 0.55862,0.003 2.01788,0.79621 2.63622,1.43288 0.33647,0.34647 0.7773,1.02929 0.9796,1.51738 l 0.36783,0.88745 5.22188,-2.22237 c 2.87203,-1.2223 5.26482,-2.26531 5.31731,-2.3178 z m -19.84326,3.52587 c 0.52506,-1.14687 1.43291,-2.02758 2.58031,-2.50315 l 0.90318,-0.37435 -1.08996,-2.17511 c -0.59947,-1.19632 -1.11782,-2.17512 -1.15188,-2.17512 -0.0341,0 -0.41722,0.15716 -0.85147,0.34925 -0.53298,0.23576 -1.14653,0.34925 -1.88818,0.34925 -1.99163,0 -3.60813,-1.05574 -4.46452,-2.91577 l -0.43614,-0.94727 -2.11667,0.66778 c -1.16416,0.36729 -2.13664,0.68653 -2.16105,0.70944 -0.0244,0.0229 0.1137,0.39903 0.30691,0.83583 0.47402,1.0716 0.47402,2.69405 0,3.76565 -0.19321,0.4368 -0.311,0.83448 -0.26174,0.88373 0.10613,0.10614 9.93759,4.40765 10.10447,4.42097 0.063,0.005 0.30006,-0.39598 0.52674,-0.89113 z m -13.4652,-3.08715 c 1.29965,-0.54302 2.06377,-1.73127 2.06377,-3.20925 0,-1.47798 -0.76412,-2.66622 -2.06377,-3.20925 -1.22165,-0.51044 -2.88734,-0.2345 -3.83315,0.635 -1.29636,1.19175 -1.36638,3.67459 -0.14123,5.00728 0.87889,0.95603 2.69509,1.31074 3.97438,0.77622 z m 38.94666,0 c 1.29965,-0.54302 2.06377,-1.73127 2.06377,-3.20925 0,-1.47798 -0.76412,-2.66622 -2.06377,-3.20925 -1.22165,-0.51044 -2.88733,-0.2345 -3.83315,0.635 -1.29635,1.19175 -1.36638,3.67459 -0.14122,5.00728 0.87888,0.95603 2.69509,1.31074 3.97437,0.77622 z m -5.74545,-5.38074 0.52716,-1.07082 -2.07025,-6.24179 -2.07025,-6.24179 -0.7158,-0.20372 c -0.39369,-0.11204 -0.9666,-0.35168 -1.27312,-0.53253 l -0.55732,-0.32883 -5.52892,4.40859 -5.52891,4.40858 0.26883,0.51557 c 0.14785,0.28356 0.35966,0.8203 0.47068,1.19274 l 0.20185,0.67718 7.60135,2.22844 c 4.18075,1.22563 7.72425,2.23535 7.87445,2.24382 0.17376,0.01 0.46481,-0.37407 0.80025,-1.05544 z m -19.82388,0.30074 c 1.29965,-0.54302 2.06377,-1.73126 2.06377,-3.20925 0,-1.47798 -0.76412,-2.66622 -2.06377,-3.20925 -1.22165,-0.51044 -2.88733,-0.2345 -3.83315,0.635 -1.29636,1.19176 -1.36638,3.67459 -0.14123,5.00728 0.87889,0.95603 2.69509,1.31075 3.97438,0.77622 z m -8.79143,-2.91422 2.43002,-0.80303 0.29579,-0.84666 c 0.16268,-0.46567 0.34767,-0.96438 0.41109,-1.10825 0.0909,-0.20619 -1.39364,-1.08712 -7.01067,-4.16017 l -7.12597,-3.8986 -0.95481,0.48161 c -0.52514,0.26489 -0.9885,0.51531 -1.02968,0.5565 -0.0779,0.0779 3.99421,10.0615 4.19774,10.29169 0.0636,0.0719 0.47477,-0.0281 0.91373,-0.22225 1.22299,-0.54099 2.77038,-0.48736 3.98276,0.13803 0.52359,0.27008 1.06627,0.46476 1.20597,0.43261 0.1397,-0.0322 1.34751,-0.41981 2.68403,-0.86148 z m 32.96064,-0.0622 c 0.73531,0 1.34766,0.11458 1.88673,0.35303 0.43895,0.19417 0.84973,0.29418 0.91283,0.22225 0.0859,-0.098 3.67833,-8.67988 4.1729,-9.96871 0.0483,-0.12576 -0.24753,-0.35498 -0.73658,-0.5708 -0.44947,-0.19836 -1.11208,-0.64264 -1.47246,-0.9873 -0.65088,-0.62247 -1.4566,-2.05992 -1.45977,-2.6043 -0.002,-0.305947 -0.0696,-0.324324 -3.85399,-1.044021 -1.36605,-0.259792 -2.0749,-0.331633 -2.07598,-0.210404 -0.004,0.430085 -0.83778,1.928805 -1.36856,2.459575 -0.31628,0.31629 -0.99463,0.76415 -1.50743,0.99525 -0.5128,0.2311 -0.95015,0.43301 -0.97188,0.44869 -0.0312,0.0225 3.44643,10.56372 3.75675,11.38744 0.0567,0.15046 0.28528,0.1136 0.85312,-0.13758 0.51676,-0.22859 1.13906,-0.34312 1.86432,-0.34312 z m -27.66502,-4.6042 1.12166,-0.55105 -0.86766,-2.42216 -0.86765,-2.42216 -0.8769,-0.29352 c -1.68046,-0.56248 -2.83634,-1.71231 -3.30976,-3.29245 l -0.20038,-0.668822 -3.39448,0.109985 c -1.86696,0.06049 -4.00408,0.111205 -4.74914,0.112695 l -1.35467,0.0027 -0.30236,0.886732 c -0.16629,0.48771 -0.33996,1.00104 -0.38592,1.14074 -0.0619,0.18823 1.72627,1.24725 6.90635,4.0901 3.84446,2.10985 7.02803,3.84108 7.0746,3.84718 0.0466,0.006 0.58941,-0.2369 1.20631,-0.53998 z m 10.66873,-3.92758 c 2.96833,-2.37579 5.39695,-4.37457 5.39695,-4.44173 0,-0.0973 -0.66452,-1.841862 -0.77767,-2.041635 -0.0349,-0.06157 -9.24836,0.619997 -10.01733,0.741032 -0.30268,0.04764 -0.55107,0.178421 -0.55198,0.290616 -0.004,0.447037 -0.82642,1.937357 -1.36959,2.480737 -0.31685,0.31697 -1.00701,0.77257 -1.53369,1.01245 l -0.9576,0.43614 0.87293,2.43956 0.87293,2.43957 0.67734,0.19835 c 0.37253,0.10909 0.90593,0.32269 1.18533,0.47465 0.2794,0.15197 0.57492,0.27936 0.65672,0.28309 0.0818,0.004 2.57734,-1.93705 5.54566,-4.31283 z m 26.73295,-2.85232 c 0.4344,-0.2218 0.98041,-0.69922 1.27,-1.11049 0.45974,-0.65288 0.508,-0.84735 0.508,-2.046912 0,-1.199566 -0.0483,-1.394032 -0.508,-2.046917 -1.3993,-1.987189 -4.35802,-1.987189 -5.75733,0 -0.45974,0.652885 -0.508,0.847351 -0.508,2.046917 0,1.199562 0.0483,1.394032 0.508,2.046912 1.00935,1.43341 2.92592,1.90771 4.48733,1.11049 z m -55.4112,-0.0328 c 1.29965,-0.54302 2.06377,-1.73127 2.06377,-3.209249 0,-1.477982 -0.76412,-2.666224 -2.06377,-3.209251 -1.22165,-0.51044 -2.88734,-0.234503 -3.83315,0.635 -1.29636,1.191753 -1.36638,3.67459 -0.14123,5.00728 0.87889,0.95602 2.69509,1.31074 3.97438,0.77622 z m 19.304,-0.33866 c 1.29965,-0.54303 2.06377,-1.73127 2.06377,-3.209256 0,-1.477982 -0.76412,-2.666224 -2.06377,-3.209251 -1.22165,-0.51044 -2.88734,-0.234503 -3.83316,0.635 -1.29635,1.191753 -1.36637,3.674591 -0.14122,5.007277 0.87889,0.95603 2.69509,1.31075 3.97438,0.77623 z m 20.32,-0.84667 c 1.29964,-0.54303 2.06377,-1.731271 2.06377,-3.209252 0,-1.477982 -0.76413,-2.666225 -2.06377,-3.209251 -1.22165,-0.51044 -2.88734,-0.234503 -3.83316,0.635 -1.29635,1.191752 -1.36638,3.67459 -0.14122,5.007273 0.87889,0.95603 2.69509,1.31075 3.97438,0.77623 z m 9.90279,-4.394586 c 0.40783,-0.771599 1.47223,-1.719725 2.38074,-2.120656 0.44788,-0.197652 0.79078,-0.419719 0.762,-0.493481 -0.0288,-0.07376 -1.15723,-2.623944 -2.50766,-5.667068 -1.86923,-4.212211 -2.51597,-5.513051 -2.70933,-5.449567 -0.1397,0.04586 -0.66558,0.231593 -1.16862,0.412731 l -0.91461,0.329342 -1.65715,5.47835 -1.65714,5.478349 0.49743,1.000713 c 0.27358,0.550393 0.49742,1.140942 0.49742,1.312333 0,0.171393 0.019,0.31453 0.0423,0.318086 0.0233,0.0036 1.33774,0.254882 2.921,0.558502 l 2.87867,0.55204 0.18321,-0.600837 c 0.10076,-0.330461 0.30403,-0.829437 0.45171,-1.108837 z m -38.43327,1.439852 c 1.58895,-5.08e-4 1.8381,-0.03894 1.92171,-0.296852 0.0528,-0.162983 0.31741,-0.763417 0.58794,-1.334299 l 0.49187,-1.037966 -2.36935,-5.80402 c -1.30314,-3.192209 -2.39653,-5.831199 -2.42975,-5.864421 -0.0332,-0.03322 -0.41778,0.09769 -0.85458,0.290903 -0.53517,0.236733 -1.14922,0.351304 -1.88282,0.351304 -0.7336,0 -1.34765,-0.114571 -1.88282,-0.351304 -0.4368,-0.193216 -0.8195,-0.32599 -0.85044,-0.295051 -0.0914,0.09137 -4.12474,10.159965 -4.12474,10.296687 0,0.06875 0.40051,0.308369 0.89003,0.532477 0.48952,0.224107 1.14881,0.666247 1.46509,0.982533 0.56138,0.561375 1.36526,2.037963 1.36856,2.51381 10e-4,0.19991 0.47243,0.220462 2.92265,0.127518 1.60655,-0.06094 3.74254,-0.111035 4.74665,-0.111319 z m 17.13968,-0.506764 c 2.2352,-0.183713 4.31165,-0.335463 4.61434,-0.337222 0.42239,-0.0025 0.55033,-0.07639 0.55033,-0.318003 0,-0.173142 0.2201,-0.751151 0.48911,-1.284465 l 0.4891,-0.96966 -1.17956,-2.271535 c -0.64875,-1.249345 -1.20206,-2.271536 -1.22958,-2.271536 -0.0275,0 -0.40531,0.157162 -0.83956,0.34925 -1.15254,0.509826 -2.71137,0.475363 -3.93996,-0.0871 -0.52421,-0.239994 -0.96878,-0.416208 -0.98792,-0.391583 -3.05268,3.926736 -4.31276,5.644645 -4.24659,5.789474 0.0457,0.100079 0.2583,0.61881 0.47238,1.152736 0.46848,1.168383 0.001,1.116911 5.80791,0.639647 z m -5.01575,-5.966194 2.06396,-2.662441 -0.34654,-0.679262 c -0.19059,-0.373595 -0.40295,-0.950788 -0.4719,-1.282653 l -0.12536,-0.603389 -6.41143,-2.879233 c -3.52629,-1.583578 -6.43873,-2.851934 -6.4721,-2.818567 -0.0334,0.03337 -0.28343,0.502303 -0.5557,1.04208 l -0.49504,0.981412 2.38283,5.866914 c 1.31056,3.226801 2.39585,5.886887 2.41177,5.911299 0.0159,0.02441 0.38631,-0.1137 0.82311,-0.306916 1.13613,-0.502563 2.71392,-0.477754 3.87385,0.06092 0.65389,0.303667 0.93648,0.362194 1.07312,0.22225 0.10201,-0.104484 1.11426,-1.388068 2.24943,-2.85241 z m 13.12824,1.720523 c 1.05318,-0.46587 2.69231,-0.47068 3.73161,-0.01096 0.42063,0.186065 0.79561,0.286079 0.83329,0.22225 0.13823,-0.234135 3.01347,-9.88128 2.9583,-9.925791 -0.0314,-0.0253 -0.47658,-0.235084 -0.98938,-0.466185 -1.17005,-0.527302 -1.97054,-1.319804 -2.49896,-2.47403 -0.22628,-0.494275 -0.46121,-0.874815 -0.52205,-0.845642 -0.46988,0.225291 -6.3857,3.228294 -6.42035,3.259112 -0.0244,0.02172 0.11566,0.401296 0.31128,0.843515 0.55554,1.255903 0.49538,2.899425 -0.1541,4.209798 l -0.50976,1.028469 0.42949,0.857352 c 0.63822,1.27403 1.93495,3.651351 1.99167,3.651351 0.0272,0 0.40471,-0.157163 0.83896,-0.34925 z m -5.48782,-4.282683 c 0.4344,-0.221793 0.9804,-0.69922 1.27,-1.110483 0.45974,-0.652885 0.508,-0.847351 0.508,-2.046917 0,-1.199565 -0.0483,-1.394031 -0.508,-2.046916 -1.39931,-1.98719 -4.35803,-1.98719 -5.75733,0 -0.45974,0.652885 -0.508,0.847351 -0.508,2.046916 0,1.199566 0.0483,1.394032 0.508,2.046917 1.00935,1.43341 2.92592,1.907704 4.48733,1.110483 z m -6.1164,-5.091622 c 0.44021,-1.06209 1.66948,-2.308056 2.61414,-2.64965 0.34298,-0.124022 0.62359,-0.285667 0.62359,-0.359211 0,-0.07354 -0.51304,-1.163136 -1.14009,-2.421316 -0.8975,-1.800839 -1.21277,-2.287952 -1.48167,-2.289254 -0.56473,-0.0027 -2.00376,-0.755258 -2.61706,-1.368556 -0.31629,-0.316284 -0.75843,-0.975576 -0.98253,-1.465093 -0.22411,-0.489517 -0.44268,-0.89003 -0.48571,-0.89003 -0.0895,0 -10.45647,4.244687 -10.52561,4.309644 -0.0249,0.02343 0.10674,0.377792 0.29261,0.787476 0.18588,0.409684 0.33963,0.902387 0.34168,1.094897 0.003,0.295662 0.9964,0.799098 6.39605,3.241846 3.51578,1.590507 6.43546,2.899848 6.48818,2.909649 0.0527,0.0098 0.2671,-0.39538 0.47642,-0.900402 z M 128.02896,82.8027 c 0.83675,-0.349618 1.37282,-0.865513 1.75115,-1.685251 0.6021,-1.304569 0.27204,-3.187867 -0.71825,-4.098252 -1.28264,-1.179144 -3.58342,-1.179144 -4.86606,0 -1.29635,1.191754 -1.36638,3.674592 -0.14122,5.007279 0.87888,0.956027 2.69509,1.310744 3.97438,0.776224 z m 38.26933,-0.846667 c 0.83675,-0.349618 1.37282,-0.865513 1.75116,-1.685251 0.60209,-1.304569 0.27203,-3.187866 -0.71826,-4.098251 -1.28264,-1.179144 -3.58342,-1.179144 -4.86606,0 -1.29635,1.191753 -1.36638,3.674591 -0.14122,5.007278 0.87889,0.956027 2.69509,1.310745 3.97438,0.776224 z m -9.99667,-1.810889 c 2.99428,-1.516201 3.76614,-1.975674 3.77138,-2.245029 0.004,-0.186266 0.15868,-0.673862 0.34455,-1.083546 0.18588,-0.409684 0.30477,-0.778074 0.2642,-0.818645 -0.0406,-0.04057 -2.19458,-0.856511 -4.78668,-1.813199 l -4.71291,-1.739432 -0.43614,0.949411 c -0.54368,1.183522 -1.33687,1.989006 -2.46905,2.507335 l -0.87525,0.400701 1.01953,2.153355 c 1.17767,2.487376 1.23782,2.576687 1.73528,2.576687 0.20473,0 0.78595,0.217849 1.2916,0.484108 0.50565,0.26626 0.95746,0.495473 1.00403,0.509363 0.0466,0.01389 1.77882,-0.83261 3.84946,-1.881109 z m -8.63,-5.470444 c 0.83676,-0.349618 1.37283,-0.865512 1.75116,-1.685251 0.6021,-1.304569 0.27203,-3.187866 -0.71826,-4.098251 -1.28264,-1.179144 -3.58342,-1.179144 -4.86605,0 -1.29636,1.191753 -1.36638,3.674591 -0.14123,5.007278 0.87889,0.956027 2.69509,1.310745 3.97438,0.776224 z"
         id="path290" /></g></g></svg>
