<?xml version="1.0" encoding="UTF-8" standalone="no"?>
<!-- Created with Inkscape (http://www.inkscape.org/) -->

<svg
   width="122.60207mm"
   height="122.58425mm"
   viewBox="0 0 122.60207 122.58425"
   version="1.1"
   id="svg5"
   xml:space="preserve"
   inkscape:version="1.2.1 (9c6d41e410, 2022-07-14)"
   sodipodi:docname="edit.svg"
   xmlns:inkscape="http://www.inkscape.org/namespaces/inkscape"
   xmlns:sodipodi="http://sodipodi.sourceforge.net/DTD/sodipodi-0.dtd"
   xmlns="http://www.w3.org/2000/svg"
   xmlns:svg="http://www.w3.org/2000/svg"><sodipodi:namedview
     id="namedview7"
     pagecolor="#ffffff"
     bordercolor="#111111"
     borderopacity="1"
     inkscape:showpageshadow="0"
     inkscape:pageopacity="0"
     inkscape:pagecheckerboard="1"
     inkscape:deskcolor="#d1d1d1"
     inkscape:document-units="mm"
     showgrid="false"
     inkscape:zoom="0.65299523"
     inkscape:cx="-153.14048"
     inkscape:cy="255.74459"
     inkscape:window-width="1536"
     inkscape:window-height="793"
     inkscape:window-x="-8"
     inkscape:window-y="-8"
     inkscape:window-maximized="1"
     inkscape:current-layer="g305" /><defs
     id="defs2" /><g
     inkscape:label="Capa 1"
     inkscape:groupmode="layer"
     id="layer1"
     transform="translate(-31.130953,-43.286474)"><g
       id="g194"
       transform="translate(55.105047,-19.448841)"><path
         style="fill:#e8c8c8;stroke-width:0.264583"
         d="m 102.56244,171.20048 12.10468,-12.17011 12.10469,12.17011 12.10469,12.1701 -12.10469,-12.03708 -12.10469,-12.03709 -12.10468,12.03709 -12.104692,12.03708 z M 92.441398,161.21246 104.47848,149.10777 92.441398,137.00309 80.404312,124.8984 l 12.170105,12.10469 12.170113,12.10468 -12.170113,12.10469 -12.170105,12.10469 z m 44.185772,-0.0665 -12.03672,-12.03891 12.16974,-12.10432 12.16974,-12.10432 -12.03708,12.10469 -12.03709,12.10468 12.03636,12.03854 c 6.62,6.6212 11.97683,12.03855 11.90407,12.03855 -0.0728,0 -5.54882,-5.41751 -12.16902,-12.03891 z m -34.13197,-34.19703 -12.037452,-12.10469 12.104692,12.03745 12.10468,12.03746 12.10469,-12.03746 12.10469,-12.03745 -12.03746,12.10469 c -6.62059,6.65758 -12.09796,12.10469 -12.17192,12.10469 -0.074,0 -5.55132,-5.44711 -12.17192,-12.10469 z"
         id="path204" /><path
         style="fill:#f4aeae;stroke-width:0.264583"
         d="m 142.66334,184.91037 c 0.191,-0.0764 0.41921,-0.067 0.50712,0.0209 0.0879,0.0879 -0.0683,0.15045 -0.34726,0.13897 -0.30823,-0.0127 -0.37092,-0.0754 -0.15986,-0.15986 z M 86.307097,113.20829 c 0.190995,-0.0764 0.419198,-0.067 0.507119,0.0209 0.08792,0.0879 -0.06835,0.15045 -0.347265,0.13897 -0.308227,-0.0127 -0.37092,-0.0754 -0.159854,-0.15986 z m 56.356243,0 c 0.191,-0.0764 0.41921,-0.067 0.50712,0.0209 0.0879,0.0879 -0.0683,0.15045 -0.34726,0.13897 -0.30823,-0.0127 -0.37092,-0.0754 -0.15986,-0.15986 z"
         id="path202" /><g
         id="g305"
         transform="matrix(2.2951634,0,0,2.2951634,-62.504206,-400.06811)"><path
           style="fill:#eed6a5;stroke-width:0.264583"
           d="m 29.967866,248.77572 c -0.646144,-0.65212 -0.737526,-0.7029 -1.676796,-1.42787 -0.724223,-0.34138 -1.049501,-0.52239 -1.602912,-0.75464 -0.915421,-0.38416 -1.357024,-0.48021 -1.917949,-0.56131 l -0.99386,-0.2158 1.259839,-11.52644 c 8.307846,5.87009 8.549055,6.08173 16.215803,10.6117 -4.54121,2.77293 -5.549388,3.1286 -9.892662,5.60182 -0.626501,-0.9964 -0.684699,-0.98859 -1.391463,-1.72746 z"
           id="path319"
           sodipodi:nodetypes="ccscccccc" /><path
           style="fill:#aeaead;stroke-width:0.264583"
           d="m 42.462374,209.51382 c 0.757132,-0.9346 1.00102,-1.2406 1.546384,-2.14592 5.793858,4.27611 9.534516,6.80818 15.758836,11.1538 -0.63302,0.96203 -0.934345,1.17167 -1.626646,1.9982 -8.047872,-5.72071 -8.843077,-6.27564 -15.678574,-11.00608 z"
           id="path315"
           sodipodi:nodetypes="ccccc" /><path
           style="fill:#e7b128;stroke-width:0.264583"
           d="m 42.317259,243.84444 c -7.934159,-5.20602 -9.313017,-5.96476 -16.451786,-10.84109 8.006879,-11.80259 7.10697,-10.48625 15.79108,-22.5129 4.805409,3.21545 10.79514,7.61502 15.833664,10.85318 -8.316834,12.02908 -4.969923,7.40526 -15.172958,22.50081 z"
           id="path311"
           sodipodi:nodetypes="ccccc" /><path
           style="fill:#9e1a1a;stroke-width:0.264583"
           d="m 44.348341,206.66907 1.455457,-2.04846 c 0.800503,-1.12665 1.770738,-2.25504 2.156079,-2.50753 1.194414,-0.78261 2.510349,-0.59374 4.236567,0.60804 0.843021,0.5869 3.63665,2.53096 6.208067,4.32013 3.336512,2.32152 4.766802,3.47394 4.994846,4.02449 0.347121,0.83802 0.372815,1.79972 -0.2712,2.8332 -1.810471,2.41582 -1.644478,2.25846 -2.931576,4.08665 -5.178354,-4.1325 -8.043677,-6.15207 -15.84824,-11.31652 z"
           id="path309"
           sodipodi:nodetypes="csssssccc" /><path
           style="fill:#e6e6e6;stroke-width:0.264583"
           d="m 22.763552,254.09563 c 0.181025,-1.05993 0.935449,-7.33683 0.935449,-7.78305 0,-0.44564 2.392373,0.27295 3.958202,1.18891 1.333175,0.77987 3.450132,2.71613 3.450132,3.15564 0,0.31718 -7.52203,4.29839 -8.121299,4.29839 -0.270435,0 -0.330016,-0.23028 -0.222484,-0.85989 z"
           id="path307"
           sodipodi:nodetypes="ssssss" /></g></g></g></svg>
