<?xml version="1.0" encoding="UTF-8" standalone="no"?>
<!-- Created with Inkscape (http://www.inkscape.org/) -->

<svg
   width="122.60207mm"
   height="122.58425mm"
   viewBox="0 0 122.60207 122.58425"
   version="1.1"
   id="svg5"
   xml:space="preserve"
   inkscape:version="1.2.1 (9c6d41e410, 2022-07-14)"
   sodipodi:docname="exiti_2.svg"
   xmlns:inkscape="http://www.inkscape.org/namespaces/inkscape"
   xmlns:sodipodi="http://sodipodi.sourceforge.net/DTD/sodipodi-0.dtd"
   xmlns="http://www.w3.org/2000/svg"
   xmlns:svg="http://www.w3.org/2000/svg"><sodipodi:namedview
     id="namedview7"
     pagecolor="#ffffff"
     bordercolor="#111111"
     borderopacity="1"
     inkscape:showpageshadow="0"
     inkscape:pageopacity="0"
     inkscape:pagecheckerboard="1"
     inkscape:deskcolor="#d1d1d1"
     inkscape:document-units="mm"
     showgrid="false"
     inkscape:zoom="0.65299523"
     inkscape:cx="75.038833"
     inkscape:cy="398.16524"
     inkscape:window-width="1920"
     inkscape:window-height="1009"
     inkscape:window-x="1912"
     inkscape:window-y="-8"
     inkscape:window-maximized="1"
     inkscape:current-layer="g194" /><defs
     id="defs2" /><g
     inkscape:label="Capa 1"
     inkscape:groupmode="layer"
     id="layer1"
     transform="translate(-31.130953,-43.286474)"><g
       id="g194"
       transform="translate(55.105047,-19.448841)"><path
         id="rect359-1"
         style="fill:#e29632;fill-opacity:1;fill-rule:evenodd;stroke-width:0.102563;stroke-linecap:round;stroke-linejoin:bevel"
         d="M -6.105934 62.735315 C -16.004894 62.735315 -23.974094 70.704515 -23.974094 80.603475 L -23.974094 167.45089 C -23.974094 177.34985 -16.004894 185.31956 -6.105934 185.31956 L 80.759565 185.31956 C 90.658525 185.31956 98.627725 177.34985 98.627725 167.45089 L 98.627725 80.603475 C 98.627725 70.704515 90.658525 62.735315 80.759565 62.735315 L -6.105934 62.735315 z M 65.30056 88.004574 C 65.657707 88.003961 66.038158 88.031739 66.476716 88.060384 C 70.577088 88.328214 73.244013 91.118071 73.252013 95.146773 C 73.258173 98.430437 73.294709 98.385021 59.823375 111.88167 L 47.741425 123.98636 L 59.823375 136.09104 C 73.2908 149.5838 73.255113 149.53958 73.255113 152.82594 C 73.255113 155.66443 71.808122 158.00347 69.221768 159.34596 C 68.750788 159.59043 67.515514 159.84545 66.476716 159.91285 C 62.967632 160.1405 63.170597 160.29944 49.381635 146.53433 L 37.276948 134.45083 L 25.17226 146.53278 C 15.003187 156.68277 12.834874 158.72257 11.612364 159.28963 C 6.709304 161.56388 1.3119326 158.18023 1.3018826 152.82594 C 1.2957226 149.54228 1.259187 149.5877 14.73052 136.09104 L 26.81247 123.98636 L 14.73052 111.88167 C 1.2591873 98.385017 1.2956826 98.430437 1.3018826 95.146773 C 1.3094386 91.118071 3.9768158 88.328214 8.0771796 88.060384 C 8.5157386 88.031744 8.8961871 88.004483 9.2533352 88.00509 C 11.753372 88.009339 13.106145 89.393153 25.17226 101.43838 L 37.276948 113.52188 L 49.381635 101.43838 C 61.447747 89.393153 62.800532 88.00886 65.30056 88.004574 z " /></g></g></svg>
