<?xml version="1.0" encoding="UTF-8" standalone="no"?>
<!-- Created with Inkscape (http://www.inkscape.org/) -->

<svg
   width="122.60207mm"
   height="122.58425mm"
   viewBox="0 0 122.60207 122.58425"
   version="1.1"
   id="svg5"
   xml:space="preserve"
   inkscape:version="1.2.1 (9c6d41e410, 2022-07-14)"
   sodipodi:docname="ok.svg"
   xmlns:inkscape="http://www.inkscape.org/namespaces/inkscape"
   xmlns:sodipodi="http://sodipodi.sourceforge.net/DTD/sodipodi-0.dtd"
   xmlns="http://www.w3.org/2000/svg"
   xmlns:svg="http://www.w3.org/2000/svg"><sodipodi:namedview
     id="namedview7"
     pagecolor="#ffffff"
     bordercolor="#111111"
     borderopacity="1"
     inkscape:showpageshadow="0"
     inkscape:pageopacity="0"
     inkscape:pagecheckerboard="1"
     inkscape:deskcolor="#d1d1d1"
     inkscape:document-units="mm"
     showgrid="false"
     inkscape:zoom="0.92347471"
     inkscape:cx="66.054868"
     inkscape:cy="163.51287"
     inkscape:window-width="1536"
     inkscape:window-height="793"
     inkscape:window-x="-8"
     inkscape:window-y="-8"
     inkscape:window-maximized="1"
     inkscape:current-layer="g305" /><defs
     id="defs2" /><g
     inkscape:label="Capa 1"
     inkscape:groupmode="layer"
     id="layer1"
     transform="translate(-31.130953,-43.286474)"><g
       id="g194"
       transform="translate(55.105047,-19.448841)"><g
         id="g305"
         transform="matrix(2.2951634,0,0,2.2951634,-62.504206,-400.06811)"><path
           style="fill:#77aca2;fill-opacity:1;stroke-width:0.106103"
           d="m 25.130754,255.0282 c -0.08754,-0.0177 -0.51549,-0.0904 -0.951012,-0.16155 -3.492911,-0.57053 -6.508795,-3.57449 -7.239451,-7.21084 -0.203688,-1.01373 -0.203688,-37.60756 0,-38.62128 0.723637,-3.60142 3.615537,-6.51056 7.18249,-7.22529 1.10675,-0.22178 37.620628,-0.22178 38.727378,0 3.002404,0.60161 5.642026,2.83496 6.739509,5.70221 0.605408,1.58168 0.567494,0.29948 0.604837,20.45518 0.03019,16.29424 0.01454,18.67573 -0.128129,19.50247 -0.609455,3.53161 -3.15292,6.31623 -6.685705,7.31958 l -0.848819,0.24107 -18.620972,0.0153 c -10.241535,0.008 -18.692592,8.5e-4 -18.780126,-0.0168 z M 38.09655,244.03409 c 1.429474,-0.30592 0.790739,0.28221 13.628933,-12.54916 13.026659,-13.01972 12.411735,-12.3459 12.657129,-13.86965 0.366556,-2.27611 -1.207091,-4.53695 -3.464069,-4.9768 -0.993717,-0.19366 -1.914868,-0.0588 -2.807949,0.41108 -0.668765,0.35187 -1.678532,1.32936 -10.785088,10.44032 l -10.047241,10.0521 -3.864707,-3.86517 c -3.987775,-3.98825 -4.336659,-4.2811 -5.455195,-4.57892 -2.550408,-0.67907 -5.194022,1.23372 -5.446839,3.94108 -0.07112,0.76159 0.08989,1.56033 0.469674,2.33011 0.20073,0.40685 1.551458,1.82402 5.794578,6.07958 3.04306,3.05199 5.795439,5.725 6.116399,5.94004 0.584476,0.39159 1.665225,0.74813 2.302505,0.75961 0.186786,0.004 0.592628,-0.048 0.90187,-0.11422 z"
           id="path320"
           sodipodi:nodetypes="scssssssssccsscssssscsssssscc" /></g></g></g></svg>
