<?xml version="1.0" encoding="UTF-8" standalone="no"?>
<!-- Created with Inkscape (http://www.inkscape.org/) -->

<svg
   width="101.717mm"
   height="101.717mm"
   viewBox="0 0 101.717 101.717"
   version="1.1"
   id="svg5"
   xml:space="preserve"
   sodipodi:docname="label_not.svg"
   inkscape:version="1.2.1 (9c6d41e410, 2022-07-14)"
   xmlns:inkscape="http://www.inkscape.org/namespaces/inkscape"
   xmlns:sodipodi="http://sodipodi.sourceforge.net/DTD/sodipodi-0.dtd"
   xmlns="http://www.w3.org/2000/svg"
   xmlns:svg="http://www.w3.org/2000/svg"><sodipodi:namedview
     id="namedview7"
     pagecolor="#505050"
     bordercolor="#ffffff"
     borderopacity="1"
     inkscape:showpageshadow="0"
     inkscape:pageopacity="0"
     inkscape:pagecheckerboard="1"
     inkscape:deskcolor="#505050"
     inkscape:document-units="mm"
     showgrid="false"
     inkscape:zoom="0.71624579"
     inkscape:cx="160.55941"
     inkscape:cy="-5.5846751"
     inkscape:window-width="1536"
     inkscape:window-height="793"
     inkscape:window-x="-8"
     inkscape:window-y="-8"
     inkscape:window-maximized="1"
     inkscape:current-layer="g300" /><defs
     id="defs2" /><g
     inkscape:label="Capa 1"
     inkscape:groupmode="layer"
     id="layer1"
     transform="translate(10.755335,-7.7050281)"><g
       id="g300"><path
         style="fill:#c8cc8e;stroke-width:0.189179;fill-opacity:1"
         d="m 60.763308,62.677065 c 0.163158,0.09468 0.339784,0.275805 0.392482,0.402522 0.05271,0.126702 -0.08079,0.04924 -0.296659,-0.172137 -0.215867,-0.221383 -0.259001,-0.325045 -0.09584,-0.230364 z m 2.051964,1.056752 c 0.02804,-0.02804 0.238741,-0.03005 0.468216,-0.0045 0.378139,0.04217 0.37805,0.05163 -9.62e-4,0.101017 -0.398056,0.05187 -0.578405,0.0146 -0.467252,-0.09655 z m -1.911978,-5.456382 c 0.225522,-0.220148 0.330045,-0.265245 0.232232,-0.100257 -0.09781,0.164996 -0.282332,0.345109 -0.410104,0.400204 -0.127729,0.05514 -0.04771,-0.07985 0.17783,-0.299989 z m 1.9732,-0.964858 c 0.02804,-0.02804 0.23874,-0.03005 0.468215,-0.0045 0.37814,0.04217 0.378049,0.05163 -9.61e-4,0.101018 -0.398056,0.05187 -0.578405,0.0146 -0.467252,-0.09655 z"
         id="path314" /><path
         style="fill:#c8cc8e;stroke-width:0.189179;fill-opacity:1"
         d="m -2.6555108,27.974303 c 0.028044,-0.02804 0.2387405,-0.03005 0.4682157,-0.0045 0.378139,0.04217 0.378049,0.05163 -9.631e-4,0.101016 -0.3980562,0.05187 -0.5784045,0.0146 -0.4672516,-0.09655 z M 65.408308,62.782449 c 0.225522,-0.220148 0.330045,-0.265246 0.232238,-0.10025 -0.09781,0.164995 -0.282338,0.345101 -0.410103,0.400204 -0.12773,0.05514 -0.04771,-0.07985 0.177829,-0.29999 z m 0.949144,-2.359613 c 0.04939,-0.379013 0.05885,-0.379103 0.101017,-9.62e-4 0.04429,0.397141 0.0036,0.578233 -0.105481,0.469179 -0.02751,-0.02751 -0.02551,-0.238211 0.0045,-0.468215 z"
         id="path310" /><path
         style="fill:#c8cc8e;stroke-width:0.189179;fill-opacity:1"
         d="m 54.188164,60.543213 0.05145,-0.556278 0.04085,0.555398 c 0.02247,0.305467 0.01989,0.576363 -0.0057,0.60199 -0.108075,0.108075 -0.134919,-0.07835 -0.08657,-0.60111 z m 14.790002,6.619402 c 0.225522,-0.220148 0.330045,-0.265246 0.232232,-0.100258 -0.09781,0.164996 -0.282332,0.345109 -0.410104,0.400204 -0.12773,0.05514 -0.04771,-0.07985 0.17783,-0.299989 z m 0.737833,-0.747733 c 0.185695,-0.185695 0.291734,-0.231588 0.235642,-0.101985 -0.05609,0.129604 -0.208025,0.281536 -0.337628,0.337629 -0.129603,0.05609 -0.08371,-0.04995 0.101986,-0.235644 z M 68.936135,53.571625 c 0.128556,0.05363 0.277619,0.202695 0.33125,0.331251 0.05363,0.128557 -0.05155,0.08468 -0.233741,-0.09751 -0.182187,-0.182187 -0.226066,-0.287372 -0.09751,-0.233741 z m 0.867946,0.859603 c 0.163156,0.09468 0.339784,0.275805 0.39248,0.402521 0.05271,0.126703 -0.08078,0.04924 -0.296651,-0.172144 -0.215868,-0.221383 -0.259,-0.325044 -0.09584,-0.230363 z m 17.689941,5.790032 c 0.04939,-0.379012 0.05885,-0.379102 0.101017,-9.62e-4 0.04429,0.39714 0.0036,0.578231 -0.10548,0.469177 -0.02751,-0.02751 -0.02551,-0.23821 0.0045,-0.468215 z"
         id="path308" /><path
         style="fill:#c8cc8e;stroke-width:0.189179;fill-opacity:1"
         d="M -6.6675285,61.135833 -6.4128295,37.95914 -6.60006,61.13519 c -0.102978,12.746828 -0.2025563,23.191375 -0.2212877,23.210106 -0.018738,0.01874 -0.049116,0.01905 -0.067493,6.72e-4 -0.018378,-0.01838 0.081201,-10.462924 0.2212856,-23.210105 z M 29.557052,88.379512 c 17.65818,-0.168584 32.135596,-0.276704 32.172034,-0.240267 0.03644,0.03644 -14.381353,0.204183 -32.039533,0.372767 -17.658182,0.168585 -32.135589,0.276704 -32.1720269,0.240266 -0.036437,-0.03644 14.3813449,-0.204181 32.0395259,-0.372766 z m 0.3917,-55.114364 c 17.731759,-0.169285 32.269375,-0.277978 32.305812,-0.241541 0.03644,0.03644 -14.441552,0.204757 -32.173312,0.374041 -17.731758,0.169285 -32.2693676,0.277978 -32.3058052,0.24154 -0.036437,-0.03644 14.4415462,-0.204756 32.1733052,-0.37404 z m 26.292599,33.001329 c 0.128557,0.05363 0.27762,0.202694 0.331251,0.33125 0.05363,0.128557 -0.05155,0.08468 -0.233741,-0.09751 -0.182188,-0.182187 -0.226067,-0.287372 -0.09751,-0.23374 z m 0.938613,0.932955 c 0.134659,0.05664 0.244147,0.175714 0.243303,0.264616 -8.41e-4,0.0889 -0.111026,0.04256 -0.244838,-0.102975 -0.147851,-0.160862 -0.147272,-0.224234 0.0015,-0.161646 z M 56.519029,54.680937 c 0.163691,-0.150963 0.227081,-0.151576 0.161644,-0.0015 -0.05921,0.135765 -0.180405,0.247537 -0.269299,0.248397 -0.08891,8.48e-4 -0.04046,-0.110234 0.107661,-0.246848 z m 0.74199,-0.721074 c 0.185696,-0.185695 0.291735,-0.231588 0.235643,-0.101985 -0.05609,0.129603 -0.208025,0.281536 -0.337629,0.337629 -0.129603,0.05609 -0.08371,-0.04995 0.101986,-0.235644 z"
         id="path306" /><path
         style="fill:#c8cc8e;stroke-width:0.189179;fill-opacity:1"
         d="m -10.070927,90.708635 c 0.1285707,0.05362 0.2776337,0.20268 0.3312507,0.331251 0.05362,0.128571 -0.05153,0.08465 -0.233719,-0.09753 -0.1821887,-0.182188 -0.2260317,-0.287408 -0.09753,-0.233721 z m 0.927503,0.927503 c 0.1285702,0.05362 0.2776334,0.20268 0.3312505,0.331251 0.053618,0.128571 -0.051534,0.08465 -0.2337194,-0.09753 C -9.228081,91.68767 -9.2719244,91.58245 -9.143424,91.636138 Z m 39.182012,2.356857 c 18.099646,-0.172788 32.93826,-0.284347 32.974698,-0.247909 0.03644,0.03644 -14.742552,0.207622 -32.842198,0.38041 -18.099647,0.172787 -32.9382551,0.284346 -32.9746931,0.247908 -0.036437,-0.03644 14.7425461,-0.207622 32.8421931,-0.380409 z m -42.324703,-32.803594 0.254699,-23.176692 -0.18723,23.17605 c -0.102978,12.746827 -0.202558,23.191375 -0.221289,23.210107 -0.01874,0.01874 -0.04912,0.01905 -0.06749,6.71e-4 -0.01838,-0.01838 0.0812,-10.462924 0.221287,-23.210106 z m 2.8785828,-29.601244 c 0.1856955,-0.185695 0.291736,-0.231588 0.2356462,-0.101983 -0.056091,0.129605 -0.2080231,0.281538 -0.3376283,0.337628 -0.129605,0.05609 -0.08371,-0.04995 0.1019821,-0.235645 z m 0.9453593,-0.945359 c 0.1856955,-0.185696 0.2917353,-0.231588 0.2356455,-0.101983 -0.05609,0.129606 -0.2080231,0.281538 -0.3376286,0.337629 -0.1296049,0.05609 -0.08371,-0.04995 0.1019831,-0.235646 z M 30.804975,27.638911 c 18.02607,-0.172087 32.804484,-0.283074 32.840922,-0.246636 0.03644,0.03644 -14.682352,0.207049 -32.708422,0.379135 -18.026069,0.172088 -32.8044777,0.283074 -32.8409152,0.246636 -0.036438,-0.03644 14.6823462,-0.207048 32.7084152,-0.379135 z m 25.977471,39.163035 c 0.13466,0.05664 0.244149,0.175715 0.243304,0.264616 -8.49e-4,0.08891 -0.111026,0.04256 -0.244839,-0.102975 -0.147851,-0.160862 -0.147271,-0.224232 0.0015,-0.161646 z m 15.200462,-6.425805 0.05017,-0.692613 0.03697,0.691782 c 0.02033,0.380481 0.01718,0.711576 -0.007,0.735767 -0.105918,0.105918 -0.127014,-0.08759 -0.08012,-0.734936 z m 18.527766,6.688281 c 0.16369,-0.150963 0.22708,-0.151576 0.16165,-0.0015 -0.0592,0.135766 -0.18041,0.247538 -0.269297,0.248397 -0.0889,8.49e-4 -0.0405,-0.110233 0.107657,-0.246848 z m 2.596818,-6.361569 c 0.0494,-0.379011 0.0589,-0.379102 0.101017,-9.61e-4 0.0443,0.397139 0.004,0.57823 -0.105477,0.469177 -0.0275,-0.02751 -0.0255,-0.23821 0.004,-0.468216 z m 0.0102,-1.070206 c 0.0494,-0.379012 0.0589,-0.379102 0.101017,-9.62e-4 0.0443,0.397141 0.004,0.578232 -0.105477,0.469179 -0.0275,-0.02751 -0.0255,-0.238211 0.004,-0.468215 z m -2.498758,-6.26214 c 0.13466,0.05664 0.24415,0.175714 0.24329,0.264623 -8.4e-4,0.08891 -0.11102,0.04256 -0.24483,-0.102976 -0.147847,-0.160861 -0.147277,-0.224233 0.002,-0.161647 z"
         id="path304" /><path
         style="fill:#c8cc8e;fill-opacity:1;stroke-width:0.189179"
         d="m -9.9700453,90.806505 c -0.8349827,-1.037103 -1.5380947,-2.28644 -1.9563527,-3.476165 -0.414752,-1.179756 -0.430623,-3.115041 -0.213626,-26.043447 0.217228,-22.952163 0.269141,-24.863047 0.707738,-26.051337 0.641014,-1.736699 1.374737,-2.85024 2.799844,-4.249206 1.3678384,-1.342747 3.0455104,-2.274728 4.8039695,-2.668699 0.5748186,-0.128785 16.1829445,-0.372054 34.6847305,-0.540596 l 33.639613,-0.30644 0.814474,0.64303 c 0.447964,0.353664 6.518665,6.386874 13.490446,13.407135 l 12.67596,12.764105 0.570717,1.170906 c 1.440541,2.955515 1.404881,6.696354 -0.0923,9.679877 L 91.362021,66.317671 78.440343,79.325823 C 71.333427,86.480309 65.146767,92.630581 64.692176,92.993051 l -0.826495,0.659071 -34.014536,0.311375 C -1.8430033,94.253631 -4.2502466,94.244229 -5.436706,93.825688 -7.1680576,93.214917 -9.0286826,91.975754 -9.9700453,90.806505 Z m 6.1607286,-2.318217 c 0.6785325,0.252387 7.9544543,0.257179 33.1694807,0.02186 L 61.660449,88.20871 74.287161,75.579311 86.913872,62.949914 87.275931,61.96146 c 0.435211,-1.187943 0.436836,-2.178725 0.0056,-3.348871 C 86.965865,57.756128 86.74874,57.529501 74.573809,45.348739 L 62.187197,32.956233 29.886787,33.2707 c -25.2150897,0.245528 -32.4924228,0.389075 -33.1758961,0.654444 -1.1671992,0.453184 -2.3831261,1.669265 -2.8358911,2.836262 -0.4936762,1.272424 -0.9515104,47.376909 -0.4847563,48.815596 0.411225,1.267531 1.5422211,2.443287 2.8004313,2.911305 z M 55.376297,64.945274 c -1.184147,-2.389235 -1.338022,-4.864489 -0.4542,-7.306319 0.548855,-1.516375 0.586577,-1.571084 2.186319,-3.170827 1.615424,-1.615424 1.639709,-1.63193 3.184418,-2.167673 4.123163,-1.429958 8.426115,0.103215 10.547544,3.758164 0.806387,1.389301 1.086903,2.441042 1.111221,4.166314 0.0361,2.561197 -0.835957,4.748543 -2.59411,6.506696 -2.457739,2.457739 -5.891623,3.264739 -9.219154,2.166601 -1.459826,-0.481766 -1.619997,-0.582743 -2.976807,-1.87669 -0.912958,-0.87066 -1.561592,-1.625034 -1.785231,-2.076266 z m 7.049271,-1.142014 c 2.746319,0.383442 4.809233,-2.159282 3.734747,-4.603407 -1.124597,-2.558112 -4.797772,-2.540931 -5.9772,0.02796 -0.313234,0.682248 -0.355866,1.860718 -0.09386,2.59451 0.289126,0.80975 1.539157,1.869638 2.336315,1.980937 z"
         id="path302" /></g></g></svg>
