<?xml version="1.0" encoding="UTF-8" standalone="no"?>
<!-- Created with Inkscape (http://www.inkscape.org/) -->

<svg
   width="151.717mm"
   height="151.717mm"
   viewBox="0 0 151.71699 151.717"
   version="1.1"
   id="svg5"
   xml:space="preserve"
   inkscape:version="1.2.1 (9c6d41e410, 2022-07-14)"
   sodipodi:docname="select.svg"
   xmlns:inkscape="http://www.inkscape.org/namespaces/inkscape"
   xmlns:sodipodi="http://sodipodi.sourceforge.net/DTD/sodipodi-0.dtd"
   xmlns="http://www.w3.org/2000/svg"
   xmlns:svg="http://www.w3.org/2000/svg"><sodipodi:namedview
     id="namedview7"
     pagecolor="#505050"
     bordercolor="#ffffff"
     borderopacity="1"
     inkscape:showpageshadow="0"
     inkscape:pageopacity="0"
     inkscape:pagecheckerboard="1"
     inkscape:deskcolor="#505050"
     inkscape:document-units="mm"
     showgrid="false"
     inkscape:zoom="1.4324916"
     inkscape:cx="275.39429"
     inkscape:cy="306.80809"
     inkscape:window-width="2400"
     inkscape:window-height="1261"
     inkscape:window-x="2391"
     inkscape:window-y="-9"
     inkscape:window-maximized="1"
     inkscape:current-layer="g314" /><defs
     id="defs2" /><g
     inkscape:label="Capa 1"
     inkscape:groupmode="layer"
     id="layer1"
     transform="translate(-276.462,-0.90670706)"><g
       id="g314"
       transform="translate(-1.108213,24.011194)"><path
         style="fill:#dddddd;fill-opacity:1;stroke-width:0.264583"
         d="m 376.33884,123.4251 c -2.07575,-0.37178 -4.57019,-1.35964 -6.25191,-2.47591 -3.02823,-2.01001 -4.17961,-3.63372 -9.03492,-12.74123 -3.55185,-6.66251 -4.53446,-8.313336 -4.7625,-8.0012 -0.15802,0.2163 -1.29935,2.32907 -2.53628,4.69505 -2.63799,5.0459 -4.03336,6.65527 -7.01146,8.08674 -2.36159,1.13514 -3.97027,1.50313 -6.61458,1.5131 -3.61196,0.0136 -6.39622,-0.96222 -9.58525,-3.35947 -3.51369,-2.64128 -5.68635,-6.72056 -6.17414,-11.592206 -0.17493,-1.747081 -0.24091,-15.047611 -0.18602,-37.500007 0.0788,-32.220419 0.1193,-34.908265 0.54827,-36.355809 1.30078,-4.3895 4.26557,-8.001436 8.14376,-9.921342 4.43254,-2.194347 8.92169,-2.387369 13.23879,-0.569235 2.8192,1.187301 39.48582,28.494466 40.25182,29.977216 1.38852,2.68776 0.39717,5.87706 -2.25276,7.24739 -0.89125,0.46088 -3.17439,0.54434 -4.1723,0.15251 -0.36799,-0.14449 -8.64284,-6.20189 -18.38854,-13.4609 -9.74571,-7.258998 -18.12527,-13.484741 -18.62126,-13.834981 -1.07663,-0.760256 -3.22076,-1.014256 -4.63152,-0.548661 -1.33002,0.438946 -2.52116,1.505974 -3.09748,2.774746 -0.46339,1.020154 -0.48597,2.698975 -0.49152,36.542143 l -0.006,35.47286 0.72761,1.434866 c 0.92337,1.82093 2.42928,2.91844 4.24363,3.09278 2.6207,0.25182 2.53938,0.35278 7.83732,-9.730947 3.3138,-6.30727 4.99341,-9.23254 5.61381,-9.77726 2.357,-2.06948 6.01625,-1.45384 7.74444,1.30293 0.41541,0.66265 3.28827,5.96731 6.38413,11.78815 3.09586,5.820827 6.07966,11.357227 6.63065,12.303117 1.23042,2.11223 2.40639,2.9593 4.32978,3.11881 3.48073,0.28865 5.97027,-1.97595 5.96208,-5.42337 -0.004,-1.5109 -0.0966,-1.69689 -6.78646,-13.570437 -6.21848,-11.03691 -6.79302,-12.16279 -6.9053,-13.531859 -0.0674,-0.82132 0.0166,-1.91479 0.18664,-2.42994 0.39201,-1.18781 2.05751,-2.70473 3.36972,-3.06912 0.62859,-0.17454 4.72261,-0.28127 10.82503,-0.28218 9.76285,-0.002 9.8202,-0.005 10.98021,-0.61734 1.95512,-1.03256 3.19355,-3.6143 2.78314,-5.80197 -0.092,-0.49014 -0.69885,-1.70063 -1.34866,-2.68998 -1.37089,-2.08723 -1.66169,-3.244777 -1.22515,-4.876927 0.45332,-1.69492 1.2488,-2.65935 2.78252,-3.3735 1.49844,-0.69773 2.19258,-0.76364 3.68307,-0.34976 2.17484,0.60392 4.75566,3.92018 5.90817,7.591797 0.62069,1.97735 0.67445,2.48445 0.56109,5.29167 -0.10102,2.50123 -0.25828,3.44914 -0.80903,4.87652 -1.44391,3.74212 -4.09785,6.82881 -7.33321,8.528939 -2.94665,1.54842 -4.24272,1.78433 -10.61621,1.93232 l -5.72202,0.13287 2.25716,4.0035 c 7.37907,13.088177 7.62042,13.618567 7.91256,17.388857 0.5542,7.15225 -4.40226,14.12483 -11.52961,16.21944 -1.81431,0.5332 -5.05551,0.73173 -6.8115,0.41722 z"
         id="path316"
         sodipodi:nodetypes="cssssssssccssssscsssccsssssssscsccscccssssssssscssscc" /><path
         style="fill:#dddddd;fill-opacity:1;stroke:#dddddd;stroke-width:1.97386"
         id="path2488"
         sodipodi:type="arc"
         sodipodi:cx="320.94925"
         sodipodi:cy="-4.1060605"
         sodipodi:rx="14.013067"
         sodipodi:ry="14.013068"
         sodipodi:start="0"
         sodipodi:end="6.2787148"
         sodipodi:open="true"
         sodipodi:arc-type="arc"
         d="M 334.96232,-4.1060605 A 14.013067,14.013068 0 0 1 320.96491,9.9069989 14.013067,14.013068 0 0 1 306.93622,-4.0747378 14.013067,14.013068 0 0 1 320.90227,-18.11905 14.013067,14.013068 0 0 1 334.96218,-4.1687058" /></g></g></svg>
