<?xml version="1.0" encoding="UTF-8" standalone="no"?>
<!-- Created with Inkscape (http://www.inkscape.org/) -->

<svg
   width="149.31874mm"
   height="107.25mm"
   viewBox="0 0 149.31875 107.25"
   version="1.1"
   id="svg5"
   xml:space="preserve"
   inkscape:version="1.2.1 (9c6d41e410, 2022-07-14)"
   sodipodi:docname="graphics.svg"
   inkscape:export-filename="select.png"
   inkscape:export-xdpi="96"
   inkscape:export-ydpi="96"
   xmlns:inkscape="http://www.inkscape.org/namespaces/inkscape"
   xmlns:sodipodi="http://sodipodi.sourceforge.net/DTD/sodipodi-0.dtd"
   xmlns="http://www.w3.org/2000/svg"
   xmlns:svg="http://www.w3.org/2000/svg"><sodipodi:namedview
     id="namedview7"
     pagecolor="#ffffff"
     bordercolor="#999999"
     borderopacity="1"
     inkscape:showpageshadow="0"
     inkscape:pageopacity="0"
     inkscape:pagecheckerboard="0"
     inkscape:deskcolor="#d1d1d1"
     inkscape:document-units="mm"
     showgrid="false"
     inkscape:zoom="1"
     inkscape:cx="328"
     inkscape:cy="234"
     inkscape:window-width="1536"
     inkscape:window-height="793"
     inkscape:window-x="-8"
     inkscape:window-y="-8"
     inkscape:window-maximized="1"
     inkscape:current-layer="g1589"
     showguides="false"><inkscape:grid
       type="xygrid"
       id="grid6400"
       originx="391.26429"
       originy="196.66881" /></sodipodi:namedview><defs
     id="defs2" /><g
     inkscape:label="Capa 1"
     inkscape:groupmode="layer"
     id="layer1"
     transform="translate(61.139601,50.136773)"><g
       id="g380"
       transform="translate(323.28922,29.934187)" /><g
       id="g1589"
       transform="translate(-158.65119,-60.616727)"><path
         style="fill:#e9e2ad;stroke-width:0.295669"
         d="m 138.43798,88.769015 c -0.0416,-12.051497 0.0214,-21.911795 0.13988,-21.911773 0.11849,1.8e-5 0.21544,9.860334 0.21544,21.91181 0,12.051478 -0.0629,21.911758 -0.13989,21.911758 -0.077,0 -0.17389,-9.8603 -0.21543,-21.911795 z m 29.21798,-3.043264 c 0,-13.808984 0.0353,-19.458114 0.0782,-12.553622 0.043,6.904492 0.043,18.202749 0,25.10724 -0.043,6.904481 -0.0782,1.255363 -0.0782,-12.553618 z m 29.01297,-0.608661 c 0,-14.143746 0.0351,-19.929823 0.0781,-12.857952 0.0429,7.071874 0.0429,18.644029 0,25.715902 -0.0429,7.07187 -0.0781,1.285796 -0.0781,-12.85795 z m -94.81528,-5.858357 -0.54722,-0.684743 0.64633,0.579746 c 0.60739,0.544818 0.77709,0.78974 0.54721,0.78974 -0.0545,0 -0.34534,-0.308134 -0.64632,-0.684743 z m 53.52867,-21.428582 c 0.19749,-0.08442 0.52065,-0.08442 0.71815,0 0.19748,0.08443 0.0359,0.153501 -0.35907,0.153501 -0.39498,0 -0.55657,-0.06907 -0.35908,-0.153501 z M 219.7276,22.210295 c 0.35549,-0.07255 0.93718,-0.07255 1.29266,0 0.35547,0.07254 0.0646,0.131888 -0.64632,0.131888 -0.71097,0 -1.00181,-0.05935 -0.64634,-0.131888 z m 12.92652,-0.30433 c 0.35548,-0.07255 0.93717,-0.07255 1.29264,0 0.35548,0.07254 0.0646,0.131888 -0.64632,0.131888 -0.71096,0 -1.0018,-0.05935 -0.64632,-0.131888 z"
         id="path1603" /><path
         style="fill:#fdcd6b;stroke-width:0.295669"
         d="m 144.25686,87.323483 0.005,-23.357342 5.42614,-2.967219 c 2.98436,-1.631971 5.66405,-2.969109 5.95485,-2.971423 0.2908,-0.0024 3.08171,0.639597 6.20202,1.426457 l 5.6733,1.430656 v 24.898106 24.898092 h -11.63346 -11.63387 l 0.005,-23.357327 z"
         id="path1601" /><path
         style="fill:#7cb8e5;stroke-width:0.295669"
         d="M 202.27682,83.474823 V 56.268821 l 11.27479,-6.405919 c 6.20114,-3.523255 11.501,-6.4965 11.77749,-6.607209 0.47688,-0.190952 0.5027,1.535069 0.5027,33.611921 v 33.813196 h -11.77749 -11.77749 z"
         id="path1599" /><path
         style="fill:#a5cf79;stroke-width:0.295669"
         d="m 115.24492,95.083903 0.006,-15.596923 11.45886,-6.162686 c 6.3024,-3.389477 11.53469,-6.162686 11.6273,-6.162686 0.0926,0 0.16843,9.791824 0.16843,21.759608 v 21.759594 h -11.6341 -11.63385 z"
         id="path1597" /><path
         style="fill:#a0a0a0;stroke-width:0.295669"
         d="m 222.7438,22.201377 c 0.75045,-0.06269 1.97846,-0.06269 2.72893,0 0.75044,0.06269 0.13644,0.113987 -1.36447,0.113987 -1.50092,0 -2.11493,-0.05129 -1.36446,-0.113987 z m 12.9265,-0.304331 c 0.75046,-0.06269 1.97848,-0.06269 2.72892,0 0.75046,0.06269 0.13645,0.113986 -1.36446,0.113986 -1.50091,0 -2.11491,-0.05129 -1.36446,-0.113986 z"
         id="path1595" /><path
         style="fill:#ec6e61;stroke-width:0.295669"
         d="m 173.264,86.486576 c 0,-13.306838 0.0323,-24.189041 0.0718,-24.182671 0.0395,0.0064 2.91311,0.746658 6.38579,1.64509 l 6.314,1.633514 5.24805,-2.983157 5.24807,-2.983155 v 25.532314 25.532299 h -11.63389 -11.63385 z"
         id="path1593" /><path
         style="fill:#cccccc;stroke-width:0.295669"
         d="m 103.46318,80.191618 c -3.09016,-1.687496 -3.75268,-5.80173 -1.33805,-8.309106 0.9164,-0.95158 51.15302,-28.154328 51.99396,-28.154328 0.2315,0 7.11361,1.701081 15.29358,3.78018 l 14.87265,3.780178 18.73561,-10.660122 18.73564,-10.660124 -2.10726,-3.69553 -2.10726,-3.695529 1.05688,-0.07039 c 2.47767,-0.165017 25.17028,-0.65673 25.27326,-0.54763 0.13445,0.142436 -12.37385,24.492134 -12.58255,24.494231 -0.079,9.13e-4 -1.04847,-1.637272 -2.1544,-3.640151 -1.45378,-2.632828 -2.13016,-3.5957 -2.44169,-3.475914 -0.23698,0.09112 -9.55923,5.358531 -20.7161,11.705346 l -20.28522,11.539664 -14.9502,-3.796994 c -8.2226,-2.08835 -15.12685,-3.796996 -15.34279,-3.796996 -0.21593,0 -11.11786,5.771962 -24.22652,12.826585 -18.44347,9.925639 -24.12627,12.855389 -25.12656,12.953931 -0.96056,0.09462 -1.62415,-0.0537 -2.58298,-0.577299 z"
         id="path1591" /></g></g></svg>
