<?xml version="1.0" encoding="UTF-8" standalone="no"?>
<!-- Created with Inkscape (http://www.inkscape.org/) -->

<svg
   width="132.5mm"
   height="132.5mm"
   viewBox="0 0 132.50001 132.5"
   version="1.1"
   id="svg5"
   xml:space="preserve"
   inkscape:version="1.2.1 (9c6d41e410, 2022-07-14)"
   sodipodi:docname="view_board.svg"
   inkscape:export-filename="select.png"
   inkscape:export-xdpi="96"
   inkscape:export-ydpi="96"
   xmlns:inkscape="http://www.inkscape.org/namespaces/inkscape"
   xmlns:sodipodi="http://sodipodi.sourceforge.net/DTD/sodipodi-0.dtd"
   xmlns="http://www.w3.org/2000/svg"
   xmlns:svg="http://www.w3.org/2000/svg"><sodipodi:namedview
     id="namedview7"
     pagecolor="#ffffff"
     bordercolor="#999999"
     borderopacity="1"
     inkscape:showpageshadow="0"
     inkscape:pageopacity="0"
     inkscape:pagecheckerboard="0"
     inkscape:deskcolor="#d1d1d1"
     inkscape:document-units="mm"
     showgrid="false"
     inkscape:zoom="0.50000001"
     inkscape:cx="384.99999"
     inkscape:cy="398.99999"
     inkscape:window-width="1920"
     inkscape:window-height="991"
     inkscape:window-x="-9"
     inkscape:window-y="-9"
     inkscape:window-maximized="1"
     inkscape:current-layer="layer1"
     showguides="false"><inkscape:grid
       type="xygrid"
       id="grid6400"
       originx="384.99969"
       originy="212.62923" /></sodipodi:namedview><defs
     id="defs2" /><g
     inkscape:label="Capa 1"
     inkscape:groupmode="layer"
     id="layer1"
     transform="translate(54.87502,66.09719)"><path
       id="path893"
       style="fill:#2b37b7;fill-opacity:1;stroke-width:0.253201;stroke:none"
       d="M 53.989653 3.8597802 C 51.028507 3.8366366 48.104251 4.7002038 45.516268 6.432233 C 44.414565 7.1695614 38.94129 12.478564 29.153959 22.304132 L 14.447364 37.068606 L 11.210869 47.785781 C 8.2928394 57.449568 7.9853444 58.650502 8.0828942 59.998989 C 8.213215 61.800608 9.0959204 63.081355 10.832597 63.988927 C 11.725286 64.455413 12.218838 64.549825 13.223666 64.446263 C 14.378213 64.327271 33.727195 59.091662 35.504993 58.417174 C 36.687542 57.968519 65.002442 29.647012 66.512403 27.402529 C 68.411871 24.579041 68.927759 22.776272 68.927759 18.964285 C 68.927759 15.142167 68.414925 13.360071 66.483464 10.472296 C 64.919042 8.1332986 63.415017 6.8201222 60.825411 5.530996 C 58.618317 4.4322824 56.292766 3.8777808 53.989653 3.8597802 z M 53.988619 13.911363 C 55.873764 13.911363 58.02372 15.342374 58.657068 17.018667 C 59.048617 18.054978 58.986663 20.153304 58.536662 21.101622 C 58.322394 21.553158 57.777827 22.280518 57.3264 22.718061 L 56.505778 23.513361 L 52.978345 19.97921 L 49.450912 16.445059 L 50.200737 15.647174 C 51.168196 14.617628 52.709137 13.911363 53.988619 13.911363 z M 42.341785 23.538166 L 45.885238 27.074901 L 49.428691 30.611636 L 40.083008 39.960419 L 30.736809 49.308686 L 26.031153 50.610932 C 23.443165 51.327122 21.127004 51.969975 20.88418 52.039785 C 20.595549 52.122759 20.482293 52.051826 20.556551 51.834113 C 20.619051 51.650933 21.303566 49.393166 22.077389 46.816848 L 23.484021 42.132379 L 32.912903 32.835273 L 42.341785 23.538166 z " /><g
       id="g380"
       transform="translate(323.28922,29.934187)" /><path
       style="fill:#7f7f7f;fill-opacity:1;stroke-width:0.253201"
       d="m -23.865447,-25.155799 c -2.200329,-1.124162 -3.173655,-3.257395 -2.682006,-5.878116 0.216029,-1.15152 1.49268,-2.613474 2.801399,-3.208013 0.961191,-0.43666 2.447708,-0.461388 28.0523347,-0.466654 23.8393763,-0.0049 27.1482903,0.0408 27.9752743,0.386326 4.146799,1.732641 4.146799,7.611632 0,9.344273 -0.826697,0.345417 -4.145248,0.391887 -27.9849206,0.391887 H -22.750373 Z"
       id="path903" /><path
       style="fill:#7f7f7f;fill-opacity:1;stroke-width:0.253201"
       d="m -23.865447,-4.8997055 c -2.200329,-1.1241625 -3.173655,-3.2573943 -2.682006,-5.8781155 0.216029,-1.151522 1.49268,-2.613475 2.801399,-3.208013 0.961191,-0.436661 2.447708,-0.461389 28.0523347,-0.466656 23.8393763,-0.0049 27.1482903,0.0408 27.9752743,0.386327 4.146799,1.73264 4.146799,7.6116335 0,9.3442732 -0.826697,0.3454174 -4.145248,0.3918875 -27.9849206,0.3918875 H -22.750373 Z"
       id="path901" /><path
       style="fill:#7f7f7f;fill-opacity:1;stroke-width:0.253201"
       d="m -23.865447,15.356387 c -1.594244,-0.814512 -2.581312,-2.155747 -2.730706,-3.710524 -0.176066,-1.8323557 0.111717,-2.9516561 1.026888,-3.9939706 1.690219,-1.9250588 0.811108,-1.8427278 19.6760729,-1.8427278 15.8557544,0 16.8969491,0.027351 17.8506761,0.4689139 1.958442,0.9067278 2.911815,2.4075984 2.911815,4.5839875 0,2.176391 -0.953373,3.677261 -2.911815,4.58399 -0.953344,0.441383 -2.0018887,0.469239 -17.8603321,0.474473 l -16.8475249,0.0056 -1.115074,-0.569702 z"
       id="path899" /><path
       style="fill:#7f7f7f;fill-opacity:1;stroke-width:0.253201"
       d="m -29.567502,64.359788 c -3.306417,-0.457259 -7.488461,-2.336642 -10.128054,-4.551481 -3.268309,-2.742393 -5.734238,-6.698085 -6.708253,-10.76096 -0.494444,-2.062476 -0.504425,-3.038599 -0.504425,-49.32613081 0,-46.15966019 0.01129,-47.26897219 0.500377,-49.30917719 1.38678,-5.78448 5.408692,-10.778891 10.763526,-13.366161 4.525553,-2.186588 1.173929,-2.017559 40.0057817,-2.017559 32.6644133,0 34.5199993,0.02394 36.0811703,0.465615 7.504931,2.123222 12.936801,7.658216 14.700546,14.979655 0.457542,1.89931 0.488079,3.119512 0.489744,19.569878 0.0019,16.749125 -0.0201,17.586843 -0.479983,18.483685 -1.745619,3.4038871 -6.066598,3.7734645 -8.492209,0.726345 l -0.774274,-0.972675 -0.136026,-17.51101 c -0.146466,-18.854712 -0.08086,-17.942384 -1.478372,-20.574046 -1.126845,-2.122029 -3.370142,-3.9226 -5.808099,-4.661828 -1.668142,-0.505809 -2.171255,-0.512285 -34.6088933,-0.445422 l -32.9161607,0.06785 -1.47288,0.594245 c -2.071012,0.835571 -4.439912,3.10367 -5.389706,5.160368 l -0.73345,1.588222 V -0.27878381 46.943232 l 0.73345,1.588222 c 0.950865,2.059022 3.319536,4.325987 5.389706,5.158277 1.439079,0.578562 1.711158,0.595107 11.854131,0.720844 9.0249914,0.11188 10.4804827,0.183436 11.1408568,0.547738 3.0189874,1.665463 3.5854913,5.920053 1.0972838,8.241009 -1.4057283,1.311242 -1.720374,1.344265 -12.4199096,1.303453 -5.470456,-0.02086 -10.288099,-0.08521 -10.705878,-0.142987 z"
       id="path1595" /></g></svg>
