<?xml version="1.0" encoding="UTF-8" standalone="no"?>
<!-- Created with Inkscape (http://www.inkscape.org/) -->

<svg
   width="128.68405mm"
   height="128.80586mm"
   viewBox="0 0 128.68405 128.80586"
   version="1.1"
   id="svg5"
   xml:space="preserve"
   inkscape:version="1.2.1 (9c6d41e410, 2022-07-14)"
   sodipodi:docname="warning.svg"
   xmlns:inkscape="http://www.inkscape.org/namespaces/inkscape"
   xmlns:sodipodi="http://sodipodi.sourceforge.net/DTD/sodipodi-0.dtd"
   xmlns="http://www.w3.org/2000/svg"
   xmlns:svg="http://www.w3.org/2000/svg"><sodipodi:namedview
     id="namedview7"
     pagecolor="#505050"
     bordercolor="#ffffff"
     borderopacity="1"
     inkscape:showpageshadow="0"
     inkscape:pageopacity="0"
     inkscape:pagecheckerboard="1"
     inkscape:deskcolor="#505050"
     inkscape:document-units="mm"
     showgrid="false"
     inkscape:zoom="0.50646226"
     inkscape:cx="-113.53265"
     inkscape:cy="559.76531"
     inkscape:window-width="2400"
     inkscape:window-height="1261"
     inkscape:window-x="2391"
     inkscape:window-y="-9"
     inkscape:window-maximized="1"
     inkscape:current-layer="g2336" /><defs
     id="defs2" /><g
     inkscape:label="Capa 1"
     inkscape:groupmode="layer"
     id="layer1"
     transform="translate(-20.258893,-52.656466)"><g
       id="g2336"
       transform="translate(-0.7388109,-2.5858209)"><circle
         style="fill:#f28123;fill-opacity:1;stroke:none;stroke-width:1.70021"
         id="path2503"
         cx="85.147598"
         cy="119.39218"
         r="64.149895" /><path
         style="fill:#efafae;stroke-width:0.251485"
         d="m 129.59347,166.36785 c 0,-0.0522 0.19805,-0.25027 0.4401,-0.4401 0.39887,-0.31281 0.40777,-0.30392 0.095,0.0949 -0.32853,0.41891 -0.53505,0.55213 -0.53505,0.34515 z m 1.7604,-1.7604 c 0,-0.0522 0.19804,-0.25026 0.4401,-0.4401 0.39887,-0.31281 0.40776,-0.30392 0.095,0.095 -0.32853,0.41891 -0.53505,0.55213 -0.53505,0.34514 z M 38.80734,75.078746 c 0,-0.05222 0.198044,-0.250267 0.440099,-0.440099 0.398869,-0.312815 0.407764,-0.30392 0.09495,0.09495 -0.328532,0.418911 -0.535048,0.55213 -0.535049,0.345149 z m 1.257425,-1.257425 c 0,-0.05222 0.198045,-0.250267 0.440099,-0.440099 0.39887,-0.312815 0.407765,-0.30392 0.09495,0.09495 -0.328533,0.418911 -0.535049,0.55213 -0.535049,0.345149 z"
         id="path2348" /><path
         style="fill:#e98e8d;stroke-width:0.251485"
         d="m 81.009689,183.89497 c 0.18154,-0.0727 0.398446,-0.0637 0.482014,0.0198 0.08357,0.0836 -0.06497,0.143 -0.330074,0.13209 -0.292968,-0.0121 -0.352557,-0.0717 -0.15194,-0.15194 z m 8.29901,0 c 0.181539,-0.0727 0.398448,-0.0637 0.482014,0.0198 0.08357,0.0836 -0.06497,0.143 -0.330075,0.13209 -0.292967,-0.0121 -0.352557,-0.0717 -0.151939,-0.15194 z m -11.316831,-0.25149 c 0.181539,-0.0726 0.398445,-0.0637 0.482014,0.0198 0.08357,0.0836 -0.06497,0.143 -0.330075,0.13208 -0.292967,-0.0121 -0.352557,-0.0717 -0.151939,-0.15194 z m -35.9473,-16.11187 c -0.312815,-0.39887 -0.30392,-0.40776 0.09495,-0.095 0.242054,0.18984 0.440099,0.38788 0.440099,0.4401 0,0.20698 -0.206516,0.0738 -0.535049,-0.34515 z m 88.680592,-2.32624 c 0.25035,-0.27663 0.51176,-0.50297 0.58092,-0.50297 0.0692,0 -0.0791,0.22634 -0.32944,0.50297 -0.25035,0.27664 -0.51176,0.50298 -0.58092,0.50298 -0.0692,0 0.0791,-0.22634 0.32944,-0.50298 z m -92.821912,-1.82326 -0.479077,-0.56584 0.565842,0.47907 c 0.531752,0.45022 0.680328,0.65261 0.479076,0.65261 -0.04772,0 -0.30235,-0.25463 -0.565841,-0.56584 z m 111.577402,-39.567 c 0.0121,-0.29296 0.0717,-0.35255 0.15194,-0.15194 0.0727,0.18154 0.0637,0.39845 -0.0198,0.48202 -0.0836,0.0836 -0.143,-0.065 -0.13209,-0.33008 z M 21.020391,122.4529 c 0,-0.62242 0.04904,-0.87705 0.108985,-0.56584 0.05994,0.31121 0.05994,0.82047 0,1.13168 -0.05994,0.31122 -0.108985,0.0566 -0.108985,-0.56584 z m 0,-5.53267 c 0,-0.62243 0.04904,-0.87706 0.108985,-0.56584 0.05994,0.31121 0.05994,0.82047 0,1.13168 -0.05994,0.31121 -0.108985,0.0566 -0.108985,-0.56584 z M 149.48065,115.5161 c 0.0121,-0.29296 0.0717,-0.35255 0.15194,-0.15194 0.0727,0.18154 0.0637,0.39845 -0.0198,0.48202 -0.0836,0.0836 -0.143,-0.065 -0.13209,-0.33008 z m -0.25148,-3.01782 c 0.0121,-0.29297 0.0717,-0.35255 0.15194,-0.15194 0.0726,0.18154 0.0637,0.39845 -0.0199,0.48202 -0.0836,0.0836 -0.143,-0.065 -0.13208,-0.33008 z M 133.08219,76.493993 c -0.31282,-0.39887 -0.30392,-0.407765 0.095,-0.09495 0.24205,0.189832 0.4401,0.387877 0.4401,0.440099 0,0.206981 -0.20652,0.07376 -0.53505,-0.345149 z m -4.14132,-4.149505 -0.47908,-0.565842 0.56584,0.479077 c 0.31122,0.263491 0.56584,0.51812 0.56584,0.565841 0,0.201252 -0.20239,0.05268 -0.6526,-0.479076 z M 81.999912,55.380374 c 0.311213,-0.05994 0.82047,-0.05994 1.131683,0 0.311213,0.05994 0.05658,0.108986 -0.565842,0.108986 -0.622425,0 -0.877054,-0.04904 -0.565841,-0.108986 z m 5.532673,0 c 0.311213,-0.05994 0.82047,-0.05994 1.131683,0 0.311213,0.05994 0.05658,0.108986 -0.565841,0.108986 -0.622426,0 -0.877055,-0.04904 -0.565842,-0.108986 z"
         id="path2346" /><path
         style="fill:#d74746;stroke-width:0.251485"
         d="m 83.257338,183.90021 c 0.172896,-0.0698 0.455816,-0.0698 0.628712,0 0.172896,0.0698 0.03144,0.12684 -0.314356,0.12684 -0.345792,0 -0.487252,-0.0571 -0.314356,-0.12684 z m 3.65132,-0.008 c 0.244687,-0.0638 0.584192,-0.0596 0.754455,0.009 0.170263,0.0689 -0.02993,0.12105 -0.444884,0.11593 -0.414951,-0.005 -0.554259,-0.0615 -0.309571,-0.12525 z m 41.804622,-16.92654 c 0.25035,-0.27663 0.51176,-0.50297 0.58092,-0.50297 0.0692,0 -0.0791,0.22634 -0.32944,0.50297 -0.25035,0.27663 -0.51177,0.50297 -0.58092,0.50297 -0.0692,0 0.0791,-0.22634 0.32944,-0.50297 z m -88.919034,-1.69752 -0.609679,-0.69159 0.691585,0.60968 c 0.646389,0.56984 0.806912,0.77349 0.609678,0.77349 -0.04505,0 -0.35626,-0.31121 -0.691584,-0.69158 z m 92.691304,-2.07476 c 0.25035,-0.27663 0.51177,-0.50297 0.58093,-0.50297 0.0692,0 -0.0791,0.22634 -0.32944,0.50297 -0.25035,0.27664 -0.51177,0.50297 -0.58093,0.50297 -0.0692,0 0.0791,-0.22633 0.32944,-0.50297 z m -96.696032,-2.51485 c -0.226661,-0.14648 -0.25768,-0.24532 -0.07771,-0.24763 0.164733,-0.002 0.369456,0.10932 0.454941,0.24763 0.192966,0.31223 0.105906,0.31223 -0.377228,0 z M 149.50983,121.5726 c 0.005,-0.41495 0.0615,-0.55425 0.12525,-0.30957 0.0638,0.24469 0.0596,0.5842 -0.009,0.75446 -0.0689,0.17026 -0.12106,-0.0299 -0.11594,-0.44489 z m -0.009,-3.64653 c 0,-0.34579 0.0571,-0.48725 0.12684,-0.31436 0.0698,0.1729 0.0698,0.45582 0,0.62872 -0.0698,0.17289 -0.12684,0.0314 -0.12684,-0.31436 z m -18.6686,-43.695543 -0.60967,-0.691585 0.69158,0.609679 c 0.64639,0.569837 0.80691,0.77349 0.60968,0.77349 -0.0451,0 -0.35626,-0.311213 -0.69159,-0.691584 z m -4.64378,-3.85188 c -0.0912,-0.14752 -0.11183,-0.322153 -0.0459,-0.388074 0.0659,-0.06592 0.18686,0.05478 0.26877,0.268217 0.17005,0.443143 0.0251,0.521091 -0.22287,0.119857 z"
         id="path2342"
         sodipodi:nodetypes="cssccccccsssssscssssssssscssscccccscssscsssssss" /></g><g
       id="g5725"
       transform="translate(333.823,39.703518)"><path
         style="fill:#fefefe;stroke-width:0.264583"
         d="m -250.87983,115.68688 c -1.85408,-0.51605 -2.934,-1.19822 -4.23293,-2.67388 -1.90766,-2.16721 -2.4809,-5.36292 -1.48775,-8.29388 0.67948,-2.00526 2.90275,-4.22853 4.90801,-4.908015 3.25041,-1.101404 6.38075,-0.395254 8.7498,1.973815 3.35097,3.35096 3.35097,8.33303 0,11.684 -2.1918,2.19181 -5.10565,3.00606 -7.93713,2.21796 z m 0.63993,-25.228999 c -1.18961,-0.30972 -2.83827,-1.22106 -3.47587,-1.92137 -0.31101,-0.34158 -0.82708,-1.14204 -1.14683,-1.77879 -0.52353,-1.04255 -0.72523,-2.85878 -2.02745,-18.25625 -1.61256,-19.066935 -1.6535,-20.836891 -0.53485,-23.123325 0.942,-1.925378 3.14294,-3.943135 5.13536,-4.707929 3.39098,-1.301642 7.27938,-0.559507 9.97455,1.903727 2.05833,1.881198 2.87118,3.664709 2.98916,6.558663 0.0539,1.321668 -0.51182,9.416661 -1.35383,19.372669 -1.51909,17.961755 -1.48395,17.726885 -2.94508,19.681535 -1.24561,1.66634 -4.56321,2.80531 -6.61516,2.27107 z"
         id="path5739"
         sodipodi:nodetypes="sssscssssssssscsss" /></g></g></svg>
