<?xml version="1.0" encoding="UTF-8" standalone="no"?>
<!-- Created with Inkscape (http://www.inkscape.org/) -->

<svg
   width="151.717mm"
   height="151.717mm"
   viewBox="0 0 151.717 151.71699"
   version="1.1"
   id="svg5"
   xml:space="preserve"
   inkscape:version="1.2.1 (9c6d41e410, 2022-07-14)"
   sodipodi:docname="click.svg"
   xmlns:inkscape="http://www.inkscape.org/namespaces/inkscape"
   xmlns:sodipodi="http://sodipodi.sourceforge.net/DTD/sodipodi-0.dtd"
   xmlns="http://www.w3.org/2000/svg"
   xmlns:svg="http://www.w3.org/2000/svg"><sodipodi:namedview
     id="namedview7"
     pagecolor="#505050"
     bordercolor="#ffffff"
     borderopacity="1"
     inkscape:showpageshadow="0"
     inkscape:pageopacity="0"
     inkscape:pagecheckerboard="1"
     inkscape:deskcolor="#505050"
     inkscape:document-units="mm"
     showgrid="false"
     inkscape:zoom="0.71624579"
     inkscape:cx="933.33882"
     inkscape:cy="422.34105"
     inkscape:window-width="1920"
     inkscape:window-height="991"
     inkscape:window-x="-9"
     inkscape:window-y="-9"
     inkscape:window-maximized="1"
     inkscape:current-layer="g314" /><defs
     id="defs2" /><g
     inkscape:label="Capa 1"
     inkscape:groupmode="layer"
     id="layer1"
     transform="translate(151.18696,-37.135546)"><g
       id="g314"
       transform="translate(-1.108213,24.011194)"><path
         style="fill:#dddddd;fill-opacity:1;stroke-width:0.264583"
         d="m -52.353328,152.42324 c -2.07575,-0.37178 -4.57019,-1.35964 -6.251906,-2.47591 -3.02823,-2.01001 -4.17961,-3.63372 -9.03492,-12.74123 -3.55185,-6.66251 -4.53446,-8.31334 -4.7625,-8.0012 -0.15802,0.2163 -1.29935,2.32907 -2.53628,4.69505 -2.63799,5.0459 -4.03336,6.65527 -7.01146,8.08674 -2.36159,1.13514 -3.97027,1.50313 -6.61458,1.5131 -3.61196,0.0136 -6.39622,-0.96222 -9.58525,-3.35947 -3.513686,-2.64128 -5.686346,-6.72056 -6.174136,-11.59221 -0.17493,-1.74708 -0.24091,-15.04761 -0.18602,-37.500009 0.0788,-32.220419 0.1193,-34.908265 0.54827,-36.355809 1.30078,-4.3895 4.265566,-8.001436 8.143756,-9.921342 4.43254,-2.194347 8.92169,-2.387369 13.23879,-0.569235 2.8192,1.187301 39.485816,28.494466 40.251816,29.977216 1.38852,2.68776 0.39717,5.87706 -2.25276,7.24739 -0.89125,0.46088 -3.17439,0.54434 -4.1723,0.15251 -0.36799,-0.14449 -8.64284,-6.20189 -18.388536,-13.4609 -9.74571,-7.258998 -18.12527,-13.484741 -18.62126,-13.834981 -1.07663,-0.760256 -3.22076,-1.014256 -4.63152,-0.548661 -1.33002,0.438946 -2.52116,1.505974 -3.09748,2.774746 -0.46339,1.020154 -0.48597,2.698975 -0.49152,36.542143 l -0.006,35.472862 0.72761,1.43487 c 0.92337,1.82093 2.42928,2.91844 4.24363,3.09278 2.6207,0.25182 2.53938,0.35278 7.83732,-9.73095 3.3138,-6.30727 4.99341,-9.23254 5.61381,-9.77726 2.357,-2.06948 6.01625,-1.45384 7.74444,1.30293 0.41541,0.66265 3.28827,5.96731 6.38413,11.78815 3.09586,5.82083 6.079656,11.35723 6.630646,12.30312 1.23042,2.11223 2.40639,2.9593 4.32978,3.11881 3.48073,0.28865 5.97027,-1.97595 5.96208,-5.42337 -0.004,-1.5109 -0.0966,-1.69689 -6.78646,-13.57044 -6.21848,-11.03691 -6.79302,-12.16279 -6.905296,-13.53186 -0.0674,-0.82132 0.0166,-1.91479 0.186636,-2.42994 0.39201,-1.18781 2.05751,-2.70473 3.36972,-3.06912 0.62859,-0.17454 4.72261,-0.28127 10.82503,-0.28218 9.76285,-0.002 9.8202,-0.005 10.98021,-0.61734 1.95512,-1.03256 3.19355,-3.614302 2.78314,-5.801972 -0.092,-0.49014 -0.69885,-1.70063 -1.34866,-2.68998 -1.37089,-2.08723 -1.66169,-3.244777 -1.22515,-4.876927 0.45332,-1.69492 1.2488,-2.65935 2.78252,-3.3735 1.49844,-0.69773 2.19258,-0.76364 3.68307,-0.34976 2.17484,0.60392 4.75566,3.92018 5.90817,7.591797 0.62069,1.97735 0.67445,2.48445 0.56109,5.29167 -0.10102,2.501232 -0.25828,3.449142 -0.80903,4.876522 -1.44391,3.74212 -4.09785,6.82881 -7.33321,8.52894 -2.94665,1.54842 -4.24272,1.78433 -10.61621,1.93232 l -5.72202,0.13287 2.25716,4.0035 c 7.37907,13.08818 7.62042,13.61857 7.91256,17.38886 0.5542,7.15225 -4.40226,14.12483 -11.52961,16.21944 -1.81431,0.5332 -5.05551,0.73173 -6.8115,0.41722 z M -124.2474,76.122421 c -2.07172,-0.76685 -3.3436,-2.62114 -3.3436,-4.87468 0,-1.6479 0.26605,-2.37113 1.30938,-3.55943 1.12983,-1.2868 9.76168,-4.79701 11.79979,-4.798473 1.95181,-0.0013 3.56746,1.015217 4.46004,2.806383 0.86778,1.7414 0.86778,2.92487 0,4.66627 -0.84607,1.69784 -1.51603,2.10979 -6.94461,4.27022 -4.50054,1.79108 -5.76683,2.05017 -7.281,1.48971 z m 8.29806,-23.151526 c -0.3638,-0.122899 -2.74505,-1.139129 -5.29166,-2.258296 -5.99882,-2.636305 -6.92327,-3.519243 -6.92327,-6.612365 0,-3.013594 2.95208,-5.581845 5.80159,-5.047273 1.04674,0.196368 8.91379,3.563393 10.55495,4.517419 1.28487,0.746913 2.47298,2.837108 2.47298,4.350643 0,1.522767 -1.18758,3.602545 -2.4944,4.368392 -1.23148,0.721694 -3.09079,1.029224 -4.12019,0.68148 z m 48.319466,-5.953781 c -1.31398,-0.486257 -2.7178,-1.848033 -3.10051,-3.007659 -0.42983,-1.302402 -0.18582,-3.877467 0.45079,-4.757091 0.8443,-1.166608 9.05982,-7.175393 10.24802,-7.495342 2.271526,-0.611661 4.753436,0.54422 5.836856,2.718365 0.86019,1.726174 0.86809,2.924235 0.0304,4.605291 -0.5606,1.124985 -1.21463,1.731444 -4.471506,4.146331 -2.09817,1.555736 -4.22252,3.069142 -4.72078,3.363123 -1.22041,0.720058 -3.00063,0.897938 -4.27326,0.426982 z m -35.201976,-8.735511 c -1.5971,-0.590525 -2.30987,-1.501862 -5.08391,-6.500162 -2.21674,-3.994137 -2.58567,-4.835352 -2.68561,-6.123524 -0.15227,-1.962805 0.2747,-3.160874 1.53096,-4.295828 1.78303,-1.610856 3.98505,-1.834552 6.14715,-0.624468 1.19897,0.671038 1.5998,1.264123 4.560346,6.747716 2.76098,5.113942 2.94934,5.93061 1.87459,8.127331 -1.17068,2.392789 -3.939626,3.557778 -6.343526,2.668935 z m 20.352296,-1.855892 c -0.14552,-0.05504 -0.58982,-0.171733 -0.98734,-0.259325 -0.96966,-0.213665 -2.57953,-1.662511 -3.02082,-2.718668 -0.67186,-1.607989 -0.43692,-3.129778 1.29618,-8.395596 1.46435,-4.449273 1.77479,-5.151333 2.71198,-6.133139 1.76765,-1.851808 4.03217,-2.116763 6.39057,-0.747712 1.23809,0.718717 2.47297,2.821421 2.47297,4.210895 0,1.013837 -3.21134,10.687293 -3.93849,11.863854 -0.29331,0.474578 -0.99297,1.121228 -1.55481,1.437 -0.97771,0.549501 -2.81217,0.953757 -3.37024,0.742691 z"
         id="path316" /></g></g></svg>
