<?xml version="1.0" encoding="UTF-8" standalone="no"?>
<!-- Created with Inkscape (http://www.inkscape.org/) -->

<svg
   width="50mm"
   height="50mm"
   viewBox="0 0 50 50"
   version="1.1"
   id="svg5"
   xml:space="preserve"
   inkscape:version="1.2.1 (9c6d41e410, 2022-07-14)"
   sodipodi:docname="colo_picker.svg"
   xmlns:inkscape="http://www.inkscape.org/namespaces/inkscape"
   xmlns:sodipodi="http://sodipodi.sourceforge.net/DTD/sodipodi-0.dtd"
   xmlns="http://www.w3.org/2000/svg"
   xmlns:svg="http://www.w3.org/2000/svg"><sodipodi:namedview
     id="namedview7"
     pagecolor="#505050"
     bordercolor="#ffffff"
     borderopacity="1"
     inkscape:showpageshadow="0"
     inkscape:pageopacity="0"
     inkscape:pagecheckerboard="1"
     inkscape:deskcolor="#505050"
     inkscape:document-units="mm"
     showgrid="false"
     inkscape:zoom="0.7162458"
     inkscape:cx="-418.15254"
     inkscape:cy="245.02761"
     inkscape:window-width="2400"
     inkscape:window-height="1261"
     inkscape:window-x="2391"
     inkscape:window-y="-9"
     inkscape:window-maximized="1"
     inkscape:current-layer="g249" /><defs
     id="defs2" /><g
     inkscape:label="Capa 1"
     inkscape:groupmode="layer"
     id="layer1"
     transform="translate(-160.58611,-58.02165)"><g
       id="g248"
       transform="matrix(0.83249501,0,0,0.89139805,-59.648528,62.14663)"><g
         id="g249"
         transform="translate(253.36981,-12.846665)"><path
           style="fill:#fdf100;stroke-width:0.103626"
           d="m 56.280991,35.717725 c -0.03374,-0.302956 -0.08879,-0.80997 -0.122342,-1.126697 -0.139409,-1.31579 -0.804786,-3.358202 -1.53301,-4.705685 C 54.094381,28.90233 53.04368,27.51226 52.194882,26.669479 l -0.801969,-0.796283 3.23394,-3.290103 c 1.778669,-1.809557 3.720554,-3.785851 4.315301,-4.391763 0.594749,-0.605913 1.421673,-1.432224 1.837609,-1.836247 l 0.75625,-0.734587 1.09674,1.063591 c 4.435727,4.30165 7.246463,9.583051 8.210829,15.428208 0.131154,0.794954 0.380621,3.400432 0.385962,4.031071 10e-4,0.09896 -1.558684,0.125188 -7.443082,0.125188 h -7.444149 z"
           id="path265" /><path
           style="fill:#00fcf1;stroke-width:0.103626"
           d="m 41.208719,57.362072 v -6.948715 l 0.830965,-0.06797 c 3.190184,-0.260946 5.865014,-1.194288 8.273444,-2.886894 0.897163,-0.63051 1.14133,-0.759011 1.243144,-0.654247 0.06968,0.0717 0.749397,0.762651 1.51047,1.535435 6.032738,6.125551 8.35314,8.503551 8.35314,8.560479 0,0.03644 -0.337746,0.335532 -0.750548,0.664646 -4.838532,3.857623 -10.853322,6.159502 -17.358569,6.643179 -0.760453,0.05654 -1.544504,0.102803 -1.742341,0.102803 h -0.359705 z"
           id="path263" /><path
           style="fill:#ee02fd;stroke-width:0.103626"
           d="m 11.188493,36.193441 c 0.01954,-0.884702 0.269198,-3.380857 0.433229,-4.331523 0.995462,-5.769337 3.828333,-11.027119 8.194515,-15.20895 l 1.08335,-1.037609 0.650274,0.637006 c 0.357652,0.350352 2.636762,2.658677 5.064691,5.12961 l 4.414416,4.492606 -0.78263,0.765312 c -0.850449,0.831632 -1.931634,2.272127 -2.486669,3.313063 -0.750939,1.408342 -1.371111,3.333787 -1.501954,4.66311 -0.03795,0.38558 -0.09562,0.915128 -0.128143,1.176772 l -0.05914,0.475716 h -7.441799 c -4.09299,0 -7.441053,-0.0338 -7.440141,-0.07511 z"
           id="path261" /><path
           style="fill:#fd9901;stroke-width:0.103626"
           d="m 50.912223,25.488981 c -0.619917,-0.513098 -2.011116,-1.355119 -3.002188,-1.81707 -1.742834,-0.812355 -3.7682,-1.332193 -5.76313,-1.479186 l -0.938186,-0.06913 V 15.174959 8.2263219 l 0.402081,0.00103 c 0.221142,6.006e-4 0.981072,0.046045 1.688731,0.1010612 4.003488,0.3112428 7.424483,1.1634363 10.857401,2.7046529 2.706137,1.214926 4.191703,2.130566 7.090169,4.370081 l 0.280002,0.216343 -0.750899,0.73509 c -0.412994,0.404299 -1.237783,1.230836 -1.832863,1.836749 -6.230463,6.343873 -7.485479,7.614283 -7.539565,7.632049 -0.03447,0.01132 -0.255668,-0.139157 -0.491553,-0.334397 z m -10.802518,-3.30787 c 0.07371,-0.02778 0.194338,-0.02778 0.268052,0 0.07371,0.02778 0.0134,0.05051 -0.134026,0.05051 -0.147429,0 -0.207741,-0.02273 -0.134026,-0.05051 z M 21.051168,15.49952 c 0,-0.0208 0.08444,-0.09966 0.187637,-0.175264 0.170059,-0.124575 0.173852,-0.121033 0.04048,0.03781 -0.14007,0.166826 -0.228119,0.219879 -0.228119,0.137451 z M 37.43588,8.4583604 c 0.0774,-0.028931 0.169879,-0.025373 0.205508,0.0079 0.03563,0.033279 -0.0277,0.05695 -0.140728,0.052601 -0.124907,-0.00481 -0.150313,-0.028537 -0.06478,-0.060507 z m 0.96499,-0.1001508 c 0.0774,-0.028931 0.169878,-0.025373 0.205507,0.0079 0.03563,0.033279 -0.0277,0.05695 -0.140728,0.052601 -0.124907,-0.00481 -0.150313,-0.028537 -0.06478,-0.060507 z m 1.495643,-0.1025695 c 0.133373,-0.023955 0.326371,-0.023046 0.428884,0.00202 0.102513,0.025067 -0.0066,0.044667 -0.242498,0.043556 -0.235886,-0.00111 -0.31976,-0.021622 -0.186386,-0.045576 z"
           id="path259" /><path
           style="fill:#0180fd;stroke-width:0.103626"
           d="M 38.923898,64.201703 C 32.306248,63.691715 26.470846,61.383344 21.26561,57.216423 l -0.375273,-0.300417 0.386624,-0.383755 c 0.212644,-0.211066 2.354468,-2.389276 4.75961,-4.840467 2.405143,-2.451192 4.506957,-4.587319 4.670697,-4.74695 l 0.29771,-0.290241 0.571783,0.45004 c 2.323199,1.828541 5.412766,2.972966 8.747386,3.240172 l 0.884572,0.07088 v 6.947554 6.94755 l -0.61652,-0.014 c -0.339086,-0.0077 -1.089822,-0.05049 -1.668301,-0.09507 z"
           id="path257" /><path
           style="fill:#6a10fc;stroke-width:0.103626"
           d="M 19.781215,55.849668 C 16.628984,52.79272 14.34437,49.326194 12.895595,45.401881 12.090489,43.22108 11.491099,40.583703 11.352133,38.610487 c -0.03446,-0.489353 -0.08777,-1.216474 -0.11845,-1.615826 l -0.05579,-0.726093 h 7.447798 7.447798 l 0.06263,0.676018 c 0.181711,1.961299 0.79531,4.110604 1.599199,5.601652 0.579113,1.074135 1.605058,2.445479 2.477949,3.312182 l 0.792675,0.787056 -4.822516,4.901742 c -2.652384,2.695959 -4.931963,5.005453 -5.06573,5.13221 l -0.243212,0.230468 z"
           id="path255"
           sodipodi:nodetypes="sssscccssscsscs" /><path
           style="fill:#00fd10;stroke-width:0.103626"
           d="M 57.983196,53.338987 C 56.04022,51.36438 53.763349,49.052629 52.923474,48.201767 l -1.527039,-1.547022 0.778647,-0.76142 c 2.236917,-2.187424 3.706378,-5.24445 4.04184,-8.408534 0.06048,-0.570437 0.10996,-1.077451 0.10996,-1.126697 0,-0.05176 3.145777,-0.08954 7.455717,-0.08954 h 7.455713 l -0.06212,0.926396 c -0.159553,2.379607 -0.418369,4.049364 -0.912007,5.883863 -1.299281,4.828513 -3.892107,9.163655 -7.649677,12.790081 l -1.098634,1.060292 z"
           id="path253" /><path
           style="fill:#fd0601;stroke-width:0.103626"
           d="m 26.331321,21.115116 c -2.550785,-2.599576 -4.808152,-4.894185 -5.01637,-5.099132 l -0.378579,-0.37263 0.443778,-0.374489 c 2.038828,-1.7205 5.257468,-3.625163 7.927037,-4.690905 3.412385,-1.362289 6.692861,-2.054127 10.909738,-2.3008145 l 0.991794,-0.05802 v 6.9497115 6.949711 l -0.991794,0.06897 c -1.888365,0.131309 -3.798524,0.605548 -5.507169,1.367276 -0.987783,0.440361 -2.953196,1.633373 -3.357254,2.037863 -0.142967,0.143119 -0.287715,0.257683 -0.321663,0.25459 -0.03395,-0.0031 -2.148732,-2.132551 -4.699518,-4.732127 z"
           id="path251" /></g></g></g></svg>
