<?xml version="1.0" encoding="UTF-8" standalone="no"?>
<!-- Created with Inkscape (http://www.inkscape.org/) -->

<svg
   width="50mm"
   height="50mm"
   viewBox="0 0 50 50"
   version="1.1"
   id="svg5"
   xml:space="preserve"
   inkscape:version="1.2.1 (9c6d41e410, 2022-07-14)"
   sodipodi:docname="copy.svg"
   xmlns:inkscape="http://www.inkscape.org/namespaces/inkscape"
   xmlns:sodipodi="http://sodipodi.sourceforge.net/DTD/sodipodi-0.dtd"
   xmlns="http://www.w3.org/2000/svg"
   xmlns:svg="http://www.w3.org/2000/svg"><sodipodi:namedview
     id="namedview7"
     pagecolor="#505050"
     bordercolor="#ffffff"
     borderopacity="1"
     inkscape:showpageshadow="0"
     inkscape:pageopacity="0"
     inkscape:pagecheckerboard="1"
     inkscape:deskcolor="#505050"
     inkscape:document-units="mm"
     showgrid="false"
     inkscape:zoom="2.8649832"
     inkscape:cx="118.15078"
     inkscape:cy="99.302502"
     inkscape:window-width="2400"
     inkscape:window-height="1261"
     inkscape:window-x="2391"
     inkscape:window-y="-9"
     inkscape:window-maximized="1"
     inkscape:current-layer="g248" /><defs
     id="defs2" /><g
     inkscape:label="Capa 1"
     inkscape:groupmode="layer"
     id="layer1"
     transform="translate(-29.443673,-105.30865)"><g
       id="g248"
       transform="matrix(0.83249501,0,0,0.89139805,-59.648528,62.14663)"><path
         id="path482"
         style="fill:none;stroke:#dddddd;stroke-width:1.99317"
         d="m 133.62699,55.736866 c -9.94325,0.03125 -17.97984,7.579077 -17.95744,16.865314 0.0191,6.267017 3.76569,12.004909 9.72268,14.890196 -0.91719,-2.04172 -1.39393,-4.232414 -1.40288,-6.446525 -0.0224,-9.286236 8.01419,-16.83406 17.95744,-16.865313 2.90753,-0.0064 5.77354,0.64439 8.35332,1.896855 -1.0112,-2.260444 -2.51137,-4.236039 -4.35738,-5.838009 -3.28077,-2.847069 -7.65387,-4.514023 -12.31574,-4.502518 z"
         sodipodi:nodetypes="ccccccsc" /><path
         style="fill:none;stroke:#dddddd;stroke-width:1.99317"
         id="path482-2-4"
         sodipodi:type="arc"
         sodipodi:cx="142.00728"
         sodipodi:cy="81.007996"
         sodipodi:rx="18.018126"
         sodipodi:ry="16.827499"
         sodipodi:start="0"
         sodipodi:end="6.2787148"
         sodipodi:open="true"
         sodipodi:arc-type="arc"
         d="M 160.0254,81.007996 A 18.018126,16.827499 0 0 1 142.02742,97.835484 18.018126,16.827499 0 0 1 123.9892,81.045609 18.018126,16.827499 0 0 1 141.94687,64.180591 18.018126,16.827499 0 0 1 160.02522,80.932768" /></g></g></svg>
