<?xml version="1.0" encoding="UTF-8" standalone="no"?>
<!-- Created with Inkscape (http://www.inkscape.org/) -->

<svg
   width="50mm"
   height="50mm"
   viewBox="0 0 50 50"
   version="1.1"
   id="svg5"
   xml:space="preserve"
   inkscape:version="1.3 (0e150ed6c4, 2023-07-21)"
   sodipodi:docname="delete.svg"
   xmlns:inkscape="http://www.inkscape.org/namespaces/inkscape"
   xmlns:sodipodi="http://sodipodi.sourceforge.net/DTD/sodipodi-0.dtd"
   xmlns="http://www.w3.org/2000/svg"
   xmlns:svg="http://www.w3.org/2000/svg"><sodipodi:namedview
     id="namedview7"
     pagecolor="#505050"
     bordercolor="#ffffff"
     borderopacity="1"
     inkscape:showpageshadow="0"
     inkscape:pageopacity="0"
     inkscape:pagecheckerboard="1"
     inkscape:deskcolor="#505050"
     inkscape:document-units="mm"
     showgrid="false"
     inkscape:zoom="2.8649831"
     inkscape:cx="134.38125"
     inkscape:cy="76.963804"
     inkscape:window-width="1920"
     inkscape:window-height="1009"
     inkscape:window-x="-8"
     inkscape:window-y="-8"
     inkscape:window-maximized="1"
     inkscape:current-layer="g248" /><defs
     id="defs2" /><g
     inkscape:label="Capa 1"
     inkscape:groupmode="layer"
     id="layer1"
     transform="translate(-29.443673,-105.30865)"><g
       id="g248"
       transform="matrix(0.83249501,0,0,0.89139805,-59.648528,62.14663)"><path
         style="fill:#da6c54;fill-opacity:1;stroke-width:0.324718"
         d="m 124.06239,100.98531 c -1.00523,-0.20236 -2.0813,-0.74115 -2.87234,-1.438165 -0.8061,-0.7103 -1.35739,-1.531311 -1.74858,-2.604101 l -0.28116,-0.771058 -0.028,-14.860148 -0.028,-14.860147 -0.3848,-0.116174 c -1.52344,-0.45995 -2.78556,-1.901399 -3.04723,-3.480195 -0.352,-2.12388 1.03256,-4.155178 3.32102,-4.872285 0.38132,-0.119489 1.1938,-0.158228 4.0629,-0.193707 l 3.58625,-0.04434 6.5e-4,-0.737596 c 0.002,-1.690193 0.47287,-2.935474 1.45879,-3.856247 0.64292,-0.600431 1.74883,-1.136316 2.6169,-1.268039 0.35012,-0.05313 3.13068,-0.09348 6.39849,-0.09285 6.23244,0.0012 6.63216,0.02793 7.6551,0.512054 0.65935,0.312037 1.47697,1.003465 1.87968,1.589563 0.51533,0.750017 0.72148,1.451357 0.79792,2.714642 l 0.0689,1.138722 3.57134,0.04163 c 3.27436,0.03817 3.62144,0.05814 4.17391,0.240073 2.6728,0.880185 3.96001,3.686462 2.76952,6.037851 -0.51898,1.025072 -1.59488,1.956618 -2.62106,2.269411 l -0.38419,0.117103 -0.0322,14.812147 c -0.0304,13.970715 -0.0428,14.844997 -0.21918,15.390438 -0.73958,2.288023 -2.50232,3.894198 -4.75951,4.336778 -1.04979,0.20584 -24.93054,0.20091 -25.9552,-0.005 z m 26.23578,-2.527796 c 1.1885,-0.54647 1.92497,-1.53103 2.14216,-2.86382 0.075,-0.460303 0.10107,-5.176503 0.0821,-14.842845 l -0.0279,-14.168173 -15.45444,-0.02442 -15.45444,-0.02442 v 14.404698 c 0,10.298336 0.0331,14.550292 0.11604,14.915444 0.22209,0.977545 0.92406,1.956416 1.75381,2.445596 0.90314,0.532461 0.34732,0.512561 13.76741,0.49288 l 12.38641,-0.0182 z m -21.15932,-4.842126 c -0.67902,-0.386634 -0.64499,0.27889 -0.61468,-12.021871 0.0258,-10.474713 0.0386,-11.170829 0.20954,-11.405752 0.34506,-0.474237 1.17519,-0.625429 1.69329,-0.308397 0.57132,0.349607 0.54989,-0.113599 0.54989,11.889925 0,12.300291 0.0408,11.574934 -0.66858,11.889309 -0.45645,0.202289 -0.75786,0.191151 -1.16946,-0.04321 z m 7.34085,0.03974 c -0.69068,-0.318106 -0.65233,0.380546 -0.65233,-11.885837 0,-12.003524 -0.0215,-11.540318 0.54989,-11.889925 0.51809,-0.317032 1.34823,-0.16584 1.69329,0.308397 0.17094,0.234923 0.18373,0.931039 0.20954,11.405752 0.0303,12.300761 0.0643,11.635237 -0.61469,12.021871 -0.40821,0.232436 -0.74296,0.243655 -1.1857,0.03974 z m 7.31463,-0.0057 c -0.67987,-0.312954 -0.63965,0.439669 -0.63965,-11.971304 V 70.403495 l 0.3476,-0.344201 c 0.3034,-0.300451 0.40966,-0.3442 0.83592,-0.3442 0.41517,0 0.53953,0.04781 0.82998,0.319051 0.24379,0.227688 0.36047,0.441586 0.40745,0.74696 0.0362,0.235352 0.052,5.328945 0.0351,11.319092 -0.03,10.622329 -0.0358,10.898047 -0.23247,11.16938 -0.20332,0.280446 -0.71924,0.542909 -1.05921,0.538853 -0.10115,-0.0013 -0.33726,-0.07277 -0.52468,-0.159034 z m 10.31143,-29.428772 c 1.12804,-0.196966 1.87805,-1.024097 1.86808,-2.060176 -0.008,-0.806913 -0.42115,-1.431933 -1.20897,-1.827899 l -0.41282,-0.207482 -16.97666,-0.02572 c -11.77232,-0.01782 -17.14027,0.0059 -17.51034,0.07754 -0.37897,0.07332 -0.66964,0.215036 -1.00274,0.488866 -1.38403,1.137772 -0.75828,3.216778 1.07201,3.561692 0.58943,0.111074 33.5339,0.104491 34.17144,-0.0068 z m -9.11389,-7.444823 c -0.0523,-1.08752 -0.21156,-1.52709 -0.72813,-2.00953 -0.6968,-0.65075 -0.30117,-0.616882 -7.20601,-0.616882 h -6.25176 l -0.50522,0.291697 c -0.31254,0.180449 -0.62391,0.470993 -0.81646,0.761846 -0.28665,0.433007 -0.31427,0.55274 -0.34955,1.515469 l -0.0383,1.045317 h 7.97147 7.97146 z"
         id="path2" /></g></g></svg>
