<?xml version="1.0" encoding="UTF-8" standalone="no"?>
<!-- Created with Inkscape (http://www.inkscape.org/) -->

<svg
   width="50mm"
   height="50mm"
   viewBox="0 0 50 50"
   version="1.1"
   id="svg5"
   xml:space="preserve"
   inkscape:version="1.2.1 (9c6d41e410, 2022-07-14)"
   sodipodi:docname="import.svg"
   xmlns:inkscape="http://www.inkscape.org/namespaces/inkscape"
   xmlns:sodipodi="http://sodipodi.sourceforge.net/DTD/sodipodi-0.dtd"
   xmlns="http://www.w3.org/2000/svg"
   xmlns:svg="http://www.w3.org/2000/svg"><sodipodi:namedview
     id="namedview7"
     pagecolor="#505050"
     bordercolor="#ffffff"
     borderopacity="1"
     inkscape:showpageshadow="0"
     inkscape:pageopacity="0"
     inkscape:pagecheckerboard="1"
     inkscape:deskcolor="#505050"
     inkscape:document-units="mm"
     showgrid="false"
     inkscape:zoom="2.025849"
     inkscape:cx="117.97523"
     inkscape:cy="96.25594"
     inkscape:window-width="1536"
     inkscape:window-height="793"
     inkscape:window-x="-8"
     inkscape:window-y="-8"
     inkscape:window-maximized="1"
     inkscape:current-layer="g248" /><defs
     id="defs2" /><g
     inkscape:label="Capa 1"
     inkscape:groupmode="layer"
     id="layer1"
     transform="translate(-29.443673,-105.30865)"><g
       id="g248"
       transform="matrix(0.83249501,0,0,0.89139805,-59.648528,62.14663)"><path
         style="fill:#dddddd;fill-opacity:1;stroke-width:0.217138"
         d="m 115.73224,100.84633 c -0.25547,-0.10163 -0.67613,-0.447 -0.93478,-0.76747 l -0.47027,-0.582677 V 76.270008 53.043832 l 0.64168,-0.700064 0.64169,-0.700064 12.92917,-0.06027 12.92918,-0.06027 6.5544,6.387985 6.55441,6.387986 v 5.064574 5.064575 l 2.59421,0.07617 c 2.87484,0.08441 3.45895,0.296148 4.23386,1.534772 0.40228,0.643012 0.42857,1.125564 0.42857,7.866221 0,9.30565 0.13522,9.029114 -4.50729,9.217641 l -2.63938,0.107181 -0.10997,3.264964 c -0.10845,3.21961 -0.11845,3.27321 -0.71978,3.858547 l -0.6098,0.59358 -18.5257,0.0419 c -10.18913,0.023 -18.73472,-0.0413 -18.9902,-0.14292 z m 35.7662,-5.258059 V 93.123088 H 137.5486 123.59877 l -0.70663,-0.579492 c -1.26558,-1.037876 -1.30714,-1.315119 -1.30183,-8.684855 0.004,-6.17801 0.0385,-6.77802 0.43247,-7.624037 0.32646,-0.701032 0.65055,-1.01689 1.36984,-1.335066 0.90023,-0.398211 1.54737,-0.416989 14.52402,-0.421488 l 13.5818,-0.0047 v -3.950994 -3.950993 l -4.89385,-0.06833 c -7.27366,-0.101552 -7.2033,-0.02966 -7.2033,-7.361031 v -4.604488 h -10.99741 -10.99742 v 21.75792 21.75792 h 17.04599 17.04599 z M 134.0673,88.440447 c 0.52974,-0.266739 1.19663,-0.856259 1.53963,-1.361028 0.52901,-0.77849 0.6138,-1.135135 0.67425,-2.836084 0.0633,-1.782014 0.0171,-2.044757 -0.54987,-3.124617 -0.99155,-1.888562 -1.64109,-2.135783 -5.62284,-2.140111 l -3.24423,-0.0035 v 5.064547 5.064547 l 3.13426,-0.09658 c 2.67451,-0.08242 3.27134,-0.165611 4.0688,-0.567144 z m -3.90384,-4.462125 v -2.772131 l 1.02216,0.117037 c 1.56517,0.179212 1.93379,0.867019 1.85945,3.469517 -0.0317,1.109599 -0.58651,1.659982 -1.83685,1.822178 l -1.04476,0.135527 z m 10.94801,3.798279 c 0.45058,-0.700468 0.92114,-1.435937 1.0457,-1.634378 0.19039,-0.30329 0.38577,-0.108817 1.22572,1.219985 l 0.99924,1.580787 1.79857,0.06226 c 0.98921,0.03424 1.79857,0.0073 1.79857,-0.05991 0,-0.06719 -0.78203,-1.259813 -1.73785,-2.650269 l -1.73784,-2.528101 1.5179,-2.283692 c 0.83484,-1.25603 1.51789,-2.334206 1.51789,-2.395947 0,-0.06174 -0.76707,-0.112128 -1.7046,-0.111971 l -1.7046,2.14e-4 -0.76981,1.392865 c -0.42341,0.766035 -0.83554,1.392921 -0.91585,1.393079 -0.0803,1.57e-4 -0.50582,-0.626729 -0.94555,-1.393079 l -0.79951,-1.393364 h -1.76181 c -1.35217,0 -1.72284,0.0623 -1.59423,0.267954 0.0922,0.147376 0.79924,1.218279 1.57128,2.379787 l 1.40372,2.11183 -1.41007,2.068263 c -0.77554,1.137543 -1.58713,2.333536 -1.80355,2.657761 l -0.39347,0.589501 h 1.79047 1.79047 z m 10.82687,-0.754835 v -2.028413 l 2.03452,-0.06163 2.03452,-0.06164 0.067,-1.018228 0.067,-1.018228 h -2.10155 -2.10156 v -0.857454 -0.857455 h 2.41943 2.41943 v -1.071819 -1.071818 h -3.95907 -3.95907 v 5.037548 5.037548 h 1.53964 1.53964 z m -0.8798,-23.107699 c 0,-0.03055 -2.02902,-2.031292 -4.50894,-4.446087 l -4.50893,-4.390535 v 4.01736 c 0,5.279086 -0.41041,4.874814 4.94883,4.874814 2.23797,0 4.06904,-0.025 4.06904,-0.05555 z"
         id="path306" /></g></g></svg>
