<?xml version="1.0" encoding="UTF-8" standalone="no"?>
<!-- Created with Inkscape (http://www.inkscape.org/) -->

<svg
   width="101.717mm"
   height="101.717mm"
   viewBox="0 0 101.717 101.717"
   version="1.1"
   id="svg5"
   xml:space="preserve"
   sodipodi:docname="label.svg"
   inkscape:version="1.2.1 (9c6d41e410, 2022-07-14)"
   xmlns:inkscape="http://www.inkscape.org/namespaces/inkscape"
   xmlns:sodipodi="http://sodipodi.sourceforge.net/DTD/sodipodi-0.dtd"
   xmlns="http://www.w3.org/2000/svg"
   xmlns:svg="http://www.w3.org/2000/svg"><sodipodi:namedview
     id="namedview7"
     pagecolor="#505050"
     bordercolor="#ffffff"
     borderopacity="1"
     inkscape:showpageshadow="0"
     inkscape:pageopacity="0"
     inkscape:pagecheckerboard="1"
     inkscape:deskcolor="#505050"
     inkscape:document-units="mm"
     showgrid="false"
     inkscape:zoom="1.0129245"
     inkscape:cx="230.02701"
     inkscape:cy="248.78458"
     inkscape:window-width="1920"
     inkscape:window-height="1009"
     inkscape:window-x="1912"
     inkscape:window-y="-8"
     inkscape:window-maximized="1"
     inkscape:current-layer="layer1" /><defs
     id="defs2" /><g
     inkscape:label="Capa 1"
     inkscape:groupmode="layer"
     id="layer1"
     transform="translate(10.755335,-7.7050281)"><g
       id="g300"
       transform="rotate(45,35.3934,47.891538)"><path
         style="fill:#a0a0a0;stroke-width:0.189179"
         d="m 63.328968,39.757654 c 0.182319,-0.04842 0.435287,-0.04524 0.562152,0.0071 0.126864,0.05232 -0.02231,0.09194 -0.331488,0.08805 -0.309183,-0.0039 -0.412983,-0.0467 -0.230664,-0.09512 z m 2.198194,-0.703721 c 0,-0.03966 0.147565,-0.190065 0.327922,-0.334235 0.297202,-0.237568 0.30383,-0.230813 0.07075,0.07211 -0.244793,0.318143 -0.398671,0.419317 -0.398671,0.262124 z m -5.210217,-2.506272 c 0.0038,-0.315136 0.04582,-0.420934 0.09332,-0.235105 0.04751,0.185829 0.04439,0.443667 -0.007,0.572974 -0.05133,0.129307 -0.0902,-0.02273 -0.08638,-0.337869 z m 0.713005,-2.07752 c 0,-0.03966 0.147565,-0.190065 0.327922,-0.334235 0.297202,-0.237568 0.303829,-0.230813 0.07075,0.07211 -0.244792,0.318144 -0.39867,0.419318 -0.39867,0.262124 z"
         id="path314" /><path
         style="fill:#fd5959;stroke-width:0.189179"
         d="M 32.453911,103.7489 C 31.57569,103.47933 30.474812,102.40027 14.88205,86.525238 3.7712683,75.213321 -1.873151,69.335458 -2.1150287,68.825192 -2.6785964,67.636287 -2.7629038,66.636071 -2.406795,65.363696 L -2.0926898,64.241401 20.708434,40.984729 43.509559,17.728058 61.02995,17.779285 c 16.673599,0.04875 17.552088,0.06841 18.176234,0.406844 0.915492,0.496406 1.834213,1.417664 2.311873,2.318261 l 0.405193,0.763966 0.05026,17.857687 0.05026,17.857688 -22.817397,23.238568 C 36.908144,102.93211 36.365815,103.46772 35.371197,103.76198 c -1.229304,0.36369 -1.69663,0.3616 -2.917286,-0.0131 z M 65.574704,45.337488 c 1.677647,-0.445383 2.733166,-1.0391 4.007612,-2.254233 3.687354,-3.515747 3.767834,-9.197387 0.182049,-12.852205 -3.604917,-3.674317 -9.15114,-3.598234 -12.612326,0.173015 -1.196525,1.303713 -1.77888,2.378376 -2.216211,4.08973 -1.623674,6.353712 4.405173,12.498625 10.638876,10.843693 z"
         id="path312" /><path
         style="fill:#626262;stroke-width:0.189179"
         d="m -6.0534719,60.062977 c 0,-0.03966 0.1475648,-0.190065 0.3279218,-0.334235 0.2972013,-0.237568 0.303829,-0.230813 0.070748,0.07211 -0.2447925,0.318144 -0.3986695,0.419318 -0.3986695,0.262124 z M 66.687996,36.547661 c 0.0038,-0.315136 0.04582,-0.420934 0.09333,-0.235105 0.04751,0.185829 0.04438,0.443667 -0.007,0.572974 -0.05133,0.129307 -0.0902,-0.02273 -0.08638,-0.337869 z m -0.997352,-2.339644 c -0.233082,-0.302924 -0.226454,-0.309679 0.07075,-0.07211 0.312135,0.249506 0.411398,0.406346 0.257173,0.406346 -0.03891,0 -0.186475,-0.150406 -0.327921,-0.334235 z"
         id="path310" /><path
         style="fill:#8f3232;stroke-width:0.189179"
         d="m 57.170777,42.898122 -0.356964,-0.429731 0.421614,0.363837 c 0.231887,0.200109 0.421613,0.393488 0.421613,0.42973 0,0.152841 -0.150804,0.04 -0.486263,-0.363836 z m 15.138735,-5.777487 c 0.0038,-0.315136 0.04582,-0.420934 0.09332,-0.235105 0.04751,0.185829 0.04439,0.443667 -0.007,0.572974 -0.05133,0.129307 -0.0902,-0.02273 -0.08638,-0.337869 z m -0.007,-1.050453 c 0,-0.262613 0.04253,-0.370045 0.09451,-0.238739 0.05198,0.131307 0.05198,0.346172 0,0.477479 -0.05198,0.131306 -0.09451,0.02387 -0.09451,-0.23874 z m -9.633001,-8.530107 c 0.128826,-0.05298 0.339633,-0.05298 0.468459,0 0.128827,0.05298 0.02342,0.09633 -0.23423,0.09633 -0.257652,0 -0.363056,-0.04335 -0.234229,-0.09633 z m 1.221561,-0.0059 c 0.182318,-0.04842 0.435287,-0.04524 0.562151,0.0071 0.126865,0.05232 -0.0223,0.09194 -0.331488,0.08804 -0.309183,-0.0039 -0.412982,-0.0467 -0.230663,-0.09512 z M 80.49392,19.119669 c -0.233081,-0.302923 -0.226453,-0.309678 0.07075,-0.07211 0.312135,0.249505 0.411398,0.406344 0.257173,0.406344 -0.03891,0 -0.186475,-0.150405 -0.327922,-0.334235 z"
         id="path308" /><path
         style="fill:#792a2a;stroke-width:0.189179"
         d="M 14.558346,86.348645 -1.6499512,69.780149 14.605599,86.300483 c 8.940552,9.086185 16.255549,16.542007 16.255549,16.568497 0,0.0265 -0.02126,0.0482 -0.04725,0.0482 -0.02599,0 -7.340986,-7.455822 -16.25555,-16.568495 z M 59.437187,79.998184 C 71.804199,67.392758 81.964825,57.079227 82.016356,57.079227 c 0.05153,0 -10.024773,10.313531 -22.391785,22.918957 -12.367013,12.605427 -22.527638,22.918956 -22.579169,22.918956 -0.05153,0 10.024773,-10.313529 22.391785,-22.918956 z M 20.74242,40.74947 C 33.160965,28.09152 43.363754,17.735016 43.415284,17.735016 c 0.05153,0 -10.066935,10.356504 -22.48548,23.014454 C 8.5112594,53.407419 -1.6915294,63.763923 -1.74306,63.763923 c -0.05153,0 10.0669355,-10.356504 22.48548,-23.014453 z m 41.927139,4.743788 c 0.128826,-0.05298 0.339633,-0.05298 0.468459,0 0.128827,0.05298 0.02342,0.09633 -0.23423,0.09633 -0.257652,0 -0.363056,-0.04335 -0.234229,-0.09633 z m 1.323398,-0.004 c 0.135267,-0.05517 0.296887,-0.04839 0.359153,0.01507 0.06227,0.06346 -0.04841,0.108605 -0.245941,0.100312 -0.218293,-0.0092 -0.262694,-0.05442 -0.113212,-0.115389 z m -9.319264,-8.384561 c 0.009,-0.222495 0.05339,-0.267751 0.113209,-0.115391 0.05413,0.137871 0.04747,0.302601 -0.01478,0.366067 -0.06227,0.06347 -0.106554,-0.04934 -0.09842,-0.250676 z m 0.01479,-1.034543 c 0,-0.262613 0.04253,-0.370045 0.09451,-0.238739 0.05198,0.131307 0.05198,0.346172 0,0.477479 -0.05198,0.131306 -0.09451,0.02387 -0.09451,-0.23874 z"
         id="path306" /><path
         style="fill:#2c2c2c;stroke-width:0.189179"
         d="m 33.062909,109.66634 c 0.128826,-0.053 0.339633,-0.053 0.468459,0 0.128827,0.053 0.02342,0.0963 -0.234229,0.0963 -0.257653,0 -0.363057,-0.0434 -0.23423,-0.0963 z m 1.311687,0 c 0.128826,-0.053 0.339633,-0.053 0.468459,0 0.128827,0.053 0.02342,0.0963 -0.234229,0.0963 -0.257653,0 -0.363057,-0.0434 -0.23423,-0.0963 z M 63.747016,83.627019 C 76.423219,70.706457 86.83682,60.135088 86.888351,60.135088 c 0.05153,0 -10.277748,10.571369 -22.953951,23.491931 -12.676204,12.920562 -23.089805,23.491931 -23.141336,23.491931 -0.05153,0 10.277748,-10.571369 22.953952,-23.491931 z M 10.623285,90.359463 -5.5850122,73.790967 10.670538,90.311301 c 8.940552,9.086184 16.255549,16.542009 16.255549,16.568499 0,0.0265 -0.02126,0.0482 -0.04725,0.0482 -0.02599,0 -7.340986,-7.455824 -16.25555,-16.568497 z M -8.2724913,67.392758 c 0,-0.262613 0.042531,-0.370046 0.094514,-0.23874 0.051983,0.131307 0.051983,0.346172 0,0.477479 -0.051983,0.131306 -0.094514,0.02387 -0.094514,-0.238739 z m 0,-1.33694 c 0,-0.262613 0.042531,-0.370045 0.094514,-0.238739 0.051983,0.131307 0.051983,0.346172 0,0.477479 -0.051983,0.131306 -0.094514,0.02387 -0.094514,-0.23874 z M 17.369511,36.165678 c 12.624672,-12.86804 22.99611,-23.396436 23.047641,-23.396436 0.05153,0 -10.235585,10.528396 -22.860258,23.396436 -12.6246716,12.86804 -22.9961102,23.396436 -23.0476407,23.396436 -0.051531,0 10.2355853,-10.528396 22.8602577,-23.396436 z m 46.061294,9.323602 c 0.135267,-0.05517 0.296888,-0.04839 0.359153,0.01507 0.06227,0.06347 -0.04841,0.108605 -0.245941,0.100313 -0.218293,-0.0092 -0.262693,-0.05442 -0.113212,-0.11539 z m 6.204619,-15.29208 -0.454276,-0.525227 0.515305,0.463023 c 0.283418,0.254663 0.515306,0.491015 0.515306,0.525226 0,0.14979 -0.151744,0.02788 -0.576335,-0.463022 z m 17.830444,-8.371786 c 0.009,-0.222494 0.05339,-0.267751 0.11321,-0.115391 0.05413,0.137872 0.04747,0.302602 -0.01478,0.366067 -0.06227,0.06347 -0.106554,-0.04934 -0.09842,-0.250676 z m -2.662071,-6.334546 c -0.233081,-0.302922 -0.226453,-0.309678 0.07075,-0.07211 0.312135,0.249505 0.411397,0.406344 0.257173,0.406344 -0.03891,0 -0.186475,-0.150405 -0.327922,-0.334235 z m -0.749535,-0.763965 c -0.233081,-0.302923 -0.226454,-0.309678 0.07075,-0.07211 0.312135,0.249506 0.411398,0.406345 0.257174,0.406345 -0.03891,0 -0.186476,-0.150406 -0.327922,-0.334235 z m -6.194899,-2.661104 c 0.135266,-0.05517 0.296887,-0.04839 0.359153,0.01508 0.06227,0.06346 -0.04841,0.108605 -0.245942,0.100312 -0.218292,-0.0092 -0.262693,-0.05442 -0.113211,-0.115392 z"
         id="path304" /><path
         style="fill:#333333;stroke-width:0.189179"
         d="m 33.203447,109.66421 c -1.323764,-0.14292 -2.704354,-0.52916 -3.841369,-1.07467 C 28.234591,108.0486 26.854915,106.69137 10.795524,90.325098 -5.2805033,73.941865 -6.594994,72.553958 -7.1251075,71.403575 -7.8998738,69.722279 -8.1684457,68.416066 -8.1499613,66.419145 -8.1322196,64.502471 -7.6049361,62.657168 -6.6400975,61.13517 -6.3247042,60.637647 4.5398951,49.429014 17.503456,36.227099 L 41.073569,12.223614 42.10418,12.102385 c 0.566836,-0.06668 9.125594,-0.09319 19.019462,-0.05891 l 17.98885,0.06232 1.231511,0.4244 c 3.108492,1.071238 5.728445,3.74163 6.779449,6.909965 l 0.416384,1.25522 0.06114,18.335166 c 0.03363,10.084341 0.0079,18.807869 -0.05724,19.385618 L 87.42535,59.466618 63.593616,83.738703 C 41.38762,106.35501 39.678794,108.05054 38.543887,108.59354 c -1.656131,0.79237 -3.848012,1.23181 -5.34044,1.07067 z m 2.717066,-5.99552 c 0.65826,-0.30133 5.806504,-5.442797 23.469828,-23.43891 l 22.626601,-23.052901 -0.0019,-17.858767 -0.0019,-17.858765 -0.442928,-0.954957 c -0.532262,-1.147743 -1.231701,-1.849481 -2.364082,-2.371937 -0.828819,-0.3824 -1.142599,-0.389119 -18.364675,-0.393242 L 43.320007,17.735011 20.70253,40.797212 C 3.0463817,58.800589 -1.9979691,64.047946 -2.2936134,64.718879 c -0.504885,1.145784 -0.5047762,2.865473 2.623e-4,4.010818 0.5506575,1.248821 32.8277141,34.173353 34.1750641,34.860613 1.18706,0.6055 2.81818,0.63715 4.038808,0.0784 z M 61.123642,45.170712 c -2.526763,-0.852125 -4.385838,-2.493588 -5.487516,-4.84518 -0.68414,-1.460337 -0.696152,-1.525696 -0.696152,-3.788074 0,-2.284554 0.0055,-2.313398 0.718947,-3.784499 1.904384,-3.92665 6.031147,-5.88518 10.115663,-4.800817 1.552586,0.412182 2.494634,0.957521 3.731781,2.160277 1.836567,1.785512 2.766616,3.948838 2.766616,6.435242 0,3.475767 -1.857487,6.474525 -4.986908,8.050944 -1.372913,0.691593 -1.557572,0.733449 -3.431941,0.7779 -1.261208,0.02991 -2.253285,-0.04486 -2.73049,-0.205793 z m 4.177061,-5.792113 c 2.213075,-1.670806 1.873798,-4.927484 -0.614235,-5.895965 -2.604069,-1.013648 -5.189247,1.595828 -4.206748,4.246289 0.260932,0.703912 1.064091,1.567362 1.768225,1.900967 0.777023,0.368136 2.410382,0.233685 3.052758,-0.251291 z"
         id="path302" /></g></g></svg>
