<?xml version="1.0" encoding="UTF-8" standalone="no"?>
<!-- Created with Inkscape (http://www.inkscape.org/) -->

<svg
   width="50mm"
   height="50mm"
   viewBox="0 0 50 50"
   version="1.1"
   id="svg5"
   xml:space="preserve"
   inkscape:version="1.2.1 (9c6d41e410, 2022-07-14)"
   sodipodi:docname="rule.svg"
   xmlns:inkscape="http://www.inkscape.org/namespaces/inkscape"
   xmlns:sodipodi="http://sodipodi.sourceforge.net/DTD/sodipodi-0.dtd"
   xmlns="http://www.w3.org/2000/svg"
   xmlns:svg="http://www.w3.org/2000/svg"><sodipodi:namedview
     id="namedview7"
     pagecolor="#505050"
     bordercolor="#ffffff"
     borderopacity="1"
     inkscape:showpageshadow="0"
     inkscape:pageopacity="0"
     inkscape:pagecheckerboard="1"
     inkscape:deskcolor="#505050"
     inkscape:document-units="mm"
     showgrid="false"
     inkscape:zoom="1.0129245"
     inkscape:cx="246.81011"
     inkscape:cy="170.79259"
     inkscape:window-width="1536"
     inkscape:window-height="793"
     inkscape:window-x="-8"
     inkscape:window-y="-8"
     inkscape:window-maximized="1"
     inkscape:current-layer="g248" /><defs
     id="defs2" /><g
     inkscape:label="Capa 1"
     inkscape:groupmode="layer"
     id="layer1"
     transform="translate(-29.443673,-105.30865)"><g
       id="g248"
       transform="matrix(0.83249501,0,0,0.89139805,-59.648528,62.14663)"><g
         id="g1206"
         transform="translate(0.63563945,-0.59363678)"><path
           style="fill:#dddddd;fill-opacity:1;stroke-width:0.152551"
           d="m 128.15069,99.779681 c -1.09472,0.552019 -2.15038,0.591479 -3.36755,0.12589 -0.53995,-0.20654 -0.88038,-0.560464 -5.01465,-5.213407 -4.94341,-5.563608 -4.74551,-5.269793 -4.57063,-6.785227 0.17107,-1.48238 -0.9816,-0.511421 18.05882,-15.212008 16.22142,-12.524095 17.18339,-13.248292 17.76919,-13.376772 0.81198,-0.178081 1.8092,-0.09423 2.55717,0.215027 0.55909,0.231177 0.91679,0.602998 4.98726,5.184138 4.32873,4.871799 4.38723,4.943489 4.53271,5.610688 0.16717,0.764399 0.0326,1.683717 -0.35663,2.4368 -0.2375,0.459497 -1.95973,1.827877 -17.13426,13.613797 -9.27862,7.206629 -17.13628,13.237094 -17.46143,13.401074 z m -0.2539,-5.007567 c -1.21113,-1.425818 -1.24324,-1.480675 -1.13642,-1.944978 0.13869,-0.602895 0.39332,-0.800228 1.05337,-0.816341 0.50831,-0.01241 0.56016,0.02715 1.83731,1.401807 l 1.31421,1.414593 1.39511,-1.027039 1.39512,-1.027039 -2.10659,-2.370879 c -1.94538,-2.189443 -2.10757,-2.40694 -2.11977,-2.841876 -0.0169,-0.605048 0.21812,-0.901172 0.85972,-1.083004 0.28315,-0.08025 0.53932,-0.13918 0.56927,-0.13096 0.0299,0.0082 1.08243,1.114833 2.33886,2.459145 l 2.28441,2.444208 1.33625,-1.035573 1.33625,-1.035567 -1.23378,-1.503963 c -1.15169,-1.403959 -1.22748,-1.533165 -1.13934,-1.942719 0.12015,-0.558257 0.51761,-0.866203 1.12722,-0.873388 0.45232,-0.0053 0.55569,0.07611 1.83887,1.448493 l 1.35962,1.454147 1.31991,-1.022899 1.3199,-1.0229 -2.12761,-2.465023 c -2.03412,-2.356599 -2.12565,-2.484905 -2.08231,-2.917712 0.0545,-0.543891 0.65376,-1.03607 1.23329,-1.012832 0.3643,0.01461 0.59709,0.232358 2.61126,2.442631 l 2.21131,2.426582 1.39512,-1.027039 1.39512,-1.027039 -1.26794,-1.427004 c -1.21179,-1.363826 -1.26572,-1.449532 -1.21718,-1.936558 0.0647,-0.649408 0.53046,-1.01039 1.22582,-0.949985 0.52145,0.04529 0.60173,0.110573 1.81353,1.474399 l 1.26793,1.427005 1.33814,-1.09118 1.33813,-1.091173 -2.15096,-2.547618 c -1.18302,-1.401204 -2.15353,-2.571356 -2.15665,-2.600361 -0.003,-0.02899 0.10614,-0.253277 0.24281,-0.498384 0.30968,-0.555381 0.66466,-0.716541 1.29829,-0.589409 0.45549,0.09139 0.65444,0.280402 2.59982,2.469845 l 2.10659,2.370879 1.33814,-1.09118 1.33813,-1.091173 -1.24634,-1.467195 c -1.21112,-1.425814 -1.24324,-1.480675 -1.13641,-1.944984 0.13869,-0.602885 0.39333,-0.800224 1.05337,-0.816341 0.50832,-0.01241 0.56017,0.02715 1.83731,1.401807 l 1.31421,1.414593 0.82078,-0.576838 c 1.09437,-0.769132 1.50139,-1.250918 1.56081,-1.847529 l 0.0494,-0.495787 -4.0445,-4.551914 -4.04449,-4.551908 -0.64974,-0.05644 -0.64975,-0.05643 -16.9041,13.100338 -16.9041,13.100343 -0.0604,0.606809 -0.0604,0.606814 4.02632,4.531452 c 4.95801,5.580031 4.5172,5.337347 6.62564,3.64766 l 0.9585,-0.768124 z"
           id="path310"
           sodipodi:nodetypes="cssscscscsscccsccccscsssccccscscccccsccccccsscccccssscccccsccsccccccccccsscc" /><path
           style="fill:#0edddd;fill-opacity:1;stroke-width:0.152551"
           d="m 118.26966,79.133426 c -4.51672,0.514054 -5.84668,0.647569 -6.26187,0.628647 -0.50877,-0.02319 -0.92026,-0.368218 -1.02815,-0.862102 -0.0703,-0.32164 1.96599,-6.457204 2.23284,-6.727926 0.54823,-0.556172 1.32529,-0.586204 1.78485,-0.06898 0.32627,0.367192 0.29355,0.775861 -0.17652,2.205445 l -0.32767,0.996475 6.18064,-4.74022 c 3.39935,-2.607125 8.94234,-6.90283 12.31776,-9.546013 l 6.1371,-4.805786 -1.4254,0.181258 c -1.48751,0.189154 -1.89152,0.07993 -2.24366,-0.606581 -0.22306,-0.434834 0.1569,-1.198619 0.67921,-1.365338 0.57895,-0.184798 6.76519,-0.855652 7.22168,-0.783142 0.57914,0.09201 0.97872,0.593052 0.89861,1.12674 -0.14046,0.935352 -2.11047,6.480864 -2.37548,6.686873 -0.34902,0.27113 -1.29973,0.200457 -1.58251,-0.11781 -0.37345,-0.420294 -0.3641,-0.858567 0.0448,-2.098687 l 0.3992,-1.210852 -6.19111,4.74835 c -3.40513,2.61159 -8.95363,6.911566 -12.33,9.555501 l -6.13888,4.807151 1.36178,-0.137857 c 1.86606,-0.188908 2.46495,0.08704 2.36509,1.089746 -0.0674,0.676842 -0.4228,0.91768 -1.54225,1.045089 z"
           id="path964" /></g></g></g></svg>
