<?xml version="1.0" encoding="UTF-8" standalone="no"?>
<!-- Created with Inkscape (http://www.inkscape.org/) -->

<svg
   width="101.717mm"
   height="101.717mm"
   viewBox="0 0 101.717 101.717"
   version="1.1"
   id="svg5"
   xml:space="preserve"
   sodipodi:docname="update.svg"
   inkscape:version="1.2.1 (9c6d41e410, 2022-07-14)"
   xmlns:inkscape="http://www.inkscape.org/namespaces/inkscape"
   xmlns:sodipodi="http://sodipodi.sourceforge.net/DTD/sodipodi-0.dtd"
   xmlns="http://www.w3.org/2000/svg"
   xmlns:svg="http://www.w3.org/2000/svg"><sodipodi:namedview
     id="namedview7"
     pagecolor="#505050"
     bordercolor="#ffffff"
     borderopacity="1"
     inkscape:showpageshadow="0"
     inkscape:pageopacity="0"
     inkscape:pagecheckerboard="1"
     inkscape:deskcolor="#505050"
     inkscape:document-units="mm"
     showgrid="false"
     inkscape:zoom="0.71624579"
     inkscape:cx="51.658244"
     inkscape:cy="212.21765"
     inkscape:window-width="1920"
     inkscape:window-height="1009"
     inkscape:window-x="1912"
     inkscape:window-y="-8"
     inkscape:window-maximized="1"
     inkscape:current-layer="layer1" /><defs
     id="defs2" /><g
     inkscape:label="Capa 1"
     inkscape:groupmode="layer"
     id="layer1"
     transform="translate(10.755335,-7.7050281)"><path
       style="fill:#c8cc8e;fill-opacity:1;stroke:none;stroke-width:0.183609"
       d="m 56.505701,56.803999 c -1.533503,-0.968537 -4.03499,-2.575116 -5.875485,-2.754135 -2.495435,-0.242548 -4.358331,2.279139 -3.427432,4.590226 0.939158,2.331468 2.9987,4.575721 4.467942,6.609926 3.051031,4.224659 5.815999,8.65643 8.905038,12.852627 1.361832,1.850231 3.134943,6.145579 5.661219,6.426319 3.4445,0.38264 5.224953,-3.797955 6.854673,-6.242705 4.261559,-6.39235 9.481013,-12.421886 13.281176,-19.09534 1.430131,-2.511772 -0.693498,-5.768629 -3.611039,-5.079912 -2.019889,0.477017 -3.764722,1.982978 -5.691885,2.692994 0,-4.774202 -0.06391,-9.33707 -1.346405,-13.954286 -3.5319,-12.714375 -13.825019,-22.156965 -26.378554,-25.644067 -7.775473,-2.159867 -16.762773,-1.331019 -24.052782,2.111503 -2.131151,1.006361 -6.009709,2.191227 -6.242712,4.988052 -0.148166,1.779134 1.330799,3.542185 3.121356,3.641517 1.924776,0.107044 4.110826,-1.065189 6.059099,-1.2546 4.194919,-0.407832 8.967835,0.03221 12.852632,1.866753 7.060323,3.333973 12.87118,9.101683 14.811195,16.861368 0.923182,3.692928 0.611964,7.593886 0.611964,11.38376 M 2.5246484,55.702345 c 0,5.024645 0.1821563,9.836304 1.5300676,14.688724 3.3676827,12.123701 14.109377,21.888216 26.194896,24.909684 7.919427,1.979855 16.619741,1.39855 24.052781,-2.111505 2.131151,-1.00654 6.007502,-2.164745 6.242712,-4.988103 0.148166,-1.779177 -1.330799,-3.542184 -3.121356,-3.641517 -1.923124,-0.106862 -4.110458,1.065111 -6.059099,1.254595 C 46.234613,86.312906 40.869372,85.346941 36.30871,82.876481 29.730366,79.313179 24.119452,72.50606 23.272466,64.882797 c -0.335084,-3.015778 0.18251,-6.196621 -0.367221,-9.180452 1.927163,0.710016 3.672003,2.215978 5.691885,2.692995 2.835106,0.669254 4.864718,-2.45008 3.641517,-4.896304 -1.096331,-2.192842 -2.881011,-4.257526 -4.314813,-6.242707 -2.783331,-3.853953 -5.503317,-7.796039 -8.139938,-11.750977 -1.35669,-2.034939 -3.788407,-7.234931 -6.426319,-7.527971 -3.4444335,-0.382714 -5.2249219,3.797953 -6.8547317,6.242708 -4.2627048,6.394 -9.4790498,12.41858 -13.281058,19.095339 -1.4302699,2.511771 0.6935181,5.768629 3.6109762,5.079912 2.0199585,-0.477017 3.76472207,-1.982979 5.6918849,-2.692995 z"
       id="path1109" /></g></svg>
