<?xml version="1.0" encoding="UTF-8" standalone="no"?>
<!-- Created with Inkscape (http://www.inkscape.org/) -->

<svg
   width="101.717mm"
   height="101.717mm"
   viewBox="0 0 101.717 101.717"
   version="1.1"
   id="svg5"
   xml:space="preserve"
   sodipodi:docname="draw_not.svg"
   inkscape:version="1.2.1 (9c6d41e410, 2022-07-14)"
   xmlns:inkscape="http://www.inkscape.org/namespaces/inkscape"
   xmlns:sodipodi="http://sodipodi.sourceforge.net/DTD/sodipodi-0.dtd"
   xmlns="http://www.w3.org/2000/svg"
   xmlns:svg="http://www.w3.org/2000/svg"><sodipodi:namedview
     id="namedview7"
     pagecolor="#505050"
     bordercolor="#ffffff"
     borderopacity="1"
     inkscape:showpageshadow="0"
     inkscape:pageopacity="0"
     inkscape:pagecheckerboard="1"
     inkscape:deskcolor="#505050"
     inkscape:document-units="mm"
     showgrid="false"
     inkscape:zoom="0.3581229"
     inkscape:cx="201.0483"
     inkscape:cy="368.58855"
     inkscape:window-width="1536"
     inkscape:window-height="793"
     inkscape:window-x="-8"
     inkscape:window-y="-8"
     inkscape:window-maximized="1"
     inkscape:current-layer="layer1" /><defs
     id="defs2" /><g
     inkscape:label="Capa 1"
     inkscape:groupmode="layer"
     id="layer1"
     transform="translate(10.755335,-7.7050281)"><path
       style="fill:#999999;stroke-width:0.227324;fill-opacity:1"
       d="m 74.026551,96.812525 c -0.312577,-0.122301 -2.729044,-2.377979 -5.369946,-5.0126 l -4.801619,-4.790241 -1.981994,1.170679 C 50.334368,94.995712 39.425797,96.477636 28.281535,92.74376 25.367045,91.767263 19.379695,88.785058 16.502115,86.876529 8.244805,81.400175 0.701545,74.057795 -6.432855,64.55238 c -2.39798,-3.19505 -3.42248,-4.944454 -3.42248,-5.844431 0,-0.890179 0.53751,-1.880291 2.50172,-4.608168 4.26462,-5.922695 10.54633,-12.889476 15.28765,-16.954989 1.28082,-1.098136 2.52951,-2.181464 2.77509,-2.407397 0.43821,-0.403291 0.38782,-0.469903 -2.76506,-3.652053 -2.64775,-2.672504 -3.23905,-3.390846 -3.37008,-4.093729 -0.21889,-1.176457 0.035,-2.308035 0.69205,-3.089503 0.76601,-0.910318 1.70958,-1.251597 3.0929,-1.118674 l 1.15987,0.111442 34.568269,34.568318 34.568317,34.568329 0.09255,1.322629 c 0.07747,1.107506 0.0061,1.452052 -0.443549,2.11827 -0.921127,1.366983 -2.747107,1.938992 -4.277874,1.340101 z M 44.929306,87.392244 c 2.84218,-0.459837 6.828843,-1.809418 10.031049,-3.395735 4.008187,-1.985609 3.922857,-1.50544 0.819077,-4.609219 l -2.662838,-2.662833 -0.62698,0.401493 c -4.227247,2.707005 -9.064319,3.906578 -14.272831,3.539578 -8.643706,-0.609029 -16.364968,-6.828257 -19.049918,-15.344099 -1.89635,-6.01456 -1.10358,-12.593702 2.17219,-18.027987 l 0.88269,-1.46428 -3.16047,-3.16044 -3.16043,-3.160445 -2.13713,1.775784 c -4.38941,3.647214 -9.87199,9.485751 -13.93175,14.836234 l -1.96431,2.588821 0.61169,0.821011 c 6.68598,8.97463 14.05466,16.284613 21.3491,21.178605 5.31172,3.563777 10.409449,5.744968 15.66699,6.703572 2.224103,0.40551 6.864434,0.395646 9.433871,-0.02002 z M 44.588325,73.180861 c 1.734343,-0.536105 3.296169,-1.260485 3.296169,-1.52876 0,-0.293712 -4.836211,-4.950868 -13.042884,-12.559984 -8.955305,-8.303255 -8.128859,-7.846638 -9.041665,-4.99558 -0.68344,2.134702 -0.82835,5.873108 -0.31092,8.021754 1.377574,5.720634 5.841615,10.106055 11.601266,11.396987 2.100077,0.470684 5.364487,0.325104 7.498034,-0.334417 z m 28.369982,3.405596 c -0.681618,-0.3374 -1.087875,-0.747877 -1.420757,-1.435527 -0.898777,-1.856615 -0.631134,-2.667687 1.704338,-5.165017 2.555655,-2.732779 5.46946,-6.17021 7.474011,-8.817147 1.525388,-2.014236 1.741407,-2.409961 1.544779,-2.829932 C 81.712353,57.167729 75.894791,50.27211 72.665495,46.965572 66.434181,40.585238 60.884166,36.362259 54.861722,33.418766 c -5.626044,-2.749745 -9.41466,-3.712232 -14.592527,-3.707154 -3.652982,0.004 -5.562685,0.287716 -9.014744,1.341297 -2.261993,0.690368 -3.195241,0.627263 -4.285069,-0.289772 -1.891337,-1.59147 -1.787957,-4.104511 0.228787,-5.560879 0.31258,-0.225712 1.488979,-0.674998 2.614217,-0.998416 10.785779,-3.099998 21.35991,-1.400818 32.279753,5.187103 8.481186,5.116696 17.179067,13.327299 24.591754,23.214072 3.319571,4.42753 3.560274,4.87321 3.436705,6.363253 -0.08881,1.070345 -0.304865,1.502856 -1.852187,3.706503 -3.744941,5.333489 -10.872443,13.457733 -12.347252,14.073947 -1.035716,0.432739 -1.850997,0.388094 -2.962852,-0.162263 z"
       id="path248" /></g></svg>
