<?xml version="1.0" encoding="UTF-8" standalone="no"?>
<!-- Created with Inkscape (http://www.inkscape.org/) -->

<svg
   width="101.717mm"
   height="101.717mm"
   viewBox="0 0 101.717 101.717"
   version="1.1"
   id="svg5"
   xml:space="preserve"
   sodipodi:docname="draw.svg"
   inkscape:version="1.2.1 (9c6d41e410, 2022-07-14)"
   xmlns:inkscape="http://www.inkscape.org/namespaces/inkscape"
   xmlns:sodipodi="http://sodipodi.sourceforge.net/DTD/sodipodi-0.dtd"
   xmlns="http://www.w3.org/2000/svg"
   xmlns:svg="http://www.w3.org/2000/svg"><sodipodi:namedview
     id="namedview7"
     pagecolor="#505050"
     bordercolor="#ffffff"
     borderopacity="1"
     inkscape:showpageshadow="0"
     inkscape:pageopacity="0"
     inkscape:pagecheckerboard="1"
     inkscape:deskcolor="#505050"
     inkscape:document-units="mm"
     showgrid="false"
     inkscape:zoom="1.0129245"
     inkscape:cx="193.49912"
     inkscape:cy="152.03502"
     inkscape:window-width="1920"
     inkscape:window-height="1009"
     inkscape:window-x="1912"
     inkscape:window-y="-8"
     inkscape:window-maximized="1"
     inkscape:current-layer="layer1" /><defs
     id="defs2" /><g
     inkscape:label="Capa 1"
     inkscape:groupmode="layer"
     id="layer1"
     transform="translate(10.755335,-7.7050281)"><path
       style="fill:#fd5959;stroke-width:0.195475;fill-opacity:1"
       d="M 35.942306,92.098095 C 24.988435,90.723232 14.20229,85.424755 3.290112,76.05836 -1.3786296,72.050975 -8.1146359,64.866638 -9.1092458,62.83373 -10.108313,60.791705 -9.9360428,58.170546 -8.6803688,56.308169 -7.1722772,54.07141 -0.59670672,47.25578 3.2979382,43.892558 12.49725,35.948487 21.827112,30.811348 30.859947,28.716569 c 4.659202,-1.080503 10.636031,-1.315499 15.456772,-0.607728 12.089014,1.774886 24.386777,8.917118 36.569843,21.238848 5.323963,5.384552 6.584318,6.94713 7.13704,8.84842 0.407901,1.403122 0.240407,3.271284 -0.412356,4.599388 -0.643159,1.308555 -3.838287,5.010606 -7.346905,8.512515 C 71.055713,82.495205 59.17697,89.43143 47.406876,91.661964 c -1.715489,0.325103 -3.095065,0.424635 -6.479955,0.467515 -2.365252,0.02999 -4.608327,0.01581 -4.984615,-0.0314 z m 9.871494,-6.41495 c 10.378106,-1.829028 20.552185,-7.644273 31.159278,-17.809855 2.845955,-2.727488 7.056133,-7.438509 7.056133,-7.895518 0,-0.660004 -4.693216,-5.762643 -8.731482,-9.493197 C 66.95111,42.773957 58.466241,37.613803 50.263513,35.259772 46.390089,34.148169 44.519297,33.893005 40.242759,33.893005 c -4.276538,0 -6.14733,0.255164 -10.020762,1.366767 -8.1282,2.332643 -16.773602,7.593352 -25.0612633,15.24973 -4.0065183,3.701335 -8.7044286,8.810305 -8.7044286,9.466053 0,0.716781 5.5794055,6.653323 9.773762,10.399392 10.2294029,9.136095 20.4006409,14.381641 30.2009209,15.57532 2.119134,0.258108 7.227831,0.112667 9.382812,-0.267122 z m -9.773758,-4.598288 c -4.327943,-0.87351 -8.18139,-3.000394 -11.277777,-6.224697 -4.020419,-4.1865 -6.021783,-9.135098 -6.021783,-14.889555 0,-6.084029 2.303058,-11.410858 6.761266,-15.638363 2.485108,-2.356512 4.980087,-3.839623 8.192591,-4.869995 2.61202,-0.837776 4.371992,-1.059786 7.46781,-0.942026 4.10566,0.15617 7.581341,1.237774 10.82775,3.369504 1.747885,1.147737 5.089503,4.443163 6.144079,6.059156 2.442176,3.742279 3.590433,7.548502 3.604234,11.947253 0.01877,5.972167 -2.223054,11.305616 -6.494095,15.450092 -3.267649,3.170822 -6.925601,5.049276 -11.385067,5.846549 -2.122688,0.379494 -5.644907,0.33088 -7.819008,-0.107918 z m 8.16827,-6.244047 c 2.942051,-0.759069 5.984963,-2.726482 7.965623,-5.15021 1.211484,-1.482507 2.598529,-4.256162 3.052317,-6.103697 0.508822,-2.071614 0.46736,-5.632819 -0.0883,-7.584281 -1.537393,-5.399255 -5.52491,-9.387046 -10.927208,-10.927952 -2.162022,-0.61668 -5.773946,-0.61668 -7.935975,0 -5.401988,1.540818 -9.387127,5.525956 -10.927947,10.927952 -0.61648,2.161319 -0.616665,5.774019 -3.91e-4,7.934467 2.359156,8.270712 10.600915,13.035127 18.861904,10.903721 z"
       id="path3190" /></g></svg>
