<?xml version="1.0" encoding="UTF-8" standalone="no"?>
<!-- Created with Inkscape (http://www.inkscape.org/) -->

<svg
   width="130mm"
   height="130.00003mm"
   viewBox="0 0 130 130.00003"
   version="1.1"
   id="svg5"
   xml:space="preserve"
   inkscape:version="1.2.1 (9c6d41e410, 2022-07-14)"
   sodipodi:docname="view_two.svg"
   xmlns:inkscape="http://www.inkscape.org/namespaces/inkscape"
   xmlns:sodipodi="http://sodipodi.sourceforge.net/DTD/sodipodi-0.dtd"
   xmlns="http://www.w3.org/2000/svg"
   xmlns:svg="http://www.w3.org/2000/svg"><sodipodi:namedview
     id="namedview7"
     pagecolor="#ffffff"
     bordercolor="#111111"
     borderopacity="1"
     inkscape:showpageshadow="0"
     inkscape:pageopacity="0"
     inkscape:pagecheckerboard="1"
     inkscape:deskcolor="#d1d1d1"
     inkscape:document-units="mm"
     showgrid="false"
     inkscape:zoom="1.3059905"
     inkscape:cx="144.33489"
     inkscape:cy="289.05264"
     inkscape:window-width="2400"
     inkscape:window-height="1261"
     inkscape:window-x="2391"
     inkscape:window-y="-9"
     inkscape:window-maximized="1"
     inkscape:current-layer="layer1" /><defs
     id="defs2" /><g
     inkscape:label="Capa 1"
     inkscape:groupmode="layer"
     id="layer1"
     transform="translate(-29.240293,-95.506875)"><path
       style="fill:#7f7f7f;fill-opacity:1;stroke-width:0.25438"
       d="m 29.617731,104.2229 c 1.148147,-4.244863 4.557769,-7.528956 8.733328,-8.411792 1.906562,-0.403104 109.829291,-0.406934 111.762081,-0.0037 3.17228,0.661386 6.31167,3.034852 7.74851,5.858042 1.45983,2.86846 1.37781,-0.62953 1.37781,58.75513 0,39.04406 -0.0807,55.01874 -0.28288,55.98002 -0.89674,4.26416 -4.54177,7.89183 -8.84344,8.80134 -1.92323,0.40663 -109.83884,0.40663 -111.762081,0 -4.301675,-0.90951 -7.946693,-4.53718 -8.843449,-8.80134 -0.202473,-0.96278 -0.278109,-16.90789 -0.266094,-56.09681 0.01416,-46.27864 0.07236,-54.95735 0.376215,-56.08061 z m 7.768221,111.62548 c 0.330381,0.6448 0.871839,1.18391 1.519429,1.51288 0.995893,0.50587 1.418896,0.51107 41.550294,0.51107 h 8.932738 v -57.36824 -57.36826 l -9.241246,0.0656 -40.852659,0.0656 -0.792763,0.56304 c -1.755858,1.24708 -1.616852,-3.60161 -1.623279,56.62265 -0.0058,54.01959 -0.002,54.40043 0.507486,55.39534 z m 101.522778,1.96874 c 10.14988,-0.0175 10.2696,-0.0779 11.05806,-0.63782 1.76257,-1.25185 1.62475,3.55568 1.62475,-56.67293 0,-60.22859 0.13782,-55.42107 -1.62475,-56.67291 -0.78846,-0.55997 -0.90841,-0.56689 -11.05806,-0.63784 l -41.872391,-0.0719 v 57.38247 57.38247 z"
       id="path248"
       sodipodi:nodetypes="csccssssssccssscccccssssscssccccs" /><rect
       style="fill:#e7c760;fill-opacity:1;stroke:none;stroke-width:44.7691;stroke-linecap:round;stroke-linejoin:round;stroke-opacity:0"
       id="rect9080-6-6"
       width="12.677638"
       height="114.86272"
       x="87.294456"
       y="103.08434" /></g></svg>
