<?xml version="1.0" encoding="UTF-8" standalone="no"?>
<!-- Created with Inkscape (http://www.inkscape.org/) -->

<svg
   width="122.60207mm"
   height="122.58425mm"
   viewBox="0 0 122.60207 122.58425"
   version="1.1"
   id="svg5"
   xml:space="preserve"
   inkscape:version="1.2.1 (9c6d41e410, 2022-07-14)"
   sodipodi:docname="zoom_extend.svg"
   xmlns:inkscape="http://www.inkscape.org/namespaces/inkscape"
   xmlns:sodipodi="http://sodipodi.sourceforge.net/DTD/sodipodi-0.dtd"
   xmlns="http://www.w3.org/2000/svg"
   xmlns:svg="http://www.w3.org/2000/svg"><sodipodi:namedview
     id="namedview7"
     pagecolor="#ffffff"
     bordercolor="#111111"
     borderopacity="1"
     inkscape:showpageshadow="0"
     inkscape:pageopacity="0"
     inkscape:pagecheckerboard="1"
     inkscape:deskcolor="#d1d1d1"
     inkscape:document-units="mm"
     showgrid="false"
     inkscape:zoom="2.6119809"
     inkscape:cx="196.97694"
     inkscape:cy="377.29985"
     inkscape:window-width="1920"
     inkscape:window-height="991"
     inkscape:window-x="-9"
     inkscape:window-y="-9"
     inkscape:window-maximized="1"
     inkscape:current-layer="g194" /><defs
     id="defs2" /><g
     inkscape:label="Capa 1"
     inkscape:groupmode="layer"
     id="layer1"
     transform="translate(-31.130953,-43.286474)"><g
       id="g194"
       transform="translate(55.105047,-19.448841)"><path
         style="fill:#e8c8c8;stroke-width:0.264583"
         d="m 218.88488,328.20713 12.10468,-12.17011 12.10469,12.17011 12.10469,12.1701 -12.10469,-12.03708 -12.10469,-12.03709 -12.10468,12.03709 -12.10469,12.03708 z m -10.12104,-9.98802 12.03708,-12.10469 -12.03708,-12.10468 -12.03709,-12.10469 12.17011,12.10469 12.17011,12.10468 -12.17011,12.10469 -12.17011,12.10469 z m 44.18577,-0.0665 -12.03672,-12.03891 12.16974,-12.10432 12.16974,-12.10432 -12.03708,12.10469 -12.03709,12.10468 12.03636,12.03854 c 6.62,6.6212 11.97683,12.03855 11.90407,12.03855 -0.0728,0 -5.54882,-5.41751 -12.16902,-12.03891 z m -34.13197,-34.19703 -12.03745,-12.10469 12.10469,12.03745 12.10468,12.03746 12.10469,-12.03746 12.10469,-12.03745 -12.03746,12.10469 c -6.62059,6.65758 -12.09796,12.10469 -12.17192,12.10469 -0.074,0 -5.55132,-5.44711 -12.17192,-12.10469 z"
         id="path204" /><path
         style="fill:#f4aeae;stroke-width:0.264583"
         d="m 142.66334,184.91037 c 0.191,-0.0764 0.41921,-0.067 0.50712,0.0209 0.0879,0.0879 -0.0683,0.15045 -0.34726,0.13897 -0.30823,-0.0127 -0.37092,-0.0754 -0.15986,-0.15986 z M 86.307097,113.20829 c 0.190995,-0.0764 0.419198,-0.067 0.507119,0.0209 0.08792,0.0879 -0.06835,0.15045 -0.347265,0.13897 -0.308227,-0.0127 -0.37092,-0.0754 -0.159854,-0.15986 z m 56.356243,0 c 0.191,-0.0764 0.41921,-0.067 0.50712,0.0209 0.0879,0.0879 -0.0683,0.15045 -0.34726,0.13897 -0.30823,-0.0127 -0.37092,-0.0754 -0.15986,-0.15986 z"
         id="path202" /><path
         style="fill:#f76c6c;stroke-width:0.264583"
         d="m 95.286394,210.31588 c 0.181901,-0.0734 0.479557,-0.0734 0.661458,0 0.181901,0.0734 0.03307,0.13345 -0.330729,0.13345 -0.363802,0 -0.51263,-0.0601 -0.330729,-0.13345 z m 38.099996,0 c 0.1819,-0.0734 0.47956,-0.0734 0.66146,0 0.1819,0.0734 0.0331,0.13345 -0.33073,0.13345 -0.3638,0 -0.51263,-0.0601 -0.33073,-0.13345 z m -65.972529,-11.79717 -0.504028,-0.59531 0.595312,0.50402 c 0.559447,0.47367 0.715762,0.6866 0.504028,0.6866 -0.05021,0 -0.318097,-0.26789 -0.595312,-0.59531 z m 94.216799,0.0661 c 0.26339,-0.29104 0.53842,-0.52916 0.61118,-0.52916 0.0728,0 -0.0832,0.23812 -0.3466,0.52916 -0.26339,0.29105 -0.53842,0.52917 -0.61118,0.52917 -0.0728,0 0.0832,-0.23812 0.3466,-0.52917 z m -96.598049,-2.44739 -0.504028,-0.59531 0.595312,0.50402 c 0.327422,0.27722 0.595313,0.54511 0.595313,0.59532 0,0.21173 -0.212935,0.0554 -0.686597,-0.50403 z m 98.979299,0.0661 c 0.26339,-0.29104 0.53842,-0.52916 0.61118,-0.52916 0.0728,0 -0.0832,0.23812 -0.3466,0.52916 -0.26339,0.29105 -0.53842,0.52917 -0.61118,0.52917 -0.0728,0 0.0832,-0.23812 0.3466,-0.52917 z M 53.325568,168.15777 c 0,-0.3638 0.06005,-0.51263 0.133452,-0.33073 0.0734,0.1819 0.0734,0.47956 0,0.66146 -0.0734,0.1819 -0.133452,0.0331 -0.133452,-0.33073 z m 122.502072,0 c 0,-0.3638 0.0601,-0.51263 0.13346,-0.33073 0.0734,0.1819 0.0734,0.47956 0,0.66146 -0.0734,0.1819 -0.13346,0.0331 -0.13346,-0.33073 z m -122.502072,-38.1 c 0,-0.3638 0.06005,-0.51263 0.133452,-0.33073 0.0734,0.18191 0.0734,0.47956 0,0.66146 -0.0734,0.1819 -0.133452,0.0331 -0.133452,-0.33073 z m 122.502072,0 c 0,-0.3638 0.0601,-0.51263 0.13346,-0.33073 0.0734,0.18191 0.0734,0.47956 0,0.66146 -0.0734,0.1819 -0.13346,0.0331 -0.13346,-0.33073 z M 65.057749,102.01194 c 0.263389,-0.29104 0.538421,-0.52916 0.611181,-0.52916 0.07276,0 -0.08321,0.23812 -0.346597,0.52916 -0.263389,0.29104 -0.538421,0.52917 -0.611181,0.52917 -0.07276,0 0.08321,-0.23813 0.346597,-0.52917 z m 99.052701,0.0662 c -0.3291,-0.41965 -0.31975,-0.429 0.0999,-0.0999 0.44073,0.34565 0.58089,0.56292 0.36312,0.56292 -0.0549,0 -0.2633,-0.20836 -0.46302,-0.46302 z M 67.306708,99.795381 c 0,-0.05494 0.208359,-0.263302 0.46302,-0.463021 0.419644,-0.329108 0.429003,-0.319749 0.0999,0.0999 -0.345643,0.440729 -0.562915,0.58089 -0.562915,0.363126 z m 94.157912,-0.363126 c -0.32911,-0.419644 -0.31975,-0.429003 0.0999,-0.0999 0.25466,0.199719 0.46302,0.408078 0.46302,0.463021 0,0.217764 -0.21728,0.0776 -0.56292,-0.363126 z M 95.286394,87.813798 c 0.181901,-0.0734 0.479557,-0.0734 0.661458,0 0.181901,0.0734 0.03307,0.133452 -0.330729,0.133452 -0.363802,0 -0.51263,-0.06005 -0.330729,-0.133452 z m 38.099996,0 c 0.1819,-0.0734 0.47956,-0.0734 0.66146,0 0.1819,0.0734 0.0331,0.133452 -0.33073,0.133452 -0.3638,0 -0.51263,-0.06005 -0.33073,-0.133452 z"
         id="path200" /><path
         style="fill:#7f7f7f;fill-opacity:1;stroke-width:0.311532"
         d="m -21.578711,182.76443 -1.064953,-1.07037 0.08609,-15.66472 0.08609,-15.66471 1.014816,-0.91117 c 1.344884,-1.20753 2.043207,-1.14947 3.425731,0.28479 0.634046,0.6578 3.151954,3.07208 5.595347,5.3651 l 4.4425202,4.16913 7.98716595,-7.98279 c 8.63693515,-8.63221 8.99198535,-8.88903 11.90002785,-8.60818 2.930557,0.28302 5.520955,2.88657 5.802543,5.83204 0.279345,2.92206 0.02232,3.28132 -8.5433542,11.93912 l -7.9211138,8.00636 2.5976681,2.44651 c 5.8163185,5.47785 8.3053149,8.10668 8.5274629,9.00647 0.281894,1.14179 -0.60951,2.95068 -1.73477,3.52031 -0.592444,0.29991 -4.3800963,0.39435 -15.956608,0.39786 l -15.179764,0.004 z m 85.437983,0.56648 c -0.552253,-0.27374 -1.215869,-0.97258 -1.50494,-1.58486 -0.963161,-2.04003 -0.594757,-2.68684 4.871692,-8.55321 l 4.997839,-5.36347 -7.794414,-7.84768 c -5.119207,-5.15419 -7.958275,-8.24622 -8.27182,-9.00887 -1.726619,-4.19964 1.497589,-8.98931 6.051236,-8.98931 0.869839,0 2.02904,0.22454 2.575998,0.49898 0.54697,0.27444 4.508079,4.0157 8.802452,8.31389 l 7.807967,7.81492 5.348275,-5.03449 c 4.899184,-4.61178 5.443804,-5.03441 6.486173,-5.03336 1.421975,0.001 2.978873,0.93153 3.608759,2.15578 0.69131,1.34365 0.726437,30.19133 0.0384,31.52863 -0.820112,1.594 -0.963479,1.60746 -17.051062,1.5998 -12.965146,-0.005 -15.111494,-0.073 -15.966546,-0.49675 z M 8.7581493,104.65385 C 8.1299551,104.37348 4.35831,100.84536 -0.17100242,96.301277 l -7.84156828,-7.867143 -5.4272803,5.422698 c -5.26591,5.26147 -5.457771,5.416579 -6.452583,5.216847 -0.563917,-0.113202 -1.374882,-0.556917 -1.802148,-0.986006 l -0.776859,-0.780136 -0.08609,-15.632009 -0.08609,-15.632021 1.073373,-1.078829 1.073373,-1.078828 15.5529023,0.08654 15.5528997,0.08655 0.776187,0.780807 c 0.426905,0.429445 0.863744,1.221329 0.970738,1.759742 0.224556,1.129864 0.270301,1.07112 -6.3515784,8.156564 l -4.1594788,4.45065 5.7462274,6.012168 c 10.2483958,10.72269 10.3995148,10.932127 10.1057338,14.00513 -0.179163,1.874109 -1.344273,3.725149 -3.065207,4.869809 -1.56828,1.04311 -4.223742,1.29632 -5.8733509,0.56005 z m 50.3402417,-0.0224 c -3.304504,-1.43864 -5.03157,-5.656384 -3.5432,-8.653025 0.27305,-0.549751 3.995368,-4.53101 8.271819,-8.847228 l 7.775376,-7.847681 -5.009033,-5.37547 c -4.699302,-5.043123 -5.009019,-5.450747 -5.009019,-6.592356 0,-0.903102 0.23374,-1.479835 0.906552,-2.236826 l 0.906554,-1.019976 15.585433,-0.08654 15.585434,-0.08655 1.073372,1.07883 1.073363,1.078827 -0.08608,15.666131 -0.08608,15.666124 -0.869288,0.751371 c -1.210831,1.046568 -2.262794,1.246484 -3.482611,0.661828 -0.56293,-0.269808 -3.361325,-2.695603 -6.218641,-5.390638 l -5.195126,-4.900084 -7.809646,7.835756 c -5.12932,5.146457 -8.206168,8.000437 -8.964951,8.315587 -1.453475,0.60365 -3.493275,0.59612 -4.904176,-0.0181 z"
         id="path3037" /></g></g></svg>
