<?xml version="1.0" encoding="UTF-8" standalone="no"?>
<!-- Created with Inkscape (http://www.inkscape.org/) -->

<svg
   width="130mm"
   height="127.92004mm"
   viewBox="0 0 130 127.92004"
   version="1.1"
   id="svg5"
   xml:space="preserve"
   inkscape:version="1.2.1 (9c6d41e410, 2022-07-14)"
   sodipodi:docname="zoom_window.svg"
   xmlns:inkscape="http://www.inkscape.org/namespaces/inkscape"
   xmlns:sodipodi="http://sodipodi.sourceforge.net/DTD/sodipodi-0.dtd"
   xmlns="http://www.w3.org/2000/svg"
   xmlns:svg="http://www.w3.org/2000/svg"><sodipodi:namedview
     id="namedview7"
     pagecolor="#ffffff"
     bordercolor="#111111"
     borderopacity="1"
     inkscape:showpageshadow="0"
     inkscape:pageopacity="0"
     inkscape:pagecheckerboard="1"
     inkscape:deskcolor="#d1d1d1"
     inkscape:document-units="mm"
     showgrid="false"
     inkscape:zoom="0.32649763"
     inkscape:cx="-990.81884"
     inkscape:cy="439.51315"
     inkscape:window-width="1920"
     inkscape:window-height="991"
     inkscape:window-x="-9"
     inkscape:window-y="-9"
     inkscape:window-maximized="1"
     inkscape:current-layer="g194"
     showguides="false" /><defs
     id="defs2" /><g
     inkscape:label="Capa 1"
     inkscape:groupmode="layer"
     id="layer1"
     transform="translate(-32.449556,-48.855643)"><g
       id="g194"
       transform="translate(55.105047,-19.448841)"><path
         id="rect900"
         style="color:#000000;fill:#7f7f7f;stroke-width:1.11167;stroke-linecap:round;stroke-linejoin:round"
         d="m -11.181342,68.304484 c -4.05725,7.14e-4 -7.345767,3.290261 -7.345211,7.347511 V 151.77197 H -6.4819626 L -5.952796,80.880539 H 94.768455 V 179.23825 H 29.228241 v 14.691 l 70.770483,-1.05833 c 4.056576,-4e-4 7.345076,-3.28864 7.345786,-7.34522 V 75.651995 c 5.6e-4,-4.057475 -3.28831,-7.347114 -7.345786,-7.347511 z"
         sodipodi:nodetypes="cccccccccccccc" /><path
         style="fill:#e8c8c8;stroke-width:0.264583"
         d="m 218.88488,328.20713 12.10468,-12.17011 12.10469,12.17011 12.10469,12.1701 -12.10469,-12.03708 -12.10469,-12.03709 -12.10468,12.03709 -12.10469,12.03708 z m -10.12104,-9.98802 12.03708,-12.10469 -12.03708,-12.10468 -12.03709,-12.10469 12.17011,12.10469 12.17011,12.10468 -12.17011,12.10469 -12.17011,12.10469 z m 44.18577,-0.0665 -12.03672,-12.03891 12.16974,-12.10432 12.16974,-12.10432 -12.03708,12.10469 -12.03709,12.10468 12.03636,12.03854 c 6.62,6.6212 11.97683,12.03855 11.90407,12.03855 -0.0728,0 -5.54882,-5.41751 -12.16902,-12.03891 z m -34.13197,-34.19703 -12.03745,-12.10469 12.10469,12.03745 12.10468,12.03746 12.10469,-12.03746 12.10469,-12.03745 -12.03746,12.10469 c -6.62059,6.65758 -12.09796,12.10469 -12.17192,12.10469 -0.074,0 -5.55132,-5.44711 -12.17192,-12.10469 z"
         id="path204" /><g
         id="g9981"
         transform="matrix(0.70422096,0.86016865,-0.86016865,0.70422096,118.49384,27.741194)"><circle
           style="fill:none;fill-opacity:1;stroke:#e7c760;stroke-width:10;stroke-dasharray:none;stroke-opacity:1"
           id="path899"
           cx="35.002232"
           cy="121.47729"
           r="23.119234" /><path
           id="path6109"
           style="fill:#e7c760;fill-opacity:1;stroke:none;stroke-width:7.93229;stroke-opacity:1"
           d="m 43.484644,141.84061 -17.360671,0.61354 c -1.837403,10.04031 -4.208526,25.90377 -4.177983,34.16595 0.410183,6.91108 6.132746,12.30658 13.05599,12.3099 6.923417,-0.003 12.646248,-5.39864 13.056446,-12.3099 -0.02236,-9.11578 -3.006783,-24.19863 -4.573782,-34.77949 z"
           sodipodi:nodetypes="cccccc" /></g><g
         id="rect5267"
         transform="matrix(1.1116732,0,0,1.1116732,2.5300106,-7.6277789)"><path
           style="color:#000000;fill:#000000;fill-opacity:0;stroke-linecap:round;stroke-linejoin:round"
           d="m 27.455078,165.17383 a 6.721172,6.721172 0 0 0 -6.720703,6.7207 v 4.29883 a 6.721172,6.721172 0 0 0 6.720703,6.7207 h 17.189453 a 6.721172,6.721172 0 0 0 6.720703,-6.7207 v -4.29883 a 6.721172,6.721172 0 0 0 -6.720703,-6.7207 z"
           id="path5273" /></g></g></g></svg>
