<?xml version="1.0" encoding="UTF-8" standalone="no"?>
<!-- Created with Inkscape (http://www.inkscape.org/) -->

<svg
   width="50mm"
   height="50mm"
   viewBox="0 0 50 50"
   version="1.1"
   id="svg5"
   xml:space="preserve"
   inkscape:version="1.2.1 (9c6d41e410, 2022-07-14)"
   sodipodi:docname="excute.svg"
   xmlns:inkscape="http://www.inkscape.org/namespaces/inkscape"
   xmlns:sodipodi="http://sodipodi.sourceforge.net/DTD/sodipodi-0.dtd"
   xmlns="http://www.w3.org/2000/svg"
   xmlns:svg="http://www.w3.org/2000/svg"><sodipodi:namedview
     id="namedview7"
     pagecolor="#505050"
     bordercolor="#ffffff"
     borderopacity="1"
     inkscape:showpageshadow="0"
     inkscape:pageopacity="0"
     inkscape:pagecheckerboard="1"
     inkscape:deskcolor="#505050"
     inkscape:document-units="mm"
     showgrid="false"
     inkscape:zoom="2.8649832"
     inkscape:cx="67.714184"
     inkscape:cy="94.24139"
     inkscape:window-width="1920"
     inkscape:window-height="1009"
     inkscape:window-x="1912"
     inkscape:window-y="-8"
     inkscape:window-maximized="1"
     inkscape:current-layer="g248" /><defs
     id="defs2" /><g
     inkscape:label="Capa 1"
     inkscape:groupmode="layer"
     id="layer1"
     transform="translate(-29.443673,-105.30865)"><g
       id="g248"
       transform="matrix(0.83249501,0,0,0.89139805,-59.648528,62.14663)"><path
         style="fill:#31bda5;stroke:none;stroke-width:0.113325"
         d="m 135.29251,48.593437 c -2.89655,0.526009 -5.73555,0.616803 -8.56036,1.642742 -7.61626,2.766155 -13.60514,7.943578 -17.10117,14.857735 -1.52688,3.019697 -2.14116,6.252622 -2.48213,9.527927 -1.87734,18.033857 16.81056,32.932579 35.53138,29.532969 15.1359,-2.74864 25.76329,-16.101432 24.27391,-30.409098 -1.21933,-11.712783 -10.78431,-21.902433 -23.10126,-24.458673 -2.60375,-0.540388 -5.88144,-1.180072 -8.56037,-0.693602 m -6.09779,14.218921 c 1.82195,-0.330959 3.91842,1.549657 5.3942,2.372783 4.56619,2.546914 9.06437,5.203784 13.60277,7.793954 1.59,0.907455 4.82254,1.957278 4.57335,4.052109 -0.0947,0.795309 -0.86565,1.184093 -1.52445,1.551518 -1.22049,0.680647 -2.41485,1.400062 -3.63523,2.080816 -4.08222,2.276845 -8.13867,4.602317 -12.19557,6.917715 -1.53103,0.873831 -3.80339,2.82574 -5.62874,2.920473 -2.59861,0.134814 -1.9935,-3.432027 -1.9935,-4.92824 V 68.817473 c 0,-1.494571 -0.77948,-5.608008 1.40717,-6.005115 z"
         id="path1584" /></g></g></svg>
