<?xml version="1.0" encoding="UTF-8" standalone="no"?>
<!-- Created with Inkscape (http://www.inkscape.org/) -->

<svg
   width="126.90007mm"
   height="126.89912mm"
   viewBox="0 0 126.90008 126.89912"
   version="1.1"
   id="svg5"
   xml:space="preserve"
   inkscape:version="1.3 (0e150ed6c4, 2023-07-21)"
   sodipodi:docname="excel.svg"
   inkscape:export-filename="select.png"
   inkscape:export-xdpi="96"
   inkscape:export-ydpi="96"
   xmlns:inkscape="http://www.inkscape.org/namespaces/inkscape"
   xmlns:sodipodi="http://sodipodi.sourceforge.net/DTD/sodipodi-0.dtd"
   xmlns="http://www.w3.org/2000/svg"
   xmlns:svg="http://www.w3.org/2000/svg"><sodipodi:namedview
     id="namedview7"
     pagecolor="#ffffff"
     bordercolor="#999999"
     borderopacity="1"
     inkscape:showpageshadow="0"
     inkscape:pageopacity="0"
     inkscape:pagecheckerboard="0"
     inkscape:deskcolor="#d1d1d1"
     inkscape:document-units="mm"
     showgrid="false"
     inkscape:zoom="0.5"
     inkscape:cx="606"
     inkscape:cy="165"
     inkscape:window-width="1920"
     inkscape:window-height="1009"
     inkscape:window-x="-8"
     inkscape:window-y="-8"
     inkscape:window-maximized="1"
     inkscape:current-layer="layer1"
     showguides="false"><inkscape:grid
       type="xygrid"
       id="grid6400"
       originx="415.45421"
       originy="594.31852"
       spacingy="1"
       spacingx="1"
       units="mm"
       visible="false" /></sodipodi:namedview><defs
     id="defs2" /><g
     inkscape:label="Capa 1"
     inkscape:groupmode="layer"
     id="layer1"
     transform="translate(85.329613,447.78647)"><g
       id="g380"
       transform="translate(323.28922,29.934187)" /><path
       style="fill:#d9d9d9;fill-opacity:1;stroke-width:0.5211"
       d="m -26.009301,-333.86159 c -15.762817,-3.05316 -26.717153,-5.16859 -33.296634,-6.43004 -6.641726,-1.27337 -13.684032,-2.63189 -14.64914,-2.82593 l -0.723838,-0.14553 v -41.0618 -41.06181 l 0.310215,-0.0763 c 0.170624,-0.042 3.536479,-0.69695 7.479681,-1.45554 3.943202,-0.7586 17.486417,-3.36785 30.096025,-5.79833 12.609609,-2.43048 22.955352,-4.41905 22.990531,-4.41905 0.03517,0 0.06397,23.76262 0.06397,52.80583 0,42.16005 -0.03476,52.80308 -0.172343,52.79217 -0.09479,-0.008 -5.539101,-1.05318 -12.098467,-2.32369 z m -22.643134,-36.52308 c 2.426656,-4.54133 3.754616,-7.18023 4.076191,-8.10011 0.430997,-1.23291 0.486014,-1.32452 0.570943,-0.95075 0.309643,1.36276 1.05495,2.93468 4.276085,9.01862 l 3.58331,6.76798 h 5.481926 c 3.015061,0 5.481925,-0.0246 5.481925,-0.0548 0,-0.0301 -2.801228,-4.63685 -6.224956,-10.23717 -3.423728,-5.60031 -6.251037,-10.27987 -6.282908,-10.39901 -0.03189,-0.11913 0.743151,-1.54613 1.722281,-3.17111 2.098416,-3.48256 8.612608,-14.2554 9.7276,-16.08702 l 0.776355,-1.27533 -5.201814,0.003 -5.201813,0.003 -3.324657,6.23583 c -2.452696,4.60035 -3.482607,6.67625 -3.926892,7.91509 l -0.602234,1.67925 -0.554023,-1.56995 c -0.304713,-0.86347 -1.914718,-4.4266 -3.577791,-7.91806 l -3.023769,-6.34812 h -5.627838 c -3.095311,0 -5.627839,0.0291 -5.627839,0.0646 0,0.0556 8.733347,15.08774 11.056612,19.031 0.446775,0.75831 0.788142,1.47181 0.758596,1.58555 -0.02955,0.11375 -2.646925,4.27066 -5.816393,9.23757 -6.547632,10.26089 -7.101811,11.13762 -7.101811,11.23525 0,0.0388 2.471331,0.0704 5.491842,0.0704 h 5.491848 z m 39.0501718,20.59449 v -6.13779 h 6.066468 6.066464 v -4.06729 -4.06729 h -6.066464 -6.066468 v -3.9969 -3.99691 l 6.031998,-0.0359 6.031998,-0.0359 0.03653,-4.10176 0.03653,-4.10176 h -6.068522 -6.068517 v -3.99835 -3.99835 h 6.066469 6.066464 v -4.13623 -4.13623 h -6.066464 -6.066469 v -3.99835 -3.99836 h 6.135405 6.135405 v -4.13623 -4.13622 h -6.135405 -6.135405 v -6.06647 -6.06647 h 18.725872 c 21.0708602,0 19.6799102,-0.0684 20.7694602,1.02117 1.14301,1.14301 1.04551,-2.72056 1.00597,39.86189 -0.0336,36.16305 -0.0466,37.93503 -0.28288,38.40947 -0.34977,0.70243 -1.02731,1.35829 -1.75151,1.69548 -0.61908,0.28824 -0.66155,0.28895 -19.5436742,0.32572 l -18.92324,0.0368 z m 32.4004522,-10.20508 v -4.06729 H 14.663607 6.5290238 v 4.06729 4.06729 h 8.1345832 8.134582 z m 0,-16.20023 v -4.13622 H 14.663607 6.5290238 v 4.04431 c 0,2.22437 0.04138,4.08567 0.09192,4.13622 0.05055,0.0505 3.7111142,0.0919 8.1345822,0.0919 h 8.042666 z m 0,-16.27026 v -4.13733 l -8.100117,0.0356 -8.1001122,0.0356 -0.03668,3.92765 c -0.02017,2.16021 -0.0066,4.006 0.03012,4.10176 0.05276,0.13749 1.764286,0.17411 8.1367862,0.17411 h 8.069972 z m 0,-16.27205 v -4.14022 l -8.100117,0.0385 -8.1001122,0.0385 -0.03668,3.92764 c -0.02017,2.16021 -0.0066,4.006 0.03012,4.10176 0.05276,0.13749 1.764286,0.17411 8.1367862,0.17411 h 8.069972 z"
       id="path1"
       sodipodi:nodetypes="ssscccssssssscssscssscsscccsscsscsssssssccccccccccccccccccccccccccccccccccccsscssscccccccccccccccsssccccccsssccccccssscc" /></g></svg>
