<?xml version="1.0" encoding="UTF-8" standalone="no"?>
<!-- Created with Inkscape (http://www.inkscape.org/) -->

<svg
   width="126.90007mm"
   height="126.89912mm"
   viewBox="0 0 126.90008 126.89912"
   version="1.1"
   id="svg5"
   xml:space="preserve"
   inkscape:version="1.2.1 (9c6d41e410, 2022-07-14)"
   sodipodi:docname="select.svg"
   inkscape:export-filename="select.png"
   inkscape:export-xdpi="96"
   inkscape:export-ydpi="96"
   xmlns:inkscape="http://www.inkscape.org/namespaces/inkscape"
   xmlns:sodipodi="http://sodipodi.sourceforge.net/DTD/sodipodi-0.dtd"
   xmlns="http://www.w3.org/2000/svg"
   xmlns:svg="http://www.w3.org/2000/svg"><sodipodi:namedview
     id="namedview7"
     pagecolor="#ffffff"
     bordercolor="#999999"
     borderopacity="1"
     inkscape:showpageshadow="0"
     inkscape:pageopacity="0"
     inkscape:pagecheckerboard="0"
     inkscape:deskcolor="#d1d1d1"
     inkscape:document-units="mm"
     showgrid="false"
     inkscape:zoom="0.044194174"
     inkscape:cx="-1934.6441"
     inkscape:cy="-384.66609"
     inkscape:window-width="1920"
     inkscape:window-height="1009"
     inkscape:window-x="1912"
     inkscape:window-y="-8"
     inkscape:window-maximized="1"
     inkscape:current-layer="layer1"
     showguides="false"><inkscape:grid
       type="xygrid"
       id="grid6400"
       originx="415.45421"
       originy="594.31852" /></sodipodi:namedview><defs
     id="defs2" /><g
     inkscape:label="Capa 1"
     inkscape:groupmode="layer"
     id="layer1"
     transform="translate(85.329613,447.78647)"><path
       style="fill:#d9d9d9;fill-opacity:1;stroke-width:0.264583"
       d="m -23.766463,-321.34878 c -0.48319,-0.24635 -1.15553,-0.81593 -1.4941,-1.26574 -0.42988,-0.57111 -4.49503,-13.75531 -13.47514,-43.70292 -7.07274,-23.58681 -12.859538,-43.21413 -12.859538,-43.61627 0,-1.83452 1.760588,-3.78546 3.644108,-4.03809 0.82079,-0.11009 9.34661,2.36085 43.99688,12.7511 30.17427,9.04808 43.22389,13.07215 43.80146,13.50692 1.79548,1.35158 2.17752,3.98014 0.83435,5.74068 -0.38274,0.50168 -5.14315,3.84572 -11.39597,8.00534 l -10.73865,7.14375 11.3448,11.37708 c 12.28572,12.32069 11.96678,11.92347 11.52478,14.35365 -0.15731,0.86492 -1.39125,2.20298 -9.62059,10.43231 -8.22934,8.22934 -9.56739,9.46328 -10.43232,9.6206 -2.42518,0.44109 -2.03614,0.75347 -14.35364,-11.52505 l -11.37709,-11.34107 -7.14375,10.73691 c -4.2121,6.33071 -7.50121,11.00963 -8.0148,11.40146 -1.12258,0.85646 -3.0162,1.0437 -4.24079,0.41934 z m 49.69194,-15.31054 5.41692,-5.42176 -11.68281,-11.71001 c -12.57334,-12.60261 -12.31198,-12.28223 -11.88344,-14.56652 0.26908,-1.43432 1.34264,-2.3596 7.30361,-6.29481 7.20843,-4.75873 12.22806,-8.20985 12.11119,-8.32672 -0.15388,-0.15388 -68.02174,-20.49439 -68.10465,-20.41148 -0.0677,0.0677 19.17315,64.44597 20.10103,67.25635 l 0.34879,1.05641 6.10719,-9.15509 c 3.35896,-5.03529 6.42726,-9.40684 6.81846,-9.71455 0.87396,-0.68747 2.18821,-0.95579 3.50184,-0.71497 0.86853,0.15922 2.44318,1.63014 12.63386,11.80162 6.40291,6.39085 11.70228,11.62053 11.77638,11.62151 0.0741,0.001 2.57232,-2.43801 5.55163,-5.41998 z m -100.491941,-43.97112 c -1.980234,-0.97582 -2.948375,-3.53946 -2.050892,-5.43076 0.241043,-0.50796 2.667882,-3.13364 5.392976,-5.83483 5.312565,-5.26597 5.693969,-5.51338 7.869939,-5.10517 1.250032,0.23451 2.940423,1.9249 3.174929,3.17493 0.408215,2.17597 0.1608,2.55738 -5.105169,7.86994 -2.701193,2.72509 -5.298237,5.13835 -5.771209,5.36279 -1.103889,0.52383 -2.400347,0.5102 -3.510574,-0.0369 z m -8.466669,-25.39999 c -0.48318,-0.23811 -1.19755,-0.85121 -1.5875,-1.36244 -0.5791,-0.75924 -0.70898,-1.20846 -0.70898,-2.45208 0,-1.64469 0.44001,-2.49744 1.82113,-3.52938 0.69102,-0.51631 1.13282,-0.54968 8.253539,-0.62329 8.431687,-0.0872 8.757965,-0.0308 10.114742,1.74806 1.017899,1.33453 1.017899,3.52698 0,4.86152 -1.32413,1.73602 -1.690216,1.80328 -9.778358,1.79655 -6.157096,-0.005 -7.367053,-0.0706 -8.114573,-0.43894 z m 16.987105,-16.90729 c -0.45361,-0.22379 -3.032661,-2.63433 -5.731223,-5.35677 -5.260807,-5.30735 -5.508552,-5.68939 -5.100385,-7.86511 0.234507,-1.25003 1.924897,-2.94042 3.17493,-3.17493 2.17597,-0.40821 2.557374,-0.1608 7.869938,5.10517 2.725094,2.70119 5.151934,5.32686 5.392977,5.83482 1.584799,3.33972 -2.27744,7.09902 -5.606237,5.45682 z m 33.812895,-0.026 c -1.98023,-0.97582 -2.94838,-3.53946 -2.05089,-5.43077 0.24104,-0.50796 2.66788,-3.13363 5.39298,-5.83482 5.31256,-5.26597 5.69396,-5.51339 7.86993,-5.10517 1.25004,0.23451 2.94043,1.92489 3.17493,3.17493 0.40822,2.17597 0.1608,2.55737 -5.10517,7.86994 -2.70119,2.72509 -5.29823,5.13834 -5.77121,5.36278 -1.10388,0.52383 -2.40034,0.51021 -3.51057,-0.0369 z m -16.93333,-4.21834 c -0.48319,-0.24635 -1.19756,-0.86619 -1.5875,-1.37743 l -0.708986,-0.92954 v -7.87255 c 0,-7.53854 0.02315,-7.90354 0.545515,-8.6032 1.031351,-1.38139 1.884401,-1.82169 3.529381,-1.82169 1.24558,0 1.69251,0.12964 2.4569,0.71267 1.73342,1.32214 1.80258,1.69579 1.80258,9.73837 0,8.01823 -0.073,8.41916 -1.76818,9.71214 -1.15202,0.87868 -3.03088,1.07284 -4.26971,0.44122 z"
       id="path1998" /><g
       id="g380"
       transform="translate(323.28922,29.934187)" /></g></svg>
