<?xml version="1.0" encoding="UTF-8" standalone="no"?>
<!-- Created with Inkscape (http://www.inkscape.org/) -->

<svg
   width="249.99998mm"
   height="250mm"
   viewBox="0 0 250 250"
   version="1.1"
   id="svg5"
   xml:space="preserve"
   inkscape:version="1.2.1 (9c6d41e410, 2022-07-14)"
   sodipodi:docname="undo.svg"
   inkscape:export-filename="select.png"
   inkscape:export-xdpi="96"
   inkscape:export-ydpi="96"
   xmlns:inkscape="http://www.inkscape.org/namespaces/inkscape"
   xmlns:sodipodi="http://sodipodi.sourceforge.net/DTD/sodipodi-0.dtd"
   xmlns="http://www.w3.org/2000/svg"
   xmlns:svg="http://www.w3.org/2000/svg"><sodipodi:namedview
     id="namedview7"
     pagecolor="#ffffff"
     bordercolor="#999999"
     borderopacity="1"
     inkscape:showpageshadow="0"
     inkscape:pageopacity="0"
     inkscape:pagecheckerboard="0"
     inkscape:deskcolor="#d1d1d1"
     inkscape:document-units="mm"
     showgrid="false"
     inkscape:zoom="0.0625"
     inkscape:cx="1160"
     inkscape:cy="2608"
     inkscape:window-width="1920"
     inkscape:window-height="1009"
     inkscape:window-x="1912"
     inkscape:window-y="-8"
     inkscape:window-maximized="1"
     inkscape:current-layer="layer1"
     showguides="false"><inkscape:grid
       type="xygrid"
       id="grid6400"
       originx="160.57501"
       originy="896.12269" /></sodipodi:namedview><defs
     id="defs2" /><g
     inkscape:label="Capa 1"
     inkscape:groupmode="layer"
     id="layer1"
     transform="translate(-169.54956,749.59065)"><path
       style="fill:#d9d9d9;fill-opacity:1;stroke-width:0.485398"
       d="m 408.42024,-528.53605 c -1.87412,-0.99109 -2.4496,-1.7729 -5.4485,-7.40235 -24.06675,-45.17729 -59.15729,-71.55348 -103.30217,-77.64819 -3.05787,-0.42218 -10.20136,-0.89998 -15.87447,-1.06177 l -10.31475,-0.29418 v 19.02127 c 0,18.10573 -0.047,19.11346 -0.97732,20.93699 -1.05536,2.06867 -3.87508,3.87039 -6.05721,3.87039 -2.14473,0 -3.98777,-1.05683 -18.20624,-10.43966 -7.60863,-5.02097 -17.54719,-11.57092 -22.08567,-14.55543 -4.53848,-2.9845 -15.78761,-10.40401 -24.99808,-16.48775 -9.21045,-6.08377 -19.43461,-12.81493 -22.72036,-14.95815 -4.64276,-3.02837 -6.1842,-4.30862 -6.91694,-5.74492 -1.23228,-2.41546 -1.18159,-4.61996 0.15722,-6.83812 0.68665,-1.13759 8.82628,-8.15853 22.19907,-19.14806 11.61318,-9.54351 31.6315,-26.02849 44.48516,-36.63326 12.85365,-10.60478 24.03734,-19.62636 24.85263,-20.04796 3.33936,-1.72685 7.75875,-0.17831 9.32273,3.26649 0.8562,1.88588 0.92445,3.40284 0.93432,20.76931 l 0.0107,18.73483 10.07206,0.29838 c 31.04099,0.91962 57.15415,10.13449 81.91114,28.90497 6.2978,4.77494 19.85692,18.35106 24.69205,24.723 17.67808,23.29704 27.34582,49.63398 28.76222,78.35417 0.40816,8.27669 -0.17723,10.37749 -3.42106,12.27855 -2.56171,1.50125 -4.38015,1.52731 -7.07652,0.10145 z"
       id="path1708" /><g
       id="g380"
       transform="translate(323.28922,29.934187)" /></g></svg>
