<?xml version="1.0" encoding="UTF-8" standalone="no"?>
<!-- Created with Inkscape (http://www.inkscape.org/) -->

<svg
   width="144.21545mm"
   height="144.60922mm"
   viewBox="0 0 144.21546 144.60922"
   version="1.1"
   id="svg5"
   xml:space="preserve"
   inkscape:version="1.2.1 (9c6d41e410, 2022-07-14)"
   sodipodi:docname="config.svg"
   inkscape:export-filename="select.png"
   inkscape:export-xdpi="96"
   inkscape:export-ydpi="96"
   xmlns:inkscape="http://www.inkscape.org/namespaces/inkscape"
   xmlns:sodipodi="http://sodipodi.sourceforge.net/DTD/sodipodi-0.dtd"
   xmlns="http://www.w3.org/2000/svg"
   xmlns:svg="http://www.w3.org/2000/svg"><sodipodi:namedview
     id="namedview7"
     pagecolor="#ffffff"
     bordercolor="#999999"
     borderopacity="1"
     inkscape:showpageshadow="0"
     inkscape:pageopacity="0"
     inkscape:pagecheckerboard="0"
     inkscape:deskcolor="#d1d1d1"
     inkscape:document-units="mm"
     showgrid="false"
     inkscape:zoom="0.125"
     inkscape:cx="-2252"
     inkscape:cy="2080"
     inkscape:window-width="1920"
     inkscape:window-height="1009"
     inkscape:window-x="1912"
     inkscape:window-y="-8"
     inkscape:window-maximized="1"
     inkscape:current-layer="g380"
     showguides="false"><inkscape:grid
       type="xygrid"
       id="grid6400"
       originx="-605.51728"
       originy="631.87726" /></sodipodi:namedview><defs
     id="defs2" /><g
     inkscape:label="Capa 1"
     inkscape:groupmode="layer"
     id="layer1"
     transform="translate(-935.64183,485.34526)"><g
       id="g380"
       transform="translate(323.28922,29.934187)"><path
         id="path406"
         style="fill:#7f7f7f;fill-opacity:1;stroke-width:0.282222"
         d="m 684.46038,-515.27945 -4.86843,0.0982 c -4.56265,0.0923 -4.92621,0.14005 -5.78983,0.75603 -0.50682,0.36149 -1.1064,1.01439 -1.33222,1.45108 -0.22582,0.43668 -1.32029,4.4591 -2.43241,8.93847 -1.11212,4.47937 -2.16368,8.29232 -2.33681,8.47338 -0.17314,0.18105 -1.46118,0.76849 -2.86235,1.30535 -1.40119,0.53687 -3.45891,1.43529 -4.57285,1.99626 l -2.02572,1.01958 -6.81147,-4.09329 c -3.74657,-2.25139 -7.31798,-4.20714 -7.93595,-4.34599 -0.0801,-0.018 -0.15378,-0.0322 -0.22944,-0.0476 0.18303,-0.0154 0.27226,-0.0709 0.19895,-0.14417 -0.0938,-0.0938 -0.33732,-0.10372 -0.54105,-0.0222 -0.0834,0.0334 -0.12648,0.0634 -0.13126,0.0889 -1.48454,-0.15429 -2.60108,0.79267 -7.92406,6.08542 2.81986,-2.83396 5.06781,-5.13457 4.99866,-5.13457 -0.0776,0 -2.86919,2.73005 -6.20376,6.06733 -3.33456,3.33726 -5.9992,6.06784 -5.9216,6.06784 0.069,0 2.41201,-2.29404 5.24723,-5.11958 -3.16203,3.17932 -5.77612,5.92682 -5.9769,6.30504 -0.48359,0.91107 -0.52629,2.56515 -0.0884,3.41943 0.1738,0.33904 2.16103,3.69441 4.41575,7.45639 l 4.0995,6.8399 -0.99478,2.19108 c -0.547,1.20511 -1.28016,2.98303 -1.62935,3.95066 -0.34919,0.96764 -0.77723,1.86974 -0.95137,2.00453 -0.17414,0.1348 -3.9816,1.1565 -8.46098,2.27066 -4.47936,1.11415 -8.50178,2.21072 -8.93847,2.43654 -0.43669,0.22582 -1.08959,0.82489 -1.45108,1.33171 l -0.65732,0.92139 v 9.73687 9.73687 l 0.65732,0.92139 c 0.36149,0.50682 1.01439,1.1064 1.45108,1.33222 0.43669,0.22582 4.45911,1.32188 8.93847,2.43603 4.47938,1.11416 8.28684,2.13586 8.46098,2.27066 0.17414,0.13479 0.59786,1.03689 0.94206,2.00453 0.3442,0.96763 1.19677,2.99693 1.89446,4.50929 l 1.26866,2.7497 -3.62975,5.99912 c -1.99638,3.29952 -3.78518,6.35457 -3.97495,6.78873 -0.42459,0.9714 -0.4412,2.16418 -0.045,3.21376 0.38529,1.02057 12.7886,13.48757 13.98209,14.05392 1.09298,0.51862 2.35281,0.54831 3.41426,0.0801 0.43416,-0.19151 3.51276,-1.97949 6.84144,-3.9734 l 6.05183,-3.62562 2.69699,1.27176 c 1.48319,0.69936 3.48843,1.55112 4.45606,1.8929 0.96764,0.34177 1.86974,0.76378 2.00453,0.93793 0.1348,0.17414 1.1565,3.98161 2.27066,8.46098 1.11415,4.47937 2.21073,8.50179 2.43655,8.93847 0.48391,0.93577 1.69386,1.8575 2.68045,2.04174 0.38602,0.0721 2.63825,0.1484 5.00538,0.1695 l 4.30413,0.0382 v 0.0558 l 4.86844,-0.0982 c 4.56265,-0.0923 4.92621,-0.14005 5.78983,-0.75603 0.50682,-0.36149 1.10588,-1.01439 1.3317,-1.45108 0.22582,-0.43668 1.32239,-4.4591 2.43654,-8.93847 1.11416,-4.47937 2.13587,-8.28683 2.27067,-8.46098 0.1348,-0.17415 1.2273,-0.66976 2.42775,-1.10174 1.20047,-0.43199 3.00838,-1.19354 4.01733,-1.6924 3.06318,-1.51458 2.36594,-1.70591 9.76426,2.67425 7.08481,4.19457 7.60973,4.39203 9.5064,3.57188 1.29537,-0.56014 13.94024,-13.36758 14.18776,-14.37019 0.47153,-1.90998 0.0314,-2.98642 -3.82199,-9.34361 -2.06199,-3.40182 -3.8058,-6.4006 -3.87469,-6.66419 -0.0689,-0.2636 0.30999,-1.35374 0.8418,-2.4226 0.5318,-1.06886 1.32036,-2.92589 1.75235,-4.12636 0.43198,-1.20046 0.92759,-2.29296 1.10174,-2.42776 0.17415,-0.1348 3.98161,-1.1565 8.46099,-2.27066 4.47936,-1.11415 8.50179,-2.21072 8.93848,-2.43654 0.43669,-0.22582 1.08958,-0.82489 1.45107,-1.33171 l 0.65733,-0.92139 v -9.73687 -9.73687 l -0.65733,-0.92139 c -0.36149,-0.50682 -1.01438,-1.10589 -1.45107,-1.33171 -0.43669,-0.22582 -4.45912,-1.32239 -8.93848,-2.43654 -4.47938,-1.11416 -8.28684,-2.13586 -8.46099,-2.27066 -0.17415,-0.1348 -0.67276,-1.2273 -1.10794,-2.42776 -0.43517,-1.20047 -1.26743,-3.17253 -1.8495,-4.38216 l -1.05833,-2.19935 3.93981,-6.57014 c 2.30079,-3.8369 4.00879,-6.99485 4.10569,-7.59179 0.39935,-2.46089 0.24199,-2.68864 -6.62285,-9.59579 -6.82806,-6.87016 -7.87534,-7.65952 -9.75754,-7.35408 -0.6803,0.1104 -3.61021,1.68579 -7.81761,4.20388 l -6.72983,4.02766 -2.19728,-1.0573 c -1.20835,-0.58145 -3.17911,-1.41278 -4.37958,-1.84795 -1.20045,-0.43518 -2.29295,-0.93379 -2.42775,-1.10794 -0.1348,-0.17415 -1.15651,-3.98161 -2.27067,-8.46098 -1.11415,-4.47937 -2.21072,-8.50179 -2.43654,-8.93847 -0.22582,-0.43669 -0.82488,-1.08959 -1.3317,-1.45108 -0.86362,-0.61598 -1.22718,-0.66373 -5.78983,-0.75603 z m 11.00657,0.90227 c -0.0146,0.0146 0.071,0.12914 0.24649,0.35295 0.21304,0.27164 0.43491,0.49403 0.49351,0.49403 0.23228,0 0.0831,-0.23179 -0.38705,-0.60048 -0.22381,-0.17553 -0.33839,-0.26107 -0.35295,-0.2465 z m 32.73805,15.52257 c -0.0146,0.0146 0.0705,0.12862 0.24598,0.35243 0.21303,0.27163 0.43543,0.49403 0.49403,0.49403 0.23228,0 0.0825,-0.23179 -0.38758,-0.60048 -0.22381,-0.17553 -0.33786,-0.26055 -0.35243,-0.24598 z m -45.11869,26.24646 h 1.37407 1.37408 c 0.20847,0 0.49598,0.0165 0.81804,0.0419 -0.1048,0.006 -0.20724,0.0209 -0.28732,0.0532 -0.19402,0.0783 -0.0351,0.14263 0.35295,0.14263 0.38808,0 0.54698,-0.0643 0.35295,-0.14263 -0.0239,-0.01 -0.054,-0.0144 -0.0811,-0.0217 0.79884,0.0742 1.75786,0.19641 2.58383,0.34106 13.43377,2.35268 23.23538,13.59237 24.42124,26.60303 -0.0765,-0.1798 -0.139,-0.0237 -0.139,0.35812 0,0.38808 0.0643,0.54697 0.14262,0.35295 0.0188,-0.0466 0.0326,-0.10078 0.0424,-0.15813 0.0995,1.38033 0.10634,2.77858 0.006,4.18785 -0.009,-0.0802 -0.0227,-0.15737 -0.0481,-0.22014 -0.0782,-0.19402 -0.14262,-0.0351 -0.14262,0.35295 0,0.38808 0.0643,0.54698 0.14262,0.35295 8.7e-4,-0.002 10e-4,-0.005 0.002,-0.007 -0.0733,0.83425 -0.17449,1.67089 -0.32143,2.50992 -2.13922,12.21494 -11.89057,21.96629 -24.1055,24.10551 -0.78756,0.13792 -1.69515,0.25533 -2.4722,0.33073 0.0722,-0.026 0.0702,-0.0627 -0.0305,-0.10336 -0.19403,-0.0783 -0.51187,-0.0783 -0.7059,0 -0.18913,0.0763 -0.0388,0.13848 0.32814,0.1416 -0.33812,0.0272 -0.64223,0.0455 -0.85886,0.0455 h -1.37408 -1.37407 c -3.19645,0 -8.30909,-1.30125 -11.60808,-2.95434 -2.0515,-1.02798 -3.94058,-2.26549 -5.65805,-3.66851 -0.0344,-0.0784 -0.2328,-0.27437 -0.48059,-0.4687 -0.24395,-0.19132 -0.34675,-0.26395 -0.34313,-0.22841 -1.02021,-0.89578 -1.97427,-1.85166 -2.85513,-2.86339 0.0824,-0.0647 -0.0828,-0.27334 -0.47025,-0.57723 -0.02,-0.0157 -0.0272,-0.0204 -0.0455,-0.0346 -5.41982,-6.5694 -7.9085,-15.25016 -6.38462,-23.95151 0.88548,-5.05613 3.07854,-9.68781 6.20737,-13.53458 0.104,-0.0522 0.26475,-0.2108 0.47026,-0.47284 0.21133,-0.26946 0.27324,-0.36226 0.20619,-0.33124 0.89282,-1.02266 1.85395,-1.98367 2.87631,-2.87683 0.0541,0.10912 0.26933,-0.056 0.58652,-0.46044 0.0341,-0.0435 0.0482,-0.0639 0.0754,-0.0992 3.87604,-3.19431 8.56141,-5.43334 13.6834,-6.33036 1.30091,-0.22783 2.98405,-0.41444 3.73983,-0.41444 z m 71.92947,17.77979 c -0.0146,0.0146 0.071,0.12914 0.24649,0.35295 0.21303,0.27164 0.43543,0.49403 0.49403,0.49403 0.23228,0 0.0826,-0.23179 -0.38757,-0.60048 -0.22381,-0.17552 -0.33839,-0.26107 -0.35295,-0.2465 z m 0.84697,22.8601 c -0.0146,-0.0146 -0.12914,0.071 -0.35295,0.2465 -0.27164,0.21304 -0.49402,0.43491 -0.49402,0.49351 0,0.23228 0.23179,0.083 0.60048,-0.38706 0.17552,-0.22381 0.26106,-0.33838 0.24649,-0.35295 z m -30.22142,45.47268 c -0.098,-0.004 -0.20974,0.014 -0.31161,0.0548 -0.22514,0.0901 -0.15824,0.15693 0.17054,0.17053 0.29752,0.0122 0.46432,-0.0545 0.37052,-0.14831 -0.0469,-0.0469 -0.1314,-0.073 -0.22945,-0.077 z m -29.32741,14.07614 c -0.0146,-0.0146 -0.12914,0.071 -0.35295,0.2465 -0.27164,0.21303 -0.49402,0.43543 -0.49402,0.49403 0,0.23228 0.23179,0.0825 0.60048,-0.38758 0.17552,-0.22381 0.26106,-0.33838 0.24649,-0.35295 z" /></g></g></svg>
