<?xml version="1.0" encoding="UTF-8" standalone="no"?>
<!-- Created with Inkscape (http://www.inkscape.org/) -->

<svg
   width="100mm"
   height="100mm"
   viewBox="0 0 100.00001 100"
   version="1.1"
   id="svg5"
   xml:space="preserve"
   inkscape:version="1.2.1 (9c6d41e410, 2022-07-14)"
   sodipodi:docname="boundary.svg"
   inkscape:export-filename="select.png"
   inkscape:export-xdpi="96"
   inkscape:export-ydpi="96"
   xmlns:inkscape="http://www.inkscape.org/namespaces/inkscape"
   xmlns:sodipodi="http://sodipodi.sourceforge.net/DTD/sodipodi-0.dtd"
   xmlns="http://www.w3.org/2000/svg"
   xmlns:svg="http://www.w3.org/2000/svg"><sodipodi:namedview
     id="namedview7"
     pagecolor="#ffffff"
     bordercolor="#999999"
     borderopacity="1"
     inkscape:showpageshadow="0"
     inkscape:pageopacity="0"
     inkscape:pagecheckerboard="0"
     inkscape:deskcolor="#d1d1d1"
     inkscape:document-units="mm"
     showgrid="false"
     inkscape:zoom="0.7071068"
     inkscape:cx="207.88939"
     inkscape:cy="74.953317"
     inkscape:window-width="1536"
     inkscape:window-height="793"
     inkscape:window-x="-8"
     inkscape:window-y="-8"
     inkscape:window-maximized="1"
     inkscape:current-layer="g5926"
     showguides="true"><inkscape:grid
       type="xygrid"
       id="grid6400"
       originx="374.75324"
       originy="-289.94654" /></sodipodi:namedview><defs
     id="defs2" /><g
     inkscape:label="Capa 1"
     inkscape:groupmode="layer"
     id="layer1"
     transform="translate(44.62862,-436.47859)"><g
       id="g5926"
       transform="translate(-214.30834,288.80055)"><path
         id="rect5172"
         style="fill:#7f7f7f;fill-opacity:1;stroke:none;stroke-width:1.52052;stroke-linecap:butt;stroke-linejoin:bevel;stroke-dasharray:none;stroke-opacity:1"
         d="m 203.67542,163.49883 a 3,1.6601859 0 0 0 -2.99982,1.66009 v 52.01913 a 3,1.6601859 0 0 0 2.99982,1.66036 3,1.6601859 0 0 0 3.00033,-1.66036 v -52.01913 a 3,1.6601859 0 0 0 -3.00033,-1.66009 z" /><path
         id="rect5172-9-0"
         style="fill:#7f7f7f;fill-opacity:1;stroke:none;stroke-width:1.51428;stroke-linecap:butt;stroke-linejoin:bevel;stroke-dasharray:none;stroke-opacity:1"
         d="m 253.67542,163.81761 a 3,1.6465944 0 0 0 -2.99982,1.64651 v 51.59325 a 3,1.6465944 0 0 0 2.99982,1.64677 3,1.6465944 0 0 0 3.00033,-1.64677 v -51.59325 a 3,1.6465944 0 0 0 -3.00033,-1.64651 z" /><path
         id="rect5172-92"
         style="fill:#7f7f7f;fill-opacity:1;stroke:none;stroke-width:1.52499;stroke-linecap:butt;stroke-linejoin:bevel;stroke-dasharray:none;stroke-opacity:1"
         d="m 256.77663,215.79865 a 1.6699667,3 0 0 0 -1.66987,-2.99982 h -52.32559 a 1.6699667,3 0 0 0 -1.67015,2.99982 1.6699667,3 0 0 0 1.67015,3.00033 h 52.32559 a 1.6699667,3 0 0 0 1.66987,-3.00033 z" /><path
         id="rect5172-9-0-9"
         style="fill:#7f7f7f;fill-opacity:1;stroke:none;stroke-width:1.52777;stroke-linecap:butt;stroke-linejoin:bevel;stroke-dasharray:none;stroke-opacity:1"
         d="m 256.76935,163.68197 a 1.6760608,3 0 0 0 -1.67596,-2.99982 h -52.51655 a 1.6760608,3 0 0 0 -1.67624,2.99982 1.6760608,3 0 0 0 1.67624,3.00033 h 52.51655 a 1.6760608,3 0 0 0 1.67596,-3.00033 z" /><path
         style="fill:#de8787;fill-opacity:1;fill-rule:evenodd;stroke-width:4.12354;stroke-linecap:round;stroke-linejoin:bevel;stroke-opacity:0.988235"
         d="m 181.51563,157.69618 17.62897,9.77586 -17.62897,8.72845 z"
         id="path2103"
         sodipodi:nodetypes="cccc" /><path
         style="fill:#de8787;fill-opacity:1;fill-rule:evenodd;stroke-width:4.12354;stroke-linecap:round;stroke-linejoin:bevel;stroke-opacity:0.988235"
         d="m 183.35483,205.89466 17.62897,9.77586 -17.62897,8.72845 z"
         id="path2103-8"
         sodipodi:nodetypes="cccc" /><path
         style="fill:#de8787;fill-opacity:1;fill-rule:evenodd;stroke-width:4.12354;stroke-linecap:round;stroke-linejoin:bevel;stroke-opacity:0.988235"
         d="m 193.76506,236.39669 9.77586,-17.62897 8.72845,17.62897 z"
         id="path2103-8-0-6"
         sodipodi:nodetypes="cccc" /><path
         style="fill:#de8787;fill-opacity:1;fill-rule:evenodd;stroke-width:4.12354;stroke-linecap:round;stroke-linejoin:bevel;stroke-opacity:0.988235"
         d="m 242.97757,236.39669 9.77586,-17.62897 8.72845,17.62897 z"
         id="path2103-8-0-6-7"
         sodipodi:nodetypes="cccc" /></g><g
       id="g380"
       transform="translate(323.28922,29.934187)" /></g></svg>
