<?xml version="1.0" encoding="UTF-8" standalone="no"?>
<!-- Created with Inkscape (http://www.inkscape.org/) -->

<svg
   width="144.21545mm"
   height="144.60922mm"
   viewBox="0 0 144.21546 144.60922"
   version="1.1"
   id="svg5"
   xml:space="preserve"
   inkscape:version="1.2.1 (9c6d41e410, 2022-07-14)"
   sodipodi:docname="config_select.svg"
   inkscape:export-filename="select.png"
   inkscape:export-xdpi="96"
   inkscape:export-ydpi="96"
   xmlns:inkscape="http://www.inkscape.org/namespaces/inkscape"
   xmlns:sodipodi="http://sodipodi.sourceforge.net/DTD/sodipodi-0.dtd"
   xmlns="http://www.w3.org/2000/svg"
   xmlns:svg="http://www.w3.org/2000/svg"><sodipodi:namedview
     id="namedview7"
     pagecolor="#ffffff"
     bordercolor="#999999"
     borderopacity="1"
     inkscape:showpageshadow="0"
     inkscape:pageopacity="0"
     inkscape:pagecheckerboard="0"
     inkscape:deskcolor="#d1d1d1"
     inkscape:document-units="mm"
     showgrid="false"
     inkscape:zoom="0.25"
     inkscape:cx="-574"
     inkscape:cy="-226"
     inkscape:window-width="2400"
     inkscape:window-height="1261"
     inkscape:window-x="2391"
     inkscape:window-y="-9"
     inkscape:window-maximized="1"
     inkscape:current-layer="g380"
     showguides="false"><inkscape:grid
       type="xygrid"
       id="grid6400"
       originx="-605.51728"
       originy="631.87726" /></sodipodi:namedview><defs
     id="defs2" /><g
     inkscape:label="Capa 1"
     inkscape:groupmode="layer"
     id="layer1"
     transform="translate(-935.64183,485.34526)"><g
       id="g380"
       transform="translate(323.28922,29.934187)"><path
         id="path406"
         style="fill:#aaaaaa;fill-opacity:1;stroke:none;stroke-width:1.382;stroke-dasharray:none;stroke-opacity:1"
         d="M 684.46035 -515.27945 L 679.59192 -515.18126 C 675.02927 -515.08896 674.66571 -515.04121 673.80209 -514.42524 C 673.29527 -514.06375 672.69569 -513.41085 672.46987 -512.97416 C 672.24405 -512.53748 671.14958 -508.51505 670.03746 -504.03569 C 668.92534 -499.55632 667.87378 -495.74336 667.70065 -495.5623 C 667.52751 -495.38125 666.23946 -494.79382 664.8383 -494.25696 C 663.43711 -493.72009 661.37939 -492.82167 660.26545 -492.2607 L 658.23973 -491.24112 L 651.42826 -495.33441 C 647.68169 -497.5858 644.11028 -499.54155 643.49231 -499.6804 C 643.10043 -499.7634 643.1028 -499.77829 642.78951 -499.80546 C 641.30497 -499.95975 640.18842 -499.01278 634.86545 -493.72004 C 632.99739 -491.84023 634.86444 -493.71104 632.98598 -491.83902 C 629.82395 -488.6597 627.20986 -485.9122 627.00908 -485.53398 C 626.52549 -484.62291 626.48282 -482.96883 626.92071 -482.11455 C 627.09451 -481.77551 629.08175 -478.42013 631.33646 -474.65815 L 635.43596 -467.81826 L 634.44118 -465.62718 C 633.89418 -464.42207 633.16102 -462.64415 632.81183 -461.67652 C 632.46264 -460.70888 632.0346 -459.80678 631.86046 -459.67199 C 631.68632 -459.53719 627.87886 -458.51548 623.39948 -457.40133 C 618.92013 -456.28718 614.8977 -455.1906 614.46101 -454.96478 C 614.02432 -454.73896 613.37142 -454.1399 613.00993 -453.63308 L 612.35261 -452.71169 L 612.35261 -442.97482 L 612.35261 -433.23794 L 613.00993 -432.31655 C 613.37142 -431.80973 614.02432 -431.21015 614.46101 -430.98433 C 614.8977 -430.75851 618.92013 -429.66246 623.39948 -428.54831 C 627.87886 -427.43415 631.68632 -426.41244 631.86046 -426.27764 C 632.0346 -426.14285 632.45832 -425.24075 632.80252 -424.27312 C 633.14672 -423.30549 633.99929 -421.27619 634.69698 -419.76383 L 635.96564 -417.01413 L 632.33589 -411.01501 C 630.33951 -407.71549 628.55071 -404.66044 628.36094 -404.22628 C 627.93635 -403.25488 627.91978 -402.0621 628.31598 -401.01252 C 628.70127 -399.99195 641.10458 -387.52495 642.29807 -386.9586 C 643.39105 -386.43998 644.65088 -386.41029 645.71233 -386.8785 C 646.14649 -387.07001 649.2251 -388.85799 652.55377 -390.8519 L 658.6056 -394.47752 L 661.30259 -393.20576 C 662.78578 -392.5064 664.79102 -391.65463 665.75865 -391.31285 C 666.72629 -390.97108 667.62839 -390.54908 667.76318 -390.37493 C 667.89798 -390.20079 668.91968 -386.39331 670.03384 -381.91394 C 671.14799 -377.43458 672.24457 -373.41215 672.47039 -372.97547 C 672.9543 -372.0397 674.16426 -371.11798 675.15084 -370.93374 C 675.53686 -370.86164 677.7891 -370.78534 680.15622 -370.76424 L 684.46035 -370.726 L 684.46035 -370.67019 L 689.32879 -370.76837 C 693.89144 -370.86067 694.255 -370.90842 695.11862 -371.5244 C 695.62544 -371.88589 696.2245 -372.53878 696.45032 -372.97547 C 696.67614 -373.41215 697.77271 -377.43458 698.88686 -381.91394 C 700.00102 -386.39331 701.02273 -390.20078 701.15753 -390.37493 C 701.29233 -390.54908 702.38484 -391.04469 703.58528 -391.47667 C 704.78575 -391.90866 706.59366 -392.67021 707.60261 -393.16907 C 710.66579 -394.68365 709.96856 -394.87497 717.36687 -390.49482 C 724.45167 -386.30025 724.9766 -386.10279 726.87327 -386.92294 C 728.16864 -387.48308 740.81351 -400.29051 741.06103 -401.29312 C 741.53256 -403.2031 741.09243 -404.27956 737.23904 -410.63674 C 735.17706 -414.03856 733.43323 -417.03734 733.36435 -417.30093 C 733.29545 -417.56453 733.67434 -418.65466 734.20615 -419.72352 C 734.73795 -420.79238 735.52651 -422.64942 735.9585 -423.84989 C 736.39048 -425.05034 736.88609 -426.14284 737.06024 -426.27764 C 737.23439 -426.41244 741.04185 -427.43415 745.52123 -428.54831 C 750.00058 -429.66246 754.02301 -430.75903 754.4597 -430.98485 C 754.89639 -431.21067 755.54928 -431.80973 755.91077 -432.31655 L 756.5681 -433.23794 L 756.5681 -442.97482 L 756.5681 -452.71169 L 755.91077 -453.63308 C 755.54928 -454.1399 754.89639 -454.73896 754.4597 -454.96478 C 754.02301 -455.1906 750.00058 -456.28718 745.52123 -457.40133 C 741.04185 -458.51548 737.23439 -459.53719 737.06024 -459.67199 C 736.88609 -459.80679 736.38748 -460.89929 735.9523 -462.09975 C 735.51713 -463.30022 734.68487 -465.27228 734.1028 -466.48191 L 733.04447 -468.68126 L 736.98428 -475.2514 C 739.28507 -479.0883 740.99307 -482.24624 741.08997 -482.84318 C 741.48932 -485.30407 741.33195 -485.53184 734.46712 -492.43898 C 727.63907 -499.30913 726.59177 -500.09849 724.70958 -499.79305 C 724.02928 -499.68265 721.09936 -498.10726 716.89197 -495.58918 L 710.16214 -491.56151 L 707.96486 -492.61881 C 706.75651 -493.20026 704.78575 -494.03159 703.58528 -494.46676 C 702.38484 -494.90194 701.29233 -495.40056 701.15753 -495.57471 C 701.02273 -495.74886 700.00102 -499.55632 698.88686 -504.03569 C 697.77271 -508.51505 696.67614 -512.53748 696.45032 -512.97416 C 696.2245 -513.41085 695.62544 -514.06375 695.11862 -514.42524 C 694.255 -515.04121 693.89144 -515.08896 689.32879 -515.18126 L 684.46035 -515.27945 z M 684.46397 -480.94666 A 37.507629 38.007462 0 0 1 722.09733 -443.10918 L 722.09733 -442.93916 A 37.507629 38.007462 0 0 1 684.63192 -404.93166 A 37.507629 38.007462 0 0 1 647.08227 -442.85441 A 37.507629 38.007462 0 0 1 684.46397 -480.94666 z " /><path
         style="fill:#36c9c6;stroke:none;stroke-width:1.16881;stroke-opacity:1;fill-opacity:1"
         id="path438-8"
         sodipodi:type="arc"
         sodipodi:cx="684.64539"
         sodipodi:cy="-442.51904"
         sodipodi:rx="24.560627"
         sodipodi:ry="24.887924"
         sodipodi:start="0"
         sodipodi:end="6.2787148"
         sodipodi:open="true"
         sodipodi:arc-type="arc"
         d="m 709.20601,-442.51904 a 24.560627,24.887924 0 0 1 -24.53317,24.88791 24.560627,24.887924 0 0 1 -24.58802,-24.83228 24.560627,24.887924 0 0 1 24.47822,-24.94342 24.560627,24.887924 0 0 1 24.64273,24.77653" /></g></g></svg>
