<?xml version="1.0" encoding="UTF-8" standalone="no"?>
<!-- Created with Inkscape (http://www.inkscape.org/) -->

<svg
   width="100mm"
   height="100mm"
   viewBox="0 0 100.00001 100"
   version="1.1"
   id="svg5"
   xml:space="preserve"
   inkscape:version="1.2.1 (9c6d41e410, 2022-07-14)"
   sodipodi:docname="control.svg"
   inkscape:export-filename="select.png"
   inkscape:export-xdpi="96"
   inkscape:export-ydpi="96"
   xmlns:inkscape="http://www.inkscape.org/namespaces/inkscape"
   xmlns:sodipodi="http://sodipodi.sourceforge.net/DTD/sodipodi-0.dtd"
   xmlns="http://www.w3.org/2000/svg"
   xmlns:svg="http://www.w3.org/2000/svg"><sodipodi:namedview
     id="namedview7"
     pagecolor="#ffffff"
     bordercolor="#999999"
     borderopacity="1"
     inkscape:showpageshadow="0"
     inkscape:pageopacity="0"
     inkscape:pagecheckerboard="0"
     inkscape:deskcolor="#d1d1d1"
     inkscape:document-units="mm"
     showgrid="false"
     inkscape:zoom="0.1767767"
     inkscape:cx="800.44488"
     inkscape:cy="605.2834"
     inkscape:window-width="1920"
     inkscape:window-height="1009"
     inkscape:window-x="1912"
     inkscape:window-y="-8"
     inkscape:window-maximized="1"
     inkscape:current-layer="layer1"
     showguides="false"><inkscape:grid
       type="xygrid"
       id="grid6400"
       originx="377.0406"
       originy="60.320855" /></sodipodi:namedview><defs
     id="defs2" /><g
     inkscape:label="Capa 1"
     inkscape:groupmode="layer"
     id="layer1"
     transform="translate(46.915944,-86.211194)"><g
       id="g1026"
       transform="matrix(0.73942818,0,0,0.7384705,-208.40033,18.315209)"><g
         id="g191"
         transform="translate(186.38472,47.406548)"><path
           style="fill:#a3cdfd;stroke-width:0.264583"
           d="m 120.79236,179.78861 c 0.191,-0.0764 0.4192,-0.067 0.50712,0.0209 0.0879,0.0879 -0.0684,0.15045 -0.34726,0.13897 -0.30823,-0.0127 -0.37092,-0.0754 -0.15986,-0.15985 z m 5.02709,0 c 0.19099,-0.0764 0.4192,-0.067 0.50712,0.0209 0.0879,0.0879 -0.0684,0.15045 -0.34727,0.13897 -0.30823,-0.0127 -0.37092,-0.0754 -0.15985,-0.15985 z m -16.4993,-5.70624 -1.04588,-1.12448 1.12448,1.04588 c 1.04575,0.97266 1.24606,1.20308 1.04588,1.20308 -0.0432,0 -0.54924,-0.50602 -1.12448,-1.12448 z m 28.05828,0.0661 c 0.56839,-0.58208 1.09297,-1.05833 1.16573,-1.05833 0.0728,0 -0.33276,0.47625 -0.90115,1.05833 -0.56838,0.58209 -1.09296,1.05834 -1.16572,1.05834 -0.0728,0 0.33275,-0.47625 0.90114,-1.05834 z M 109.3326,146.10268 c 0.56839,-0.58208 1.09297,-1.05833 1.16573,-1.05833 0.0728,0 -0.33276,0.47625 -0.90115,1.05833 -0.56839,0.58208 -1.09296,1.05833 -1.16573,1.05833 -0.0728,0 0.33276,-0.47625 0.90115,-1.05833 z m 28.03338,-0.0661 -1.04588,-1.12448 1.12448,1.04588 c 1.04575,0.97266 1.24606,1.20307 1.04588,1.20307 -0.0432,0 -0.54924,-0.50601 -1.12448,-1.12447 z m -16.57362,-5.67085 c 0.191,-0.0764 0.4192,-0.067 0.50712,0.0209 0.0879,0.0879 -0.0684,0.15045 -0.34726,0.13896 -0.30823,-0.0127 -0.37092,-0.0754 -0.15986,-0.15985 z m 5.02709,0 c 0.19099,-0.0764 0.4192,-0.067 0.50712,0.0209 0.0879,0.0879 -0.0684,0.15045 -0.34727,0.13896 -0.30823,-0.0127 -0.37092,-0.0754 -0.15985,-0.15985 z m -52.404037,-8.46115 c 0.181901,-0.0734 0.479558,-0.0734 0.661459,0 0.181901,0.0734 0.03307,0.13345 -0.330729,0.13345 -0.363802,0 -0.512631,-0.0601 -0.33073,-0.13345 z m 4.233334,0 c 0.181901,-0.0734 0.479557,-0.0734 0.661458,0 0.181901,0.0734 0.03307,0.13345 -0.330729,0.13345 -0.363802,0 -0.51263,-0.0601 -0.330729,-0.13345 z m -5.804297,-0.2701 c 0.190995,-0.0764 0.419198,-0.067 0.507119,0.0209 0.08792,0.0879 -0.06835,0.15045 -0.347266,0.13896 -0.308226,-0.0127 -0.370919,-0.0754 -0.159853,-0.15985 z m 7.672916,0 c 0.190995,-0.0764 0.419198,-0.067 0.507119,0.0209 0.08792,0.0879 -0.06835,0.15045 -0.347265,0.13896 -0.308227,-0.0127 -0.37092,-0.0754 -0.159854,-0.15985 z m -15.85914,-3.72186 c -0.329107,-0.41965 -0.319749,-0.42901 0.0999,-0.0999 0.254662,0.19972 0.463021,0.40808 0.463021,0.46302 0,0.21777 -0.217273,0.0776 -0.562917,-0.36312 z m 23.846249,0.36312 c 0,-0.0549 0.20836,-0.2633 0.463021,-0.46302 0.419645,-0.32911 0.429003,-0.31975 0.0999,0.0999 -0.345644,0.44073 -0.562917,0.58089 -0.562917,0.36312 z m -25.809322,-2.08291 -1.045885,-1.12448 1.124479,1.04588 c 1.045755,0.97266 1.246063,1.20308 1.045885,1.20308 -0.04323,0 -0.549243,-0.50602 -1.124479,-1.12448 z m 28.05828,0.0661 c 0.568389,-0.58208 1.092968,-1.05833 1.165728,-1.05833 0.07276,0 -0.332756,0.47625 -0.901144,1.05833 -0.568389,0.58209 -1.092967,1.05834 -1.165728,1.05834 -0.07276,0 0.332756,-0.47625 0.901144,-1.05834 z M 59.95406,124.20841 c -0.329108,-0.41964 -0.319749,-0.429 0.0999,-0.0999 0.254661,0.19972 0.463021,0.40808 0.463021,0.46302 0,0.21776 -0.217274,0.0776 -0.562917,-0.36313 z m 31.254582,0.36313 c 0,-0.0549 0.208359,-0.2633 0.463021,-0.46302 0.419645,-0.32911 0.429003,-0.31975 0.0999,0.0999 -0.345644,0.44073 -0.562917,0.58089 -0.562917,0.36313 z M 59.723227,100.49445 c 0,-0.0549 0.208359,-0.2633 0.46302,-0.46302 0.419645,-0.329104 0.429004,-0.319746 0.0999,0.0999 -0.345644,0.44073 -0.562917,0.58089 -0.562917,0.36312 z m 1.984375,-2.28135 c 0.568388,-0.582083 1.092967,-1.058333 1.165727,-1.058333 0.07276,0 -0.332756,0.47625 -0.901144,1.058333 -0.568389,0.582083 -1.092967,1.058333 -1.165728,1.058333 -0.07276,0 0.332756,-0.47625 0.901145,-1.058333 z m 28.033383,-0.06615 -1.045885,-1.124479 1.124479,1.045885 c 1.045755,0.972661 1.246063,1.203073 1.045885,1.203073 -0.04323,0 -0.549243,-0.506015 -1.124479,-1.124479 z M 79.517366,92.74069 c 0.190995,-0.07643 0.419198,-0.06703 0.507119,0.02088 0.08792,0.08792 -0.06835,0.150452 -0.347265,0.138964 -0.308227,-0.0127 -0.37092,-0.07539 -0.159854,-0.15985 z m -6.101953,-0.259072 c 0.181901,-0.0734 0.479558,-0.0734 0.661459,0 0.181901,0.0734 0.03307,0.133453 -0.330729,0.133453 -0.363802,0 -0.512631,-0.06006 -0.33073,-0.133453 z m 4.233334,0 c 0.181901,-0.0734 0.479557,-0.0734 0.661458,0 0.181901,0.0734 0.03307,0.133453 -0.330729,0.133453 -0.363802,0 -0.51263,-0.06006 -0.330729,-0.133453 z m 43.143613,-8.472177 c 0.191,-0.07643 0.4192,-0.06703 0.50712,0.02088 0.0879,0.08792 -0.0684,0.150453 -0.34726,0.138965 -0.30823,-0.0127 -0.37092,-0.07539 -0.15986,-0.159851 z m 5.02709,0 c 0.19099,-0.07643 0.4192,-0.06703 0.50712,0.02088 0.0879,0.08792 -0.0684,0.150453 -0.34727,0.138965 -0.30823,-0.0127 -0.37092,-0.07539 -0.15985,-0.159851 z m -16.4993,-5.70624 -1.04588,-1.124479 1.12448,1.045885 c 1.04575,0.972661 1.24606,1.203073 1.04588,1.203073 -0.0432,0 -0.54924,-0.506015 -1.12448,-1.124479 z m 28.05828,0.06615 c 0.56839,-0.582083 1.09297,-1.058333 1.16573,-1.058333 0.0728,0 -0.33276,0.47625 -0.90115,1.058333 -0.56838,0.582083 -1.09296,1.058333 -1.16572,1.058333 -0.0728,0 0.33275,-0.47625 0.90114,-1.058333 z M 109.3326,50.323519 c 0.56839,-0.582083 1.09297,-1.058333 1.16573,-1.058333 0.0728,0 -0.33276,0.47625 -0.90115,1.058333 -0.56839,0.582083 -1.09296,1.058333 -1.16573,1.058333 -0.0728,0 0.33276,-0.47625 0.90115,-1.058333 z m 28.03338,-0.06615 -1.04588,-1.124479 1.12448,1.045884 c 1.04575,0.972662 1.24606,1.203074 1.04588,1.203074 -0.0432,0 -0.54924,-0.506015 -1.12448,-1.124479 z m -16.57362,-5.670844 c 0.191,-0.07643 0.4192,-0.06703 0.50712,0.02089 0.0879,0.08792 -0.0684,0.150453 -0.34726,0.138964 -0.30823,-0.0127 -0.37092,-0.07539 -0.15986,-0.159852 z m 5.02709,0 c 0.19099,-0.07643 0.4192,-0.06703 0.50712,0.02089 0.0879,0.08792 -0.0684,0.150453 -0.34727,0.138964 -0.30823,-0.0127 -0.37092,-0.07539 -0.15985,-0.159852 z"
           id="path205" /><path
           style="fill:#c8cc8e;fill-opacity:1;stroke-width:0.264583"
           d="m 121.56958,179.79412 c 0.1819,-0.0734 0.47956,-0.0734 0.66146,0 0.1819,0.0734 0.0331,0.13345 -0.33073,0.13345 -0.36381,0 -0.51263,-0.06 -0.33073,-0.13345 z m 3.175,0 c 0.1819,-0.0734 0.47955,-0.0734 0.66146,0 0.1819,0.0734 0.0331,0.13345 -0.33073,0.13345 -0.36381,0 -0.51263,-0.06 -0.33073,-0.13345 z m -3.175,-39.42292 c 0.1819,-0.0734 0.47956,-0.0734 0.66146,0 0.1819,0.0734 0.0331,0.13346 -0.33073,0.13346 -0.36381,0 -0.51263,-0.0601 -0.33073,-0.13346 z m 3.175,0 c 0.1819,-0.0734 0.47955,-0.0734 0.66146,0 0.1819,0.0734 0.0331,0.13346 -0.33073,0.13346 -0.36381,0 -0.51263,-0.0601 -0.33073,-0.13346 z m -52.408894,-8.7133 c -7.546038,-1.36352 -13.615474,-7.04445 -15.678252,-14.67469 -0.698359,-2.58324 -0.649918,-7.21153 0.103158,-9.85612 3.69589,-12.97894 18.496626,-18.700668 29.758295,-11.504083 4.146131,2.649518 7.201899,6.890123 8.550473,11.865813 0.628872,2.32028 0.628872,7.17412 0,9.49439 -2.098853,7.74391 -8.15599,13.34197 -15.896666,14.69183 -2.772548,0.48349 -4.084587,0.4802 -6.837008,-0.0171 z M 121.56958,84.014956 c 0.1819,-0.0734 0.47956,-0.0734 0.66146,0 0.1819,0.0734 0.0331,0.133453 -0.33073,0.133453 -0.36381,0 -0.51263,-0.06006 -0.33073,-0.133453 z m 3.175,0 c 0.1819,-0.0734 0.47955,-0.0734 0.66146,0 0.1819,0.0734 0.0331,0.133453 -0.33073,0.133453 -0.36381,0 -0.51263,-0.06006 -0.33073,-0.133453 z m -3.175,-39.422915 c 0.1819,-0.0734 0.47956,-0.0734 0.66146,0 0.1819,0.0734 0.0331,0.133452 -0.33073,0.133452 -0.36381,0 -0.51263,-0.06005 -0.33073,-0.133452 z m 3.175,0 c 0.1819,-0.0734 0.47955,-0.0734 0.66146,0 0.1819,0.0734 0.0331,0.133452 -0.33073,0.133452 -0.36381,0 -0.51263,-0.06005 -0.33073,-0.133452 z"
           id="path203" /><path
           style="fill:#a1a0a4;stroke-width:0.264583"
           d="m 166.08572,162.90372 c 0.34178,-0.3638 0.68094,-0.66146 0.7537,-0.66146 0.0728,0 -0.14734,0.29766 -0.48912,0.66146 -0.34177,0.3638 -0.68093,0.66146 -0.7537,0.66146 -0.0728,0 0.14735,-0.29766 0.48912,-0.66146 z m -133.119158,-0.0661 c -0.329107,-0.41965 -0.319749,-0.42901 0.09989,-0.0999 0.254662,0.19972 0.463021,0.40808 0.463021,0.46302 0,0.21776 -0.217272,0.0776 -0.562916,-0.36312 z m 0.03375,-5.49011 c 0.341775,-0.3638 0.680939,-0.66146 0.7537,-0.66146 0.07276,0 -0.147342,0.29766 -0.489116,0.66146 -0.341775,0.3638 -0.680939,0.66146 -0.7537,0.66146 -0.07276,0 0.147342,-0.29766 0.489116,-0.66146 z m 133.065388,-0.0661 -0.64144,-0.72761 0.72761,0.64143 c 0.68005,0.59952 0.84894,0.81378 0.64143,0.81378 -0.0474,0 -0.37481,-0.32742 -0.7276,-0.7276 z M 32.966562,114.948 c -0.329107,-0.41965 -0.319749,-0.42901 0.09989,-0.0999 0.254662,0.19972 0.463021,0.40808 0.463021,0.46302 0,0.21776 -0.217272,0.0776 -0.562916,-0.36312 z m 0.03375,-5.49011 c 0.341775,-0.3638 0.680939,-0.66146 0.7537,-0.66146 0.07276,0 -0.147342,0.29766 -0.489116,0.66146 -0.341775,0.3638 -0.680939,0.66146 -0.7537,0.66146 -0.07276,0 0.147342,-0.29766 0.489116,-0.66146 z M 166.08572,67.12456 c 0.34178,-0.363802 0.68094,-0.661458 0.7537,-0.661458 0.0728,0 -0.14734,0.297656 -0.48912,0.661458 -0.34177,0.363802 -0.68093,0.661458 -0.7537,0.661458 -0.0728,0 0.14735,-0.297656 0.48912,-0.661458 z M 32.966562,67.058414 c -0.329107,-0.419644 -0.319749,-0.429002 0.09989,-0.0999 0.254662,0.199719 0.463021,0.408079 0.463021,0.463021 0,0.217761 -0.217272,0.0776 -0.562916,-0.363126 z m 0.03375,-5.490104 c 0.341775,-0.363802 0.680939,-0.661458 0.7537,-0.661458 0.07276,0 -0.147342,0.297656 -0.489116,0.661458 -0.341775,0.363802 -0.680939,0.661458 -0.7537,0.661458 -0.07276,0 0.147342,-0.297656 0.489116,-0.661458 z m 133.065388,-0.06615 -0.64144,-0.727604 0.72761,0.641433 c 0.40018,0.352789 0.7276,0.68021 0.7276,0.727604 0,0.207506 -0.21426,0.03862 -0.81377,-0.641433 z"
           id="path201" /><path
           style="fill:#c8cc8e;fill-opacity:1;stroke-width:0.264583"
           d="m 120.84197,179.67893 c -7.20287,-0.93597 -13.63952,-6.24181 -16.00339,-13.19187 -1.47991,-4.35112 -1.4463,-8.61418 0.10244,-12.99072 1.05382,-2.97798 2.25927,-4.85464 4.66108,-7.25645 2.40909,-2.40909 4.27821,-3.60717 7.29063,-4.67318 5.50285,-1.9473 11.75526,-1.33551 16.8204,1.64585 1.97776,1.16412 5.52359,4.70995 6.68771,6.68771 2.16203,3.67315 3.20745,8.51913 2.68492,12.44575 -1.23165,9.25527 -8.16711,16.20835 -17.3109,17.35488 -2.36912,0.29707 -2.48157,0.29657 -4.93289,-0.022 z m 0,-95.779161 c -7.20287,-0.935968 -13.63952,-6.241811 -16.00339,-13.19187 -1.47991,-4.351126 -1.4463,-8.61418 0.10244,-12.990717 1.05382,-2.977981 2.25927,-4.85464 4.66108,-7.256454 2.40909,-2.409092 4.27821,-3.607167 7.29063,-4.673178 5.50285,-1.947303 11.75526,-1.335515 16.8204,1.64585 1.97776,1.164122 5.52359,4.709946 6.68771,6.687712 2.16203,3.673147 3.20745,8.519125 2.68492,12.445745 -1.23165,9.255268 -8.16711,16.208349 -17.3109,17.354883 -2.36912,0.297064 -2.48157,0.296564 -4.93289,-0.02196 z"
           id="path199" /><path
           style="fill:#346eaf;stroke-width:0.264583"
           d="m 103.69564,162.10997 c 0.005,-0.43656 0.0647,-0.58312 0.13177,-0.32569 0.0671,0.25743 0.0627,0.61462 -0.01,0.79375 -0.0725,0.17913 -0.12737,-0.0315 -0.12197,-0.46806 z m 39.42291,0 c 0.005,-0.43656 0.0647,-0.58312 0.13178,-0.32569 0.0671,0.25743 0.0627,0.61462 -0.01,0.79375 -0.0725,0.17913 -0.12736,-0.0315 -0.12197,-0.46806 z m 0,-3.96875 c 0.005,-0.43656 0.0647,-0.58312 0.13178,-0.32569 0.0671,0.25743 0.0627,0.61462 -0.01,0.79375 -0.0725,0.17913 -0.12736,-0.0315 -0.12197,-0.46806 z m -39.43272,-0.13229 c 0,-0.3638 0.0601,-0.51263 0.13346,-0.33073 0.0734,0.1819 0.0734,0.47956 0,0.66146 -0.0734,0.1819 -0.13346,0.0331 -0.13346,-0.33073 z M 56.060837,114.35268 c 0,-0.3638 0.06005,-0.51263 0.133452,-0.33073 0.0734,0.1819 0.0734,0.47956 0,0.66146 -0.0734,0.1819 -0.133452,0.0331 -0.133452,-0.33073 z m 39.422913,0 c 0,-0.3638 0.06006,-0.51263 0.133453,-0.33073 0.0734,0.1819 0.0734,0.47956 0,0.66146 -0.0734,0.1819 -0.133453,0.0331 -0.133453,-0.33073 z m 0,-4.23333 c 0,-0.3638 0.06006,-0.51263 0.133453,-0.33073 0.0734,0.1819 0.0734,0.47956 0,0.66146 -0.0734,0.1819 -0.133453,0.0331 -0.133453,-0.33073 z m -39.443802,-0.15434 c 0.0127,-0.30823 0.07539,-0.37092 0.159853,-0.15985 0.07643,0.19099 0.06703,0.41919 -0.02089,0.50712 -0.08792,0.0879 -0.150453,-0.0684 -0.138965,-0.34727 z m 47.655692,-43.6342 c 0.005,-0.436563 0.0647,-0.583125 0.13177,-0.325694 0.0671,0.257431 0.0627,0.614619 -0.01,0.79375 -0.0725,0.179132 -0.12735,-0.03149 -0.12196,-0.468056 z m 39.42291,0 c 0.005,-0.436563 0.0647,-0.583125 0.13178,-0.325694 0.0671,0.257431 0.0627,0.614619 -0.01,0.79375 -0.0725,0.179132 -0.12735,-0.03149 -0.12196,-0.468056 z m 0,-3.96875 c 0.005,-0.436562 0.0647,-0.583125 0.13178,-0.325693 0.0671,0.25743 0.0627,0.614618 -0.01,0.793749 -0.0725,0.179132 -0.12735,-0.03149 -0.12196,-0.468056 z m -39.43272,-0.132292 c 0,-0.363802 0.0601,-0.51263 0.13346,-0.330729 0.0734,0.181901 0.0734,0.479558 0,0.661459 -0.0734,0.181901 -0.13346,0.03307 -0.13346,-0.33073 z"
           id="path197" /><path
           style="fill:#d9d9d9;fill-opacity:1;stroke-width:0.264583"
           d="m 34.747705,163.8196 c -1.740116,-0.52073 -3.020425,-2.5989 -2.689118,-4.36492 0.21329,-1.13693 1.320276,-2.46815 2.442227,-2.93693 0.713432,-0.2981 6.459758,-0.3609 33.019122,-0.3609 h 32.155372 v 3.96875 3.96875 l -32.080728,-0.0228 c -17.6444,-0.0125 -32.425494,-0.1259 -32.846875,-0.25199 z m 0,-47.88959 c -0.421382,-0.12609 -1.103239,-0.55222 -1.515238,-0.94694 -1.500349,-1.43742 -1.625158,-3.58178 -0.300127,-5.15649 1.297443,-1.54193 1.440464,-1.55931 12.825618,-1.55931 h 10.393394 v 3.96875 3.96875 l -10.31875,-0.0228 C 40.15729,116.1695 35.169086,116.0561 34.747705,115.93 Z m 60.826562,-3.69399 v -3.96875 h 2.05052 2.050521 v 3.96875 3.96875 h -2.050521 -2.05052 z m 70.246873,3.0751 c 0,-0.0549 0.20836,-0.2633 0.46302,-0.46302 0.41964,-0.32911 0.429,-0.31975 0.0999,0.0999 -0.34564,0.44072 -0.56291,0.58088 -0.56291,0.36312 z m 0.23083,-5.91937 c -0.32911,-0.41965 -0.31975,-0.42901 0.0999,-0.0999 0.44073,0.34564 0.58088,0.56292 0.36312,0.56292 -0.0549,0 -0.2633,-0.20836 -0.46302,-0.46302 z M 34.747705,68.040434 C 33.007589,67.519708 31.72728,65.44154 32.058587,63.67552 c 0.21329,-1.136933 1.320276,-2.468155 2.442227,-2.936936 0.713432,-0.298091 6.459758,-0.360899 33.019122,-0.360899 h 32.155372 v 3.96875 3.96875 L 67.59458,68.292444 c -17.6444,-0.01251 -32.425494,-0.125913 -32.846875,-0.25201 z"
           id="path195" /><path
           style="fill:#7f7f7f;fill-opacity:1;stroke-width:0.264583"
           d="m 99.675308,160.1256 v -3.96875 h 2.050522 2.05052 v 3.96875 3.96875 h -2.05052 -2.050522 z m 43.523952,0 v -3.99087 l 10.58334,0.0772 c 10.09284,0.0736 10.62581,0.10217 11.50001,0.61574 0.50417,0.29619 1.14549,0.9303 1.42514,1.40914 1.03734,1.77616 0.39385,4.1181 -1.42514,5.18672 -0.8742,0.51357 -1.40717,0.5421 -11.50001,0.61573 l -10.58334,0.0772 z M 99.675308,112.23602 v -3.97694 l 32.524412,0.0702 c 32.38221,0.0699 32.5276,0.0726 33.255,0.61575 1.31164,0.97936 1.7911,1.86032 1.7911,3.29095 0,1.43062 -0.47946,2.31158 -1.7911,3.29094 -0.7274,0.54313 -0.87279,0.54582 -33.255,0.61575 l -32.524412,0.0702 z m 0,-47.889585 v -3.96875 h 2.050522 2.05052 v 3.96875 3.96875 h -2.05052 -2.050522 z m 43.523952,0 v -3.990869 l 10.58334,0.0772 c 10.09284,0.07363 10.62581,0.102164 11.50001,0.615735 0.50417,0.296191 1.14549,0.930302 1.42514,1.409137 1.03734,1.776165 0.39385,4.118105 -1.42514,5.186721 -0.8742,0.513571 -1.40717,0.542107 -11.50001,0.615735 l -10.58334,0.07721 z"
           id="path193" /></g></g><g
       id="g380"
       transform="translate(323.28922,29.934187)" /></g></svg>
