<?xml version="1.0" encoding="UTF-8" standalone="no"?>
<!-- Created with Inkscape (http://www.inkscape.org/) -->

<svg
   width="98.860718mm"
   height="99.937111mm"
   viewBox="0 0 98.860728 99.937111"
   version="1.1"
   id="svg5"
   xml:space="preserve"
   inkscape:version="1.2.1 (9c6d41e410, 2022-07-14)"
   sodipodi:docname="execute.svg"
   inkscape:export-filename="select.png"
   inkscape:export-xdpi="96"
   inkscape:export-ydpi="96"
   xmlns:inkscape="http://www.inkscape.org/namespaces/inkscape"
   xmlns:sodipodi="http://sodipodi.sourceforge.net/DTD/sodipodi-0.dtd"
   xmlns="http://www.w3.org/2000/svg"
   xmlns:svg="http://www.w3.org/2000/svg"><sodipodi:namedview
     id="namedview7"
     pagecolor="#ffffff"
     bordercolor="#999999"
     borderopacity="1"
     inkscape:showpageshadow="0"
     inkscape:pageopacity="0"
     inkscape:pagecheckerboard="0"
     inkscape:deskcolor="#d1d1d1"
     inkscape:document-units="mm"
     showgrid="false"
     inkscape:zoom="2"
     inkscape:cx="217.49999"
     inkscape:cy="178.5"
     inkscape:window-width="1920"
     inkscape:window-height="1009"
     inkscape:window-x="1912"
     inkscape:window-y="-8"
     inkscape:window-maximized="1"
     inkscape:current-layer="layer1"
     showguides="false"><inkscape:grid
       type="xygrid"
       id="grid6400"
       originx="381.25753"
       originy="-161.47178" /></sodipodi:namedview><defs
     id="defs2" /><g
     inkscape:label="Capa 1"
     inkscape:groupmode="layer"
     id="layer1"
     transform="translate(51.132884,-308.00383)"><g
       id="g380"
       transform="translate(323.28922,29.934187)" /><path
       style="fill:#d9d9d9;fill-opacity:1;stroke-width:0.184722"
       d="m -19.571026,401.44808 -27.662009,-3.80782 v -39.72799 -39.72801 l 27.477286,-3.66001 C -4.643235,312.51124 7.9085729,310.82236 8.13716,310.7712 l 0.4156236,-0.093 v 3.98839 3.98841 l 15.2856924,0.0493 15.285681,0.0493 1.01597,0.48263 c 1.29234,0.61394 2.320761,1.64236 2.934698,2.93471 l 0.482646,1.01597 0.04755,34.48592 c 0.0472,34.18293 0.04441,34.49466 -0.324733,35.48114 -0.432516,1.156 -1.414038,2.37457 -2.428416,3.01494 -1.579613,0.99716 -1.609666,0.99886 -17.560252,0.99886 H 8.5527603 v 4.06387 c 0,3.13851 -0.052549,4.05936 -0.2309007,4.04406 -0.126989,-0.0105 -12.6787968,-1.73332 -27.8929096,-3.82762 z m 58.365812,-8.09848 c 0.357541,-0.16967 0.806193,-0.56452 0.99702,-0.87744 0.327802,-0.53757 0.346973,-1.10481 0.347624,-10.28819 l 5.69e-4,-9.71924 -0.692702,0.12874 c -1.853192,0.34444 -3.161041,1.75373 -3.445769,3.71303 -0.121908,0.83891 -0.130407,0.8473 -1.568185,1.54829 l -1.445603,0.70482 -1.227432,-0.60427 c -1.070205,-0.52686 -1.354828,-0.59111 -2.221813,-0.50163 -1.014784,0.10475 -1.664994,0.38191 -2.549697,1.0869 l -0.497795,0.39667 -1.441777,-0.51481 c -1.495315,-0.53392 -1.903626,-0.84341 -1.903626,-1.44288 0,-0.56261 -0.526639,-1.51983 -1.21476,-2.20796 -0.626668,-0.62667 -1.372337,-0.94626 -2.686638,-1.1515 -0.630666,-0.0985 -0.708164,-0.19062 -1.360141,-1.6169 -0.544182,-1.19049 -0.646745,-1.57306 -0.481774,-1.79714 1.259705,-1.71125 1.229932,-3.76191 -0.07952,-5.47873 l -0.4545,-0.59587 0.575769,-1.58053 c 0.556308,-1.5271 0.598393,-1.58461 1.245278,-1.70158 1.917647,-0.34677 3.013649,-1.48606 3.445002,-3.58105 l 0.209114,-1.0156 1.46067,-0.71026 c 1.272168,-0.61859 1.508696,-0.67939 1.832685,-0.47108 1.045336,0.67205 1.720065,0.90354 2.633658,0.90354 1.121614,0 1.919762,-0.28576 2.747277,-0.9836 l 0.57563,-0.48541 1.45631,0.48309 c 0.800974,0.26568 1.549433,0.55589 1.66325,0.64487 0.113817,0.0889 0.250758,0.48837 0.304295,0.88751 0.125233,0.93374 1.067565,2.24211 1.987017,2.75886 0.396174,0.22267 1.128939,0.45325 1.628361,0.51239 0.784325,0.0929 0.947238,0.18619 1.195892,0.68483 0.262662,0.52676 0.288832,-1.04795 0.298993,-17.98719 0.01046,-18.09766 0.0023,-18.57936 -0.349461,-19.15586 -0.745077,-1.22196 0.0765,-1.16348 -16.346143,-1.16348 H 8.5526324 v 14.31589 c 0,7.87375 0.062314,14.31296 0.1385335,14.30936 0.076149,-0.003 0.3421831,-0.11932 0.5910805,-0.25716 0.3870473,-0.21434 0.514885,-0.20975 0.8834476,0.0317 0.577594,0.37846 1.718286,0.35735 2.329456,-0.0431 0.436748,-0.28617 0.596661,-0.29746 1.324985,-0.0936 0.45557,0.12755 0.828294,0.31245 0.828294,0.41088 0,0.0985 0.135894,0.46536 0.301993,0.81538 0.314653,0.6631 1.0666,1.17429 1.727331,1.17429 0.282287,0 0.483298,0.22891 0.752494,0.85691 0.334184,0.77963 0.341927,0.89564 0.0858,1.28655 -0.385698,0.58864 -0.35196,1.52553 0.08045,2.23471 0.336905,0.55253 0.342253,0.64523 0.0815,1.41054 -0.228122,0.66951 -0.379502,0.83923 -0.828654,0.92906 -0.713036,0.1426 -1.391926,0.8861 -1.542632,1.68942 -0.09812,0.52313 -0.258314,0.69946 -0.896852,0.98726 -0.676565,0.30495 -0.830433,0.31739 -1.186497,0.096 -0.605474,-0.37646 -1.958605,-0.32328 -2.478117,0.0974 -0.422482,0.3421 -0.458592,0.34259 -1.3135096,0.0178 L 8.552644,362.10626 v 15.77592 15.77592 h 14.795955 c 13.438603,0 14.855606,-0.0283 15.446036,-0.30847 z M 21.918958,351.82883 c -0.401242,-0.1746 -0.647594,-0.4564 -0.798369,-0.91328 -0.246526,-0.74697 -1.046616,-1.40587 -1.707126,-1.40587 -0.343264,0 -0.535625,-0.19132 -0.856591,-0.85196 -0.381072,-0.78437 -0.391326,-0.88645 -0.129164,-1.28655 0.388675,-0.59321 0.356437,-1.52844 -0.07719,-2.23966 -0.33794,-0.55421 -0.342858,-0.64345 -0.07836,-1.41985 0.225529,-0.66188 0.388303,-0.85174 0.809611,-0.94427 0.725371,-0.15932 1.444859,-0.92918 1.589636,-1.70094 0.09975,-0.53188 0.252792,-0.7004 0.881912,-0.97131 0.663661,-0.28576 0.825097,-0.29533 1.259996,-0.0746 0.693481,0.35191 1.614503,0.31476 2.281559,-0.092 0.530847,-0.32372 0.610274,-0.32637 1.362338,-0.0455 0.639072,0.23869 0.840141,0.42615 1.006414,0.9384 0.228808,0.70487 1.212016,1.48416 1.872514,1.48416 0.312677,0 0.481589,0.18906 0.715047,0.80036 0.279927,0.73299 0.281159,0.85899 0.01465,1.49691 -0.32178,0.77013 -0.22553,1.65339 0.237376,2.17832 0.242259,0.27473 0.248281,0.43844 0.04313,1.17134 -0.131186,0.46857 -0.371073,0.89375 -0.533068,0.94481 -1.319381,0.41596 -1.864679,0.97119 -1.864679,1.89868 0,0.26728 -0.24248,0.49882 -0.812332,0.77568 -0.782035,0.37994 -0.841082,0.38315 -1.583008,0.0863 -0.616727,-0.24676 -0.914116,-0.26973 -1.488874,-0.11498 -0.395023,0.10638 -0.768189,0.27425 -0.829271,0.3731 -0.15174,0.2455 -0.623168,0.21424 -1.316079,-0.0873 z m 3.812913,-3.15922 c 1.049301,-0.52976 1.662483,-1.55073 1.662483,-2.76811 0,-1.88596 -1.252719,-3.12799 -3.154961,-3.12799 -0.914755,0 -1.167652,0.0809 -1.772986,0.56759 -1.344446,1.08078 -1.679875,2.49423 -0.936949,3.94815 0.831712,1.6277 2.577005,2.20097 4.202413,1.38036 z m 6.372038,23.36871 c 2.130155,-1.27385 3.172411,-3.28272 3.007499,-5.79669 -0.103935,-1.58466 -0.680077,-2.81452 -1.836603,-3.92068 -1.356491,-1.2974 -2.203072,-1.63277 -4.125601,-1.63431 -1.448509,-0.001 -1.798063,0.0652 -2.715876,0.51597 -2.214187,1.08732 -3.564249,3.35141 -3.436574,5.76324 0.125827,2.37689 1.38137,4.25018 3.550704,5.29769 1.037222,0.50085 1.253788,0.53777 2.805802,0.47834 1.53139,-0.0586 1.777439,-0.12157 2.750649,-0.70356 z m 8.023232,-6.13462 c -0.0093,-1.02315 -0.0651,-1.40254 -0.171737,-1.15451 -0.263848,0.61399 -0.17605,2.67846 0.113934,2.67846 0.03895,0 0.06499,-0.68577 0.05778,-1.52395 z M 1.9028183,344.01933 v -1.84722 H -2.16105 -6.224918 v -2.309 -2.30902 h 3.6944339 3.6944225 v -1.84722 -1.8472 H -2.5304841 -6.224918 v -2.03194 -2.03193 h 3.8791451 3.8791454 v -1.87673 -1.87671 l -4.2947573,0.12143 c -2.3621366,0.0668 -5.1052405,0.12165 -6.095808,0.12188 l -1.8010272,4.2e-4 v 9.69361 9.69359 l 3.2787985,0.055 c 1.8033412,0.0302 4.6295695,0.0737 6.2805193,0.0966 l 3.0017205,0.0416 z m -15.2970393,0.87743 c -0.200604,-0.33019 -1.422502,-2.47064 -2.715318,-4.75657 -1.292816,-2.28593 -2.379448,-4.20599 -2.414755,-4.2668 -0.03523,-0.0608 1.096688,-2.16264 2.515539,-4.67069 1.41884,-2.50807 2.579715,-4.60125 2.579715,-4.65152 0,-0.0502 -1.05887,-0.0681 -2.353034,-0.0398 l -2.353022,0.0517 -0.406463,0.83126 c -0.223548,0.45718 -0.84471,1.89108 -1.380358,3.18645 -0.535649,1.29535 -1.025562,2.35518 -1.088701,2.35518 -0.06313,0 -0.41309,-0.68577 -0.777652,-1.52395 -0.364563,-0.83816 -1.011704,-2.25006 -1.438081,-3.13753 l -0.775246,-1.61359 -2.241112,0.11533 c -1.232617,0.0635 -2.25047,0.12455 -2.261899,0.13581 -0.01162,0.0116 1.081029,2.03287 2.427684,4.49246 l 2.448447,4.47198 -2.536548,4.57936 c -1.395111,2.51865 -2.52913,4.58989 -2.520039,4.60276 0.0093,0.0129 1.021586,0.0817 2.250006,0.15299 l 2.233485,0.12961 1.215388,-2.73909 c 0.668464,-1.5065 1.330221,-3.02573 1.470564,-3.37605 l 0.255175,-0.63696 1.688245,3.45396 1.688234,3.45395 h 2.427253 2.427242 z m -16.659738,-1.40742 v -1.63833 l -0.692702,-0.11452 c -0.38099,-0.063 -1.960348,-0.11544 -3.509711,-0.11652 l -2.816986,-0.002 v -2.12428 -2.12431 h 3.140253 3.140266 v -1.66248 -1.66249 h -3.140266 -3.140253 v -1.84296 -1.84295 l 3.278799,-0.0505 3.278798,-0.0505 0.0529,-1.69015 0.0529,-1.69015 -3.839653,0.0796 c -2.111809,0.0438 -4.442312,0.12572 -5.17889,0.18197 l -1.339227,0.10231 v 8.84695 8.84695 l 3.648245,0.0542 c 2.006538,0.0299 4.417154,0.0731 5.356917,0.0963 l 1.708672,0.0421 z m 43.59083,15.47184 c 1.65102,-1.3179 1.724263,-3.60489 0.157647,-4.92311 -2.059366,-1.73284 -5.1417344,-0.23757 -5.1417344,2.49427 0,0.886 0.3138858,1.55459 1.0649263,2.26836 1.0671121,1.01416 2.7627401,1.0836 3.9191611,0.16048 z"
       id="path306"
       sodipodi:nodetypes="cccccccccccssccccscsccccsccssscssscssssscscscscscsscccsscsccscscscscsssssssscsssscccsccccsscccscccscssscsccsssccccssscsssssccsscsccscccccccccccccccccccccsccccccccsccsccssssccccccccscsscccccccccccccccccccccccccccccccccccsssc" /><path
       style="fill:#1bbc37;fill-opacity:1;fill-rule:evenodd;stroke-width:9.30851;stroke-linecap:round;stroke-linejoin:bevel;stroke-opacity:0.988235"
       d="m -36.499241,354.01874 39.7957601,22.0681 -39.7957601,19.70365 z"
       id="path2103"
       sodipodi:nodetypes="cccc" /></g></svg>
