<?xml version="1.0" encoding="UTF-8" standalone="no"?>
<!-- Created with Inkscape (http://www.inkscape.org/) -->

<svg
   width="98.860718mm"
   height="99.937111mm"
   viewBox="0 0 98.860728 99.937111"
   version="1.1"
   id="svg5"
   xml:space="preserve"
   inkscape:version="1.2.1 (9c6d41e410, 2022-07-14)"
   sodipodi:docname="file.svg"
   inkscape:export-filename="select.png"
   inkscape:export-xdpi="96"
   inkscape:export-ydpi="96"
   xmlns:inkscape="http://www.inkscape.org/namespaces/inkscape"
   xmlns:sodipodi="http://sodipodi.sourceforge.net/DTD/sodipodi-0.dtd"
   xmlns="http://www.w3.org/2000/svg"
   xmlns:svg="http://www.w3.org/2000/svg"><sodipodi:namedview
     id="namedview7"
     pagecolor="#ffffff"
     bordercolor="#999999"
     borderopacity="1"
     inkscape:showpageshadow="0"
     inkscape:pageopacity="0"
     inkscape:pagecheckerboard="0"
     inkscape:deskcolor="#d1d1d1"
     inkscape:document-units="mm"
     showgrid="false"
     inkscape:zoom="0.1767767"
     inkscape:cx="823.07229"
     inkscape:cy="-718.42049"
     inkscape:window-width="1920"
     inkscape:window-height="1009"
     inkscape:window-x="1912"
     inkscape:window-y="-8"
     inkscape:window-maximized="1"
     inkscape:current-layer="layer1"
     showguides="false"><inkscape:grid
       type="xygrid"
       id="grid6400"
       originx="381.25753"
       originy="-161.47178" /></sodipodi:namedview><defs
     id="defs2" /><g
     inkscape:label="Capa 1"
     inkscape:groupmode="layer"
     id="layer1"
     transform="translate(51.132884,-308.00383)"><g
       id="g2269"
       transform="translate(-221.04948,160.263)"><path
         style="fill:#7f7f7f;fill-opacity:1;stroke-width:0.206584"
         d="m 191.4376,243.4993 c -1.85045,-0.59032 -2.33366,-1.45953 -2.33366,-4.19782 v -1.95347 l 23.64507,-0.0555 23.64507,-0.0555 1.25524,-0.4534 c 1.75212,-0.63288 3.47818,-2.10007 4.36407,-3.70954 l 0.71517,-1.29931 0.0592,-21.5952 0.0592,-21.59521 3.21725,0.0571 c 2.48084,0.044 3.65474,-0.0253 5.12852,-0.30274 l 1.91127,-0.35978 0.0123,3.91854 c 0.0146,4.65184 0.13361,5.11635 1.45416,5.67699 l 0.92041,0.39076 v 2.24689 2.2469 l -0.91832,0.39077 c -1.86244,0.7925 -1.83173,2.8701 0.0529,3.5782 l 0.87681,0.32944 0.002,2.39343 c 0.002,2.2575 -0.0224,2.39344 -0.43119,2.39344 -0.23838,0 -0.75443,0.25651 -1.14676,0.57002 l -0.71334,0.57002 -0.10922,14.55794 c -0.10735,14.30852 -0.11692,14.56739 -0.55886,15.1094 -0.24731,0.30331 -0.88247,0.74929 -1.41148,0.99108 l -0.96182,0.4396 -28.95033,-0.009 c -23.84748,-0.007 -29.09726,-0.0555 -29.7839,-0.2745 z m -19.48044,-89.59276 c 0.21744,-0.21492 0.4445,-0.39076 0.50457,-0.39076 0.0601,0 -0.0687,0.17584 -0.28614,0.39076 -0.21744,0.21492 -0.4445,0.39076 -0.50456,0.39076 -0.0601,0 0.0687,-0.17584 0.28613,-0.39076 z"
         id="path1413" /><path
         style="fill:#c8cc8e;fill-opacity:1;stroke-width:0.206584"
         d="m 188.8855,173.44477 v -2.14921 h 17.36521 17.3652 v 2.14921 2.1492 h -17.3652 -17.36521 z"
         id="path1411"
         sodipodi:nodetypes="ccccccccc" /><path
         style="fill:#ab5465;stroke-width:0.206584"
         d="m 244.76268,184.64347 c 0.15769,-0.0564 0.34608,-0.0495 0.41866,0.0154 0.0726,0.0649 -0.0565,0.1111 -0.28668,0.10262 -0.25446,-0.009 -0.30622,-0.0557 -0.13198,-0.11804 z m 3.49489,0 c 0.15768,-0.0564 0.34608,-0.0495 0.41866,0.0154 0.0726,0.0649 -0.0565,0.1111 -0.28669,0.10262 -0.25446,-0.009 -0.30622,-0.0557 -0.13197,-0.11804 z m -13.74801,-3.92071 c -0.2717,-0.30989 -0.26397,-0.31681 0.0825,-0.0738 0.36385,0.25523 0.47956,0.41569 0.29978,0.41569 -0.0453,0 -0.21737,-0.15387 -0.38225,-0.34192 z m -10.81194,-7.37568 c 4.3e-4,-1.18207 0.0365,-1.64045 0.0799,-1.01863 0.0435,0.62182 0.0431,1.58896 -8.2e-4,2.14921 -0.044,0.56024 -0.0796,0.0515 -0.079,-1.13058 z m 41.4825,-5.07994 c 0.002,-0.5373 0.0441,-0.73392 0.0943,-0.43692 0.0502,0.29699 0.0489,0.7366 -0.003,0.9769 -0.0518,0.24031 -0.0929,-0.003 -0.0913,-0.53998 z m -0.26365,-2.55625 c 0.0105,-0.22762 0.0623,-0.27391 0.13197,-0.11804 0.0631,0.14103 0.0553,0.30955 -0.0173,0.37447 -0.0726,0.0649 -0.1242,-0.0504 -0.11472,-0.25643 z m -32.56335,-8.16586 c 0,-0.0405 0.17201,-0.19443 0.38225,-0.34191 0.34645,-0.24303 0.35417,-0.23613 0.0825,0.0738 -0.28534,0.32545 -0.46472,0.42896 -0.46472,0.26814 z m 12.61435,-5.91709 c 0.15017,-0.0542 0.3959,-0.0542 0.54607,0 0.15017,0.0542 0.0273,0.0985 -0.27304,0.0985 -0.30034,0 -0.4232,-0.0443 -0.27303,-0.0985 z m 3.05802,0 c 0.15017,-0.0542 0.3959,-0.0542 0.54607,0 0.15018,0.0542 0.0273,0.0985 -0.27304,0.0985 -0.30034,0 -0.42321,-0.0443 -0.27303,-0.0985 z"
         id="path1405"
         sodipodi:nodetypes="csccccscccccsccccccccsccccscccscccssssssss" /><path
         style="fill:#d9d9d9;fill-opacity:1;stroke-width:0.206584"
         d="m 190.68322,247.3871 c -0.6331,-0.15246 -1.45527,-0.4179 -1.82703,-0.58986 -1.17747,-0.54465 -2.60923,-1.88557 -3.31574,-3.1054 -0.64982,-1.12192 -0.68712,-1.30966 -0.76464,-3.84885 l -0.0815,-2.6694 -4.4027,-0.0746 c -3.6544,-0.062 -4.56976,-0.13612 -5.38563,-0.43654 -2.19755,-0.80916 -4.09509,-2.62665 -4.70652,-4.508 -0.27794,-0.85516 -0.31324,-5.92864 -0.26446,-38.0055 l 0.0563,-37.01859 0.58325,-1.113 c 0.74281,-1.41747 2.14329,-2.67018 3.79725,-3.39658 l 1.29869,-0.57036 28.61436,-0.0977 28.61436,-0.0977 0.98294,-0.60941 c 1.60209,-0.99329 4.44363,-2.18818 6.42503,-2.70178 6.45258,-1.67258 13.38807,-0.70735 19.1313,2.66255 1.77692,1.04263 4.89336,3.79139 6.0518,5.33781 6.3819,12.66352 3.34472,23.43047 -8.01394,29.69811 l -0.002,5.2091 -0.002,5.2091 -0.67205,0.50583 c -0.8725,0.6567 -1.92967,0.66998 -2.75604,0.0346 l -0.61268,-0.47119 -0.0662,-4.41336 c -0.0364,-2.42735 -0.14877,-4.41336 -0.24967,-4.41336 -0.1009,0 -0.95574,0.14597 -1.89966,0.32437 -1.68634,0.31873 -5.24493,0.44783 -7.39537,0.26828 l -1.09216,-0.0912 -0.10921,21.77861 -0.10922,21.77861 -0.60002,1.09287 c -0.67256,1.22498 -1.75139,2.30281 -3.02447,3.02168 -1.92142,1.08495 -1.37242,1.06308 -26.69278,1.06308 h -23.34495 l 0.0734,2.21323 c 0.0667,2.01104 0.1265,2.28491 0.65459,2.99789 1.15319,1.55691 -1.47923,1.4422 31.78438,1.38511 l 29.66862,-0.051 0.71484,-0.45606 c 0.39316,-0.25084 0.9092,-0.79685 1.14675,-1.21336 0.41845,-0.73367 0.43192,-1.19662 0.43192,-14.8423 0,-15.42967 -0.0414,-14.93233 1.28586,-15.42411 0.86245,-0.31955 1.87762,-0.10158 2.42479,0.52064 0.43151,0.4907 0.43952,0.76613 0.43952,15.11979 0,14.30776 -0.01,14.64309 -0.45227,15.70127 -0.55659,1.33064 -2.29855,3.08703 -3.67785,3.70832 -0.55165,0.24848 -1.52386,0.55064 -2.1605,0.67146 -0.82595,0.15676 -9.49162,0.216 -30.25258,0.20683 -24.4023,-0.0108 -29.28074,-0.0576 -30.24617,-0.29006 z m 44.82023,-14.14705 c 1.17882,-0.24456 1.89534,-0.75735 2.47425,-1.77075 l 0.49147,-0.86033 V 208.95218 187.2954 l -1.2539,-0.49602 c -3.12118,-1.23469 -6.48349,-3.64421 -8.70433,-6.23777 -0.95813,-1.11892 -1.33805,-1.43031 -1.60121,-1.31235 -0.41084,0.18417 -39.01731,0.32602 -40.39978,0.14844 -0.57592,-0.074 -1.16187,-0.30714 -1.4744,-0.58669 -0.51839,-0.46369 -0.51865,-0.46642 -0.51865,-5.37239 v -4.90847 l 0.63849,-0.57112 0.63849,-0.57111 h 18.99478 18.99479 l 0.15678,-1.31883 c 0.36811,-3.09637 1.79928,-6.68994 3.60857,-9.06087 0.47992,-0.62889 0.87257,-1.18839 0.87257,-1.24334 0,-0.20678 -50.77063,-0.1013 -51.61011,0.10723 -1.1165,0.27734 -2.28686,1.23767 -2.5675,2.10673 -0.15938,0.49358 -0.21088,11.92809 -0.16651,36.9732 l 0.0642,36.25863 0.60957,0.71483 c 0.66048,0.77456 1.21027,1.10003 2.23002,1.32016 0.97318,0.21008 57.50885,0.20464 58.5224,-0.006 z M 185.68086,217.7071 c -0.81218,-0.31601 -1.16396,-0.82044 -1.16396,-1.66901 0,-0.81757 0.31817,-1.30273 1.08778,-1.65872 0.5554,-0.2569 3.22737,-0.2951 20.64603,-0.2951 21.49784,0 20.91521,-0.0261 21.5089,0.96609 0.29303,0.48976 0.28743,1.49507 -0.0112,1.99403 -0.5734,0.95837 -0.33691,0.94806 -21.54538,0.93988 -16.36178,-0.007 -19.95069,-0.0548 -20.52226,-0.27717 z m -0.52547,-9.66465 c -0.4727,-0.42283 -0.63849,-0.75647 -0.63849,-1.28501 0,-0.52854 0.16579,-0.86218 0.63849,-1.28502 l 0.63849,-0.57111 h 20.45683 20.45683 l 0.63849,0.57111 c 0.88121,0.78824 0.88121,1.7818 0,2.57003 l -0.63849,0.57112 h -20.45683 -20.45683 z m 0.40455,-8.91641 c -0.73129,-0.35498 -1.04304,-0.84792 -1.04304,-1.64926 0,-0.86404 0.35665,-1.35763 1.21193,-1.67729 1.10362,-0.41247 39.94013,-0.41247 41.04375,0 0.85529,0.31966 1.21194,0.81325 1.21194,1.67729 0,0.81758 -0.31817,1.30274 -1.08778,1.65873 -0.952,0.44035 -40.42877,0.43131 -41.3368,-0.009 z m -0.4561,-9.62177 c -0.83086,-0.77573 -0.81005,-1.82247 0.0515,-2.59315 l 0.63849,-0.57112 h 20.45684 20.45682 l 0.63849,0.57112 c 0.88122,0.78823 0.88122,1.78179 0,2.57002 l -0.63849,0.57112 h -20.50837 -20.50838 z m 66.68957,-5.30607 c 6.8087,-1.75706 11.98973,-6.94203 13.21457,-13.22466 0.41495,-2.12846 0.41403,-3.48445 -0.004,-5.62778 -1.31343,-6.73702 -7.20997,-12.14051 -14.73395,-13.50197 -2.79318,-0.50543 -6.44234,-0.31619 -9.17987,0.47605 -6.13146,1.77443 -10.79629,6.20488 -12.47086,11.84427 -0.35528,1.19646 -0.46414,2.13587 -0.46414,4.00534 0,1.86946 0.10886,2.80887 0.46414,4.00533 1.83103,6.1663 7.30615,10.93544 14.10908,12.28982 2.20436,0.43886 6.86236,0.30197 9.06486,-0.2664 z m -27.95907,-10.85112 v -2.2469 h -17.58363 -17.58363 v 2.2469 2.24689 h 17.58363 17.58363 z m 30.21016,32.64575 c -0.50889,-0.39155 -0.61287,-0.62643 -0.61287,-1.38459 0,-0.75817 0.10398,-0.99305 0.61287,-1.3846 0.82626,-0.63573 1.88331,-0.62258 2.75604,0.0343 0.55957,0.42116 0.67205,0.64717 0.67205,1.35031 0,0.70314 -0.11248,0.92914 -0.67205,1.35031 -0.87273,0.65686 -1.92978,0.67002 -2.75604,0.0343 z"
         id="path1401"
         sodipodi:nodetypes="cssscccssccccccsssccccsccsssscccssscssccsssssscssscccscccssscsscccccssscccccscccssscccccssccccsscccscssssscccccccsscccccscssssssccccccccccccssssscc" /></g><g
       id="g380"
       transform="translate(323.28922,29.934187)" /></g></svg>
