<?xml version="1.0" encoding="UTF-8" standalone="no"?>
<!-- Created with Inkscape (http://www.inkscape.org/) -->

<svg
   width="100mm"
   height="100mm"
   viewBox="0 0 100.00001 100"
   version="1.1"
   id="svg5"
   xml:space="preserve"
   inkscape:version="1.2.1 (9c6d41e410, 2022-07-14)"
   sodipodi:docname="mesh.svg"
   inkscape:export-filename="select.png"
   inkscape:export-xdpi="96"
   inkscape:export-ydpi="96"
   xmlns:inkscape="http://www.inkscape.org/namespaces/inkscape"
   xmlns:sodipodi="http://sodipodi.sourceforge.net/DTD/sodipodi-0.dtd"
   xmlns="http://www.w3.org/2000/svg"
   xmlns:svg="http://www.w3.org/2000/svg"><sodipodi:namedview
     id="namedview7"
     pagecolor="#ffffff"
     bordercolor="#999999"
     borderopacity="1"
     inkscape:showpageshadow="0"
     inkscape:pageopacity="0"
     inkscape:pagecheckerboard="0"
     inkscape:deskcolor="#d1d1d1"
     inkscape:document-units="mm"
     showgrid="false"
     inkscape:zoom="0.1767767"
     inkscape:cx="777.81746"
     inkscape:cy="-277.18586"
     inkscape:window-width="1920"
     inkscape:window-height="1009"
     inkscape:window-x="1912"
     inkscape:window-y="-8"
     inkscape:window-maximized="1"
     inkscape:current-layer="layer1"
     showguides="false"><inkscape:grid
       type="xygrid"
       id="grid6400"
       originx="374.75324"
       originy="-289.94654" /></sodipodi:namedview><defs
     id="defs2" /><g
     inkscape:label="Capa 1"
     inkscape:groupmode="layer"
     id="layer1"
     transform="translate(44.62862,-436.47859)"><g
       id="g5926"
       transform="translate(-214.30834,288.80055)"><path
         id="rect5172"
         style="fill:#7f7f7f;fill-opacity:1;stroke:none;stroke-width:1.93907;stroke-linecap:butt;stroke-linejoin:bevel;stroke-dasharray:none;stroke-opacity:1"
         d="m 194.67954,157.67804 a 3,2.6999973 0 0 0 -2.99982,2.69984 v 84.59987 a 3,2.6999973 0 0 0 2.99982,2.70029 3,2.6999973 0 0 0 3.00033,-2.70029 v -84.59987 a 3,2.6999973 0 0 0 -3.00033,-2.69984 z" /><path
         id="rect5172-9"
         style="fill:#7f7f7f;fill-opacity:1;stroke:none;stroke-width:1.93907;stroke-linecap:butt;stroke-linejoin:bevel;stroke-dasharray:none;stroke-opacity:1"
         d="m 219.67954,152.67804 a 3,2.6999973 0 0 0 -2.99982,2.69984 v 84.59987 a 3,2.6999973 0 0 0 2.99982,2.70029 3,2.6999973 0 0 0 3.00033,-2.70029 v -84.59987 a 3,2.6999973 0 0 0 -3.00033,-2.69984 z" /><path
         id="rect5172-9-0"
         style="fill:#7f7f7f;fill-opacity:1;stroke:none;stroke-width:1.93907;stroke-linecap:butt;stroke-linejoin:bevel;stroke-dasharray:none;stroke-opacity:1"
         d="m 244.67954,147.67804 a 3,2.6999973 0 0 0 -2.99982,2.69984 v 84.59987 a 3,2.6999973 0 0 0 2.99982,2.70029 3,2.6999973 0 0 0 3.00033,-2.70029 v -84.59987 a 3,2.6999973 0 0 0 -3.00033,-2.69984 z" /><path
         id="rect5172-92"
         style="fill:#7f7f7f;fill-opacity:1;stroke:none;stroke-width:1.93907;stroke-linecap:butt;stroke-linejoin:bevel;stroke-dasharray:none;stroke-opacity:1"
         d="m 269.67972,222.67786 a 2.6999973,3 0 0 0 -2.69984,-2.99982 h -84.59987 a 2.6999973,3 0 0 0 -2.70029,2.99982 2.6999973,3 0 0 0 2.70029,3.00033 h 84.59987 a 2.6999973,3 0 0 0 2.69984,-3.00033 z" /><path
         id="rect5172-9-02"
         style="fill:#7f7f7f;fill-opacity:1;stroke:none;stroke-width:1.93907;stroke-linecap:butt;stroke-linejoin:bevel;stroke-dasharray:none;stroke-opacity:1"
         d="m 264.67972,197.67786 a 2.6999973,3 0 0 0 -2.69984,-2.99982 h -84.59987 a 2.6999973,3 0 0 0 -2.70029,2.99982 2.6999973,3 0 0 0 2.70029,3.00033 h 84.59987 a 2.6999973,3 0 0 0 2.69984,-3.00033 z" /><path
         id="rect5172-9-0-9"
         style="fill:#7f7f7f;fill-opacity:1;stroke:none;stroke-width:1.93907;stroke-linecap:butt;stroke-linejoin:bevel;stroke-dasharray:none;stroke-opacity:1"
         d="m 259.67972,172.67786 a 2.6999973,3 0 0 0 -2.69984,-2.99982 h -84.59987 a 2.6999973,3 0 0 0 -2.70029,2.99982 2.6999973,3 0 0 0 2.70029,3.00033 h 84.59987 a 2.6999973,3 0 0 0 2.69984,-3.00033 z" /><circle
         style="fill:#c8cc8e;fill-opacity:1;stroke:none;stroke-width:1.54133;stroke-linecap:butt;stroke-linejoin:bevel;stroke-dasharray:none;stroke-opacity:1"
         id="path5379"
         cx="194.67972"
         cy="172.67804"
         r="7.5" /><circle
         style="fill:#c8cc8e;fill-opacity:1;stroke:none;stroke-width:1.54133;stroke-linecap:butt;stroke-linejoin:bevel;stroke-dasharray:none;stroke-opacity:1"
         id="path5379-4"
         cx="219.67972"
         cy="172.67804"
         r="7.5" /><circle
         style="fill:#c8cc8e;fill-opacity:1;stroke:none;stroke-width:1.54133;stroke-linecap:butt;stroke-linejoin:bevel;stroke-dasharray:none;stroke-opacity:1"
         id="path5379-4-6"
         cx="244.67972"
         cy="172.67804"
         r="7.5" /><circle
         style="fill:#c8cc8e;fill-opacity:1;stroke:none;stroke-width:1.54133;stroke-linecap:butt;stroke-linejoin:bevel;stroke-dasharray:none;stroke-opacity:1"
         id="path5379-1"
         cx="194.67972"
         cy="222.67804"
         r="7.5" /><circle
         style="fill:#c8cc8e;fill-opacity:1;stroke:none;stroke-width:1.54133;stroke-linecap:butt;stroke-linejoin:bevel;stroke-dasharray:none;stroke-opacity:1"
         id="path5379-4-1"
         cx="219.67972"
         cy="222.67804"
         r="7.5" /><circle
         style="fill:#c8cc8e;fill-opacity:1;stroke:none;stroke-width:1.54133;stroke-linecap:butt;stroke-linejoin:bevel;stroke-dasharray:none;stroke-opacity:1"
         id="path5379-4-6-1"
         cx="244.67973"
         cy="222.67804"
         r="7.5" /><circle
         style="fill:#c8cc8e;fill-opacity:1;stroke:none;stroke-width:1.54133;stroke-linecap:butt;stroke-linejoin:bevel;stroke-dasharray:none;stroke-opacity:1"
         id="path5379-1-1"
         cx="194.67972"
         cy="197.67804"
         r="7.5" /><circle
         style="fill:#c8cc8e;fill-opacity:1;stroke:none;stroke-width:1.54133;stroke-linecap:butt;stroke-linejoin:bevel;stroke-dasharray:none;stroke-opacity:1"
         id="path5379-4-1-7"
         cx="219.67973"
         cy="197.67804"
         r="7.5" /><circle
         style="fill:#c8cc8e;fill-opacity:1;stroke:none;stroke-width:1.54133;stroke-linecap:butt;stroke-linejoin:bevel;stroke-dasharray:none;stroke-opacity:1"
         id="path5379-4-6-1-4"
         cx="244.67975"
         cy="197.67804"
         r="7.5" /></g><g
       id="g380"
       transform="translate(323.28922,29.934187)" /></g></svg>
