<?xml version="1.0" encoding="UTF-8" standalone="no"?>
<!-- Created with Inkscape (http://www.inkscape.org/) -->

<svg
   width="101.51531mm"
   height="135.39124mm"
   viewBox="0 0 101.51532 135.39124"
   version="1.1"
   id="svg5"
   xml:space="preserve"
   inkscape:version="1.3 (0e150ed6c4, 2023-07-21)"
   sodipodi:docname="pdf.svg"
   inkscape:export-filename="select.png"
   inkscape:export-xdpi="96"
   inkscape:export-ydpi="96"
   xmlns:inkscape="http://www.inkscape.org/namespaces/inkscape"
   xmlns:sodipodi="http://sodipodi.sourceforge.net/DTD/sodipodi-0.dtd"
   xmlns="http://www.w3.org/2000/svg"
   xmlns:svg="http://www.w3.org/2000/svg"><sodipodi:namedview
     id="namedview7"
     pagecolor="#ffffff"
     bordercolor="#999999"
     borderopacity="1"
     inkscape:showpageshadow="0"
     inkscape:pageopacity="0"
     inkscape:pagecheckerboard="0"
     inkscape:deskcolor="#d1d1d1"
     inkscape:document-units="mm"
     showgrid="false"
     inkscape:zoom="0.5"
     inkscape:cx="180"
     inkscape:cy="763"
     inkscape:window-width="1920"
     inkscape:window-height="1009"
     inkscape:window-x="1912"
     inkscape:window-y="-8"
     inkscape:window-maximized="1"
     inkscape:current-layer="g1"
     showguides="false"><inkscape:grid
       type="xygrid"
       id="grid6400"
       originx="-10.738625"
       originy="1192.0335"
       spacingy="1"
       spacingx="1"
       units="mm"
       visible="false" /></sodipodi:namedview><defs
     id="defs2" /><g
     inkscape:label="Capa 1"
     inkscape:groupmode="layer"
     id="layer1"
     transform="translate(-27.433911,605.93189)"><g
       id="g380"
       transform="translate(323.28922,29.934187)" /><g
       id="g1"
       transform="matrix(0.88532107,0,0,0.88532107,-76.29687,-181.57046)"><path
         style="fill:#d0d0d0;fill-opacity:1"
         d="m 123.74281,-352.13961 c 0.005,-0.43657 0.0647,-0.58313 0.13177,-0.3257 0.0671,0.25743 0.0627,0.61462 -0.01,0.79375 -0.0725,0.17913 -0.12736,-0.0315 -0.12197,-0.46805 z m 101.33541,0 c 0.005,-0.43657 0.0647,-0.58313 0.13177,-0.3257 0.0671,0.25743 0.0627,0.61462 -0.01,0.79375 -0.0725,0.17913 -0.12736,-0.0315 -0.12197,-0.46805 z m -65.13908,-28.27802 c 0,-0.0549 0.20836,-0.2633 0.46302,-0.46302 0.41965,-0.32911 0.42901,-0.31975 0.0999,0.0999 -0.34564,0.44073 -0.56292,0.58089 -0.56292,0.36313 z m 26.74381,-0.58361 c 0.0127,-0.30823 0.0754,-0.37092 0.15985,-0.15986 0.0764,0.191 0.067,0.4192 -0.0209,0.50712 -0.0879,0.0879 -0.15045,-0.0684 -0.13896,-0.34726 z m 0,-1.5875 c 0.0127,-0.30823 0.0754,-0.37092 0.15985,-0.15986 0.0764,0.191 0.067,0.4192 -0.0209,0.50712 -0.0879,0.0879 -0.15045,-0.0683 -0.13896,-0.34726 z m -24.34167,-4.49792 c 0.0127,-0.30823 0.0754,-0.37092 0.15985,-0.15985 0.0764,0.19099 0.067,0.4192 -0.0209,0.50711 -0.0879,0.0879 -0.15046,-0.0684 -0.13897,-0.34726 z m 57.77392,-48.59514 -0.7771,-0.85989 0.85989,0.7771 c 0.47295,0.42741 0.8599,0.81436 0.8599,0.8599 0,0.2044 -0.21831,0.0244 -0.94269,-0.77711 z m -6.35,-6.61458 -0.7771,-0.8599 0.85989,0.77711 c 0.80155,0.72437 0.98152,0.94269 0.77711,0.94269 -0.0455,0 -0.43249,-0.38696 -0.8599,-0.8599 z m -6.22108,-6.48229 -0.64144,-0.72761 0.72761,0.64144 c 0.68005,0.59951 0.84894,0.81377 0.64143,0.81377 -0.0474,0 -0.37482,-0.32742 -0.7276,-0.7276 z m -83.80131,-4.69636 c 0.005,-0.43656 0.0647,-0.58312 0.13177,-0.32569 0.0671,0.25743 0.0627,0.61462 -0.01,0.79375 -0.0725,0.17913 -0.12736,-0.0315 -0.12197,-0.46806 z m 77.85156,-1.52135 -0.7771,-0.8599 0.85989,0.77711 c 0.47294,0.42741 0.8599,0.81436 0.8599,0.8599 0,0.2044 -0.21832,0.0244 -0.94269,-0.77711 z m -6.22109,-6.48229 -0.64143,-0.7276 0.7276,0.64143 c 0.40019,0.35279 0.72761,0.68021 0.72761,0.7276 0,0.20751 -0.21426,0.0386 -0.81378,-0.64143 z m -5.95823,-6.21771 -0.50403,-0.59531 0.59531,0.50403 c 0.32742,0.27721 0.59531,0.5451 0.59531,0.59531 0,0.21173 -0.21293,0.0554 -0.68659,-0.50403 z"
         id="path6" /><path
         style="fill:#b9b9b9;fill-opacity:1"
         d="m 123.8208,-402.80732 c 0,-27.5762 0.031,-38.85737 0.0688,-25.06927 0.0379,13.7881 0.0379,36.35044 0,50.13854 -0.0379,13.7881 -0.0688,2.50693 -0.0688,-25.06927 z m 101.33466,11.24479 c 0,-21.39156 0.0313,-30.10355 0.0696,-19.35999 0.0383,10.74357 0.0383,28.24576 -1e-5,38.89375 -0.0383,10.648 -0.0696,1.8578 -0.0696,-19.53376 z m -75.4268,17.72708 c -3.1e-4,-2.47385 0.0395,-3.52149 0.0884,-2.32809 0.0489,1.1934 0.0492,3.21746 5.5e-4,4.49792 -0.0486,1.28045 -0.0886,0.30403 -0.0889,-2.16983 z m -0.0116,-12.43541 c 6.9e-4,-1.45521 0.0451,-2.01677 0.0987,-1.2479 0.0536,0.76886 0.0531,1.95948 -0.001,2.64583 -0.0543,0.68635 -0.0982,0.0573 -0.0975,-1.39793 z m 28.97378,-0.59531 c -0.32911,-0.41965 -0.31975,-0.42901 0.0999,-0.0999 0.44072,0.34564 0.58088,0.56292 0.36312,0.56292 -0.0549,0 -0.2633,-0.20836 -0.46302,-0.46302 z m -32.44385,-7.40734 c 1.56435,-0.0468 4.12419,-0.0468 5.68854,0 1.56435,0.0468 0.28443,0.085 -2.84427,0.085 -3.1287,0 -4.40862,-0.0383 -2.84427,-0.085 z m 21.15328,6.3e-4 c 1.26595,-0.0484 3.40907,-0.0486 4.7625,-5e-4 1.35343,0.0481 0.31765,0.0877 -2.30172,0.088 -2.61938,2.8e-4 -3.72673,-0.0391 -2.46078,-0.0875 z m 27.00088,-0.001 c 2.43747,-0.0437 6.42607,-0.0437 8.86354,0 2.43748,0.0437 0.44318,0.0794 -4.43177,0.0794 -4.87495,0 -6.86924,-0.0357 -4.43177,-0.0794 z m 29.67434,-37.1744 -0.50403,-0.59532 0.59531,0.50403 c 0.32743,0.27722 0.59532,0.54511 0.59532,0.59531 0,0.21174 -0.21294,0.0554 -0.6866,-0.50402 z m -5.67765,-5.95313 -0.91179,-0.99219 0.99218,0.9118 c 0.54571,0.50149 0.99219,0.94798 0.99219,0.99219 0,0.20204 -0.22389,0.0117 -1.07258,-0.9118 z m -6.35,-6.61458 -0.91179,-0.99219 0.99218,0.9118 c 0.54571,0.50149 0.99219,0.94797 0.99219,0.99219 0,0.20204 -0.22389,0.0117 -1.07258,-0.9118 z m -6.21591,-6.48229 -1.04588,-1.12448 1.12448,1.04588 c 0.61846,0.57524 1.12447,1.08125 1.12447,1.12448 0,0.20018 -0.23041,-1.3e-4 -1.20307,-1.04588 z m -6.08542,-6.35 -1.04588,-1.12448 1.12448,1.04588 c 0.61846,0.57524 1.12448,1.08125 1.12448,1.12448 0,0.20018 -0.23041,-1.3e-4 -1.20308,-1.04588 z m -5.82502,-6.08542 -0.77711,-0.85989 0.8599,0.7771 c 0.47294,0.42741 0.85989,0.81436 0.85989,0.8599 0,0.2044 -0.21831,0.0244 -0.94268,-0.77711 z m -5.95073,-6.21771 -0.9118,-0.99218 0.99219,0.91179 c 0.92351,0.84869 1.11384,1.07258 0.9118,1.07258 -0.0442,0 -0.4907,-0.44648 -0.99219,-0.99219 z"
         id="path5" /><path
         style="fill:#959595;fill-opacity:1"
         d="m 143.39254,-381.77295 c -5e-5,-6.83947 0.0342,-9.67541 0.076,-6.30207 0.0419,3.37334 0.0419,8.96928 1e-4,12.43542 -0.0418,3.46614 -0.076,0.70613 -0.0761,-6.13335 z m 21.69584,0 c -6e-5,-6.83947 0.0341,-9.67541 0.076,-6.30207 0.0419,3.37334 0.0419,8.96928 9e-5,12.43542 -0.0418,3.46614 -0.076,0.70613 -0.0761,-6.13335 z m 6.82316,6.82195 c 0.40018,-0.0606 1.05502,-0.0606 1.45521,0 0.40018,0.0606 0.0728,0.11023 -0.72761,0.11023 -0.80036,0 -1.12778,-0.0496 -0.7276,-0.11023 z m -20.76092,-3.44544 c 0.76886,-0.0536 1.95948,-0.0531 2.64583,10e-4 0.68635,0.0543 0.0573,0.0982 -1.39793,0.0975 -1.45521,-6.9e-4 -2.01676,-0.0451 -1.2479,-0.0987 z m 29.18233,-2.6048 c 0.0127,-0.30823 0.0754,-0.37092 0.15985,-0.15986 0.0764,0.191 0.067,0.4192 -0.0209,0.50712 -0.0879,0.0879 -0.15045,-0.0684 -0.13896,-0.34726 z m 27.32908,-10.429 c 0,-1.52797 0.0437,-2.15304 0.0972,-1.38906 0.0534,0.76399 0.0534,2.01414 0,2.77813 -0.0534,0.76398 -0.0972,0.1389 -0.0972,-1.38907 z m -32.95583,-2.82657 c 0.191,-0.0764 0.4192,-0.067 0.50712,0.0209 0.0879,0.0879 -0.0684,0.15045 -0.34727,0.13896 -0.30822,-0.0127 -0.37092,-0.0754 -0.15985,-0.15985 z m 12.15761,-56.37394 -0.0695,-19.77761 3.175,3.30624 c 1.74625,1.81843 4.43328,4.6164 5.97118,6.21771 9.58076,9.97578 27.71183,28.95014 28.13493,29.44352 l 0.50403,0.58774 h -18.82311 -18.82311 z"
         id="path4" /><path
         style="fill:#8c8c8c;fill-opacity:1"
         d="m 128.96287,-340.29951 -0.64143,-0.7276 0.7276,0.64143 c 0.40018,0.35279 0.72761,0.68021 0.72761,0.7276 0,0.20751 -0.21426,0.0386 -0.81378,-0.64143 z m 90.7721,0.0661 c 0.34178,-0.36381 0.68094,-0.66146 0.7537,-0.66146 0.0728,0 -0.14734,0.29765 -0.48911,0.66146 -0.34178,0.3638 -0.68094,0.66145 -0.7537,0.66145 -0.0728,0 0.14734,-0.29765 0.48911,-0.66145 z m -29.77566,-41.67188 c 0,-6.91224 0.0342,-9.73997 0.076,-6.28385 0.0418,3.45612 0.0418,9.11159 0,12.56771 -0.0418,3.45612 -0.076,0.62838 -0.076,-6.28386 z m -9.60547,0 c 0,-0.3638 0.0601,-0.51263 0.13345,-0.33073 0.0734,0.1819 0.0734,0.47956 0,0.66146 -0.0734,0.1819 -0.13345,0.0331 -0.13345,-0.33073 z m 18.28061,-3.10741 c 1.27331,-0.0485 3.3569,-0.0485 4.63021,0 1.27331,0.0485 0.23151,0.0882 -2.3151,0.0882 -2.54662,0 -3.58841,-0.0397 -2.31511,-0.0882 z m -11.8467,-65.55196 c -2e-5,-10.91406 0.0327,-15.41747 0.0726,-10.00758 0.04,5.40989 0.04,14.33958 4e-5,19.84375 -0.0399,5.50417 -0.0726,1.07789 -0.0727,-9.83617 z m -57.80485,-14.81666 c 0.34177,-0.36381 0.68093,-0.66146 0.75369,-0.66146 0.0728,0 -0.14734,0.29765 -0.48911,0.66146 -0.34178,0.3638 -0.68094,0.66145 -0.7537,0.66145 -0.0728,0 0.14734,-0.29765 0.48912,-0.66145 z"
         id="path3" /><path
         style="fill:#d9d9d9;fill-opacity:1;stroke-width:1.09509"
         d="m 135.82486,-329.57198 c -4.31196,-0.57396 -7.69697,-2.2991 -11.02962,-5.62116 -1.84531,-1.83944 -2.60407,-2.86436 -3.55457,-4.80146 -2.20294,-4.48956 -2.05719,0.007 -2.05719,-63.4536 0,-63.44942 -0.14533,-58.95884 2.05358,-63.4536 1.62068,-3.31282 5.16149,-6.8969 8.36709,-8.46934 4.50122,-2.20798 2.60689,-2.0786 31.9441,-2.18173 l 26.29414,-0.0924 v 21.7403 21.7403 l 20.93388,0.0744 20.9339,0.0744 0.0734,43.6927 c 0.082,48.82814 0.19988,45.84964 -1.99185,50.32873 -1.62112,3.31293 -5.16208,6.89705 -8.36738,8.46933 -4.60933,2.26101 -1.14219,2.09133 -43.75111,2.14123 -20.95562,0.0245 -38.88738,-0.06 -39.84834,-0.18795 z m 11.74333,-42.11031 v -4.74162 l 3.54933,-0.15573 c 4.50709,-0.19775 5.94019,-0.68196 7.94152,-2.6833 1.71907,-1.71907 2.41678,-3.52715 2.41678,-6.26294 0,-3.45803 -1.91886,-6.38441 -5.16446,-7.87614 -1.24985,-0.57445 -1.92124,-0.63052 -8.67075,-0.72412 l -7.31599,-0.1014 v 13.64348 13.64347 h 3.62179 3.62178 z m 0,-13.62156 v -2.78799 h 2.12982 c 2.77081,0 3.91146,0.40505 4.39419,1.56042 0.48542,1.16175 0.26261,2.27983 -0.61945,3.10848 -0.59413,0.55816 -1.09645,0.6772 -3.30264,0.78268 l -2.60192,0.1244 z m 30.57938,17.91977 c 6.44963,-1.65616 9.99528,-6.31592 9.98027,-13.11628 -0.0121,-5.53279 -2.43886,-9.76673 -6.83938,-11.9331 -2.85515,-1.40558 -5.01351,-1.73227 -11.48254,-1.73795 l -5.72241,-0.005 v 13.61788 13.6179 h 6.16858 c 4.59234,0 6.60987,-0.1133 7.89548,-0.44343 z m -7.11024,-13.18042 v -7.61015 l 2.30212,0.15779 c 3.88782,0.26648 6.29781,1.77927 7.21936,4.5317 0.18136,0.54168 0.32976,1.99362 0.32976,3.2265 0,3.10056 -0.92764,4.9076 -3.16824,6.17169 -1.34684,0.75985 -1.94418,0.90604 -4.12883,1.01049 l -2.55417,0.12213 z m 27.52552,8.11875 v -5.50511 h 4.92563 4.92562 v -3.04229 -3.04231 h -4.92562 -4.92563 v -2.02819 -2.02819 h 6.22947 6.22946 v -3.04231 -3.04229 h -9.85124 -9.85124 v 13.61789 13.6179 h 3.62178 3.62177 z"
         id="path2" /></g></g></svg>
